M48
; DRILL file {KiCad 9.0.2} date 2025-05-15T00:42:00-0400
; FORMAT={-:-/ absolute / metric / decimal}
; #@! TF.CreationDate,2025-05-15T00:42:00-04:00
; #@! TF.GenerationSoftware,Kicad,Pcbnew,9.0.2
; #@! TF.FileFunction,Plated,1,2,PTH
FMAT,2
METRIC
; #@! TA.AperFunction,Plated,PTH,ViaDrill
T1C0.300
; #@! TA.AperFunction,Plated,PTH,ComponentDrill
T2C0.750
; #@! TA.AperFunction,Plated,PTH,ComponentDrill
T3C0.800
; #@! TA.AperFunction,Plated,PTH,ComponentDrill
T4C0.900
; #@! TA.AperFunction,Plated,PTH,ComponentDrill
T5C1.000
; #@! TA.AperFunction,Plated,PTH,ComponentDrill
T6C1.020
; #@! TA.AperFunction,Plated,PTH,ComponentDrill
T7C1.100
%
G90
G05
T1
X47.25Y-121.75
X48.0Y-54.0
X58.5Y-56.5
X62.5Y-66.5
X64.5Y-64.0
X69.0Y-63.5
X69.672Y-64.5
X70.0Y-90.0
X70.5Y-78.5
X71.0Y-84.0
X75.0Y-64.0
X75.5Y-89.5
X78.0Y-93.0
X88.5Y-101.0
X91.75Y-62.25
X92.0Y-81.0
X93.5Y-67.5
X97.5Y-45.5
X98.5Y-114.0
X100.0Y-63.0
X100.0Y-67.5
X100.5Y-74.5
X103.0Y-113.5
X103.5Y-66.0
X104.5Y-63.0
X107.0Y-95.0
X107.5Y-99.0
X107.5Y-100.0
X107.5Y-101.0
X108.0Y-132.0
X109.0Y-64.5
X109.0Y-92.5
X110.0Y-138.5
X110.5Y-108.0
X110.75Y-147.25
X112.0Y-97.5
X112.5Y-105.5
X113.0Y-93.0
X114.0Y-97.5
X117.25Y-71.25
X118.0Y-66.5
X119.0Y-103.0
X120.5Y-60.5
X122.5Y-107.5
X126.726Y-95.774
X130.5Y-124.0
X131.0Y-63.0
X131.5Y-48.0
X136.24Y-90.5
X141.0Y-116.0
X141.5Y-87.0
X145.5Y-131.0
X151.5Y-85.5
X156.416Y-133.084
X165.5Y-104.5
T2
X61.5Y-110.5
X62.77Y-110.5
X64.04Y-110.5
T3
X81.938Y-57.362
X81.938Y-59.902
X81.938Y-62.442
X81.938Y-64.983
X81.938Y-67.522
X81.938Y-70.062
X81.938Y-72.602
X81.938Y-75.142
X81.938Y-77.682
X81.938Y-80.222
X81.938Y-82.763
X81.938Y-85.302
X81.938Y-87.843
X81.938Y-90.382
X81.938Y-92.922
X81.938Y-95.462
X81.938Y-98.002
X81.938Y-100.542
X81.938Y-103.082
X81.938Y-105.623
X97.177Y-57.362
X97.177Y-59.902
X97.177Y-62.442
X97.177Y-64.983
X97.177Y-67.522
X97.177Y-70.062
X97.177Y-72.602
X97.177Y-75.142
X97.177Y-77.682
X97.177Y-80.222
X97.177Y-82.763
X97.177Y-85.302
X97.177Y-87.843
X97.177Y-90.382
X97.177Y-92.922
X97.177Y-95.462
X97.177Y-98.002
X97.177Y-100.542
X97.177Y-103.082
X97.177Y-105.623
X105.56Y-43.0
X110.44Y-43.0
T5
X130.5Y-81.0
X136.5Y-124.92
X136.5Y-127.46
X136.5Y-130.0
X138.1Y-81.0
X166.0Y-61.5
X166.0Y-64.04
X166.0Y-66.58
X168.54Y-61.5
X168.54Y-64.04
X168.54Y-66.58
T6
X67.96Y-43.0
X68.0Y-57.5
X70.5Y-43.0
X70.54Y-57.5
X73.04Y-43.0
X73.08Y-57.5
X146.42Y-98.5
X148.96Y-98.5
X151.5Y-98.5
T7
X100.0Y-121.0
X102.54Y-121.0
X105.08Y-121.0
X114.84Y-116.5
X125.0Y-116.5
X140.92Y-110.492
X151.08Y-110.492
X173.34Y-87.5
X183.5Y-87.5
T4
G00X71.7Y-117.6
M15
G01X73.3Y-117.6
M16
G05
G00X71.7Y-129.0
M15
G01X73.3Y-129.0
M16
G05
M30
