%TF.GenerationSoftware,KiCad,Pcbnew,9.0.2*%
%TF.CreationDate,2025-05-15T00:42:05-04:00*%
%TF.ProjectId,ProjectScematic_PCBv2,50726f6a-6563-4745-9363-656d61746963,rev?*%
%TF.SameCoordinates,Original*%
%TF.FileFunction,Paste,Top*%
%TF.FilePolarity,Positive*%
%FSLAX46Y46*%
G04 Gerber Fmt 4.6, Leading zero omitted, Abs format (unit mm)*
G04 Created by KiCad (PCBNEW 9.0.2) date 2025-05-15 00:42:05*
%MOMM*%
%LPD*%
G01*
G04 APERTURE LIST*
G04 Aperture macros list*
%AMRoundRect*
0 Rectangle with rounded corners*
0 $1 Rounding radius*
0 $2 $3 $4 $5 $6 $7 $8 $9 X,Y pos of 4 corners*
0 Add a 4 corners polygon primitive as box body*
4,1,4,$2,$3,$4,$5,$6,$7,$8,$9,$2,$3,0*
0 Add four circle primitives for the rounded corners*
1,1,$1+$1,$2,$3*
1,1,$1+$1,$4,$5*
1,1,$1+$1,$6,$7*
1,1,$1+$1,$8,$9*
0 Add four rect primitives between the rounded corners*
20,1,$1+$1,$2,$3,$4,$5,0*
20,1,$1+$1,$4,$5,$6,$7,0*
20,1,$1+$1,$6,$7,$8,$9,0*
20,1,$1+$1,$8,$9,$2,$3,0*%
%AMOutline5P*
0 Free polygon, 5 corners , with rotation*
0 The origin of the aperture is its center*
0 number of corners: always 5*
0 $1 to $10 corner X, Y*
0 $11 Rotation angle, in degrees counterclockwise*
0 create outline with 5 corners*
4,1,5,$1,$2,$3,$4,$5,$6,$7,$8,$9,$10,$1,$2,$11*%
%AMOutline6P*
0 Free polygon, 6 corners , with rotation*
0 The origin of the aperture is its center*
0 number of corners: always 6*
0 $1 to $12 corner X, Y*
0 $13 Rotation angle, in degrees counterclockwise*
0 create outline with 6 corners*
4,1,6,$1,$2,$3,$4,$5,$6,$7,$8,$9,$10,$11,$12,$1,$2,$13*%
%AMOutline7P*
0 Free polygon, 7 corners , with rotation*
0 The origin of the aperture is its center*
0 number of corners: always 7*
0 $1 to $14 corner X, Y*
0 $15 Rotation angle, in degrees counterclockwise*
0 create outline with 7 corners*
4,1,7,$1,$2,$3,$4,$5,$6,$7,$8,$9,$10,$11,$12,$13,$14,$1,$2,$15*%
%AMOutline8P*
0 Free polygon, 8 corners , with rotation*
0 The origin of the aperture is its center*
0 number of corners: always 8*
0 $1 to $16 corner X, Y*
0 $17 Rotation angle, in degrees counterclockwise*
0 create outline with 8 corners*
4,1,8,$1,$2,$3,$4,$5,$6,$7,$8,$9,$10,$11,$12,$13,$14,$15,$16,$1,$2,$17*%
%AMFreePoly0*
4,1,14,0.100000,0.600000,0.350000,0.600000,0.350000,-0.600000,0.100000,-0.600000,0.100000,-0.650000,-0.100000,-0.650000,-0.100000,-0.600000,-0.350000,-0.600000,-0.350000,0.450000,-0.200000,0.600000,-0.100000,0.600000,-0.100000,0.650000,0.100000,0.650000,0.100000,0.600000,0.100000,0.600000,$1*%
G04 Aperture macros list end*
%ADD10Outline5P,-0.250000X0.175000X0.152000X0.175000X0.250000X0.077000X0.250000X-0.175000X-0.250000X-0.175000X270.000000*%
%ADD11RoundRect,0.087500X-0.087500X0.162500X-0.087500X-0.162500X0.087500X-0.162500X0.087500X0.162500X0*%
%ADD12RoundRect,0.062500X-0.112500X-0.062500X0.112500X-0.062500X0.112500X0.062500X-0.112500X0.062500X0*%
%ADD13FreePoly0,0.000000*%
%ADD14R,0.550000X0.380000*%
%ADD15R,1.400000X1.200000*%
%ADD16R,3.500000X2.700000*%
%ADD17C,5.700000*%
%ADD18RoundRect,0.250000X-1.137500X-0.550000X1.137500X-0.550000X1.137500X0.550000X-1.137500X0.550000X0*%
%ADD19RoundRect,0.090000X-0.139000X-0.090000X0.139000X-0.090000X0.139000X0.090000X-0.139000X0.090000X0*%
%ADD20R,1.550000X2.200000*%
%ADD21R,2.500000X1.100000*%
%ADD22RoundRect,0.250000X-0.540000X-0.367500X0.540000X-0.367500X0.540000X0.367500X-0.540000X0.367500X0*%
%ADD23RoundRect,0.150000X-1.315000X-0.150000X1.315000X-0.150000X1.315000X0.150000X-1.315000X0.150000X0*%
%ADD24RoundRect,0.150000X-0.150000X-0.350000X0.150000X-0.350000X0.150000X0.350000X-0.150000X0.350000X0*%
G04 APERTURE END LIST*
D10*
%TO.C,J1*%
X68000000Y-65690000D03*
D11*
X68820000Y-65690000D03*
X69640000Y-65690000D03*
X70460000Y-65690000D03*
X71280000Y-65690000D03*
X72100000Y-65690000D03*
X72100000Y-67000000D03*
X71280000Y-67000000D03*
X70460000Y-67000000D03*
X69640000Y-67000000D03*
X68820000Y-67000000D03*
X68000000Y-67000000D03*
%TD*%
D12*
%TO.C,RF1*%
X156000000Y-126000000D03*
X156000000Y-126500000D03*
X156000000Y-127000000D03*
X157450000Y-127000000D03*
X157450000Y-126500000D03*
X157450000Y-126000000D03*
D13*
X156725000Y-126500000D03*
%TD*%
D14*
%TO.C,DIO3*%
X169980000Y-104692500D03*
X169080000Y-104692500D03*
D15*
X169530000Y-103652500D03*
%TD*%
D16*
%TO.C,D4*%
X118650000Y-56350000D03*
X131350000Y-53650000D03*
D17*
X125000000Y-55000000D03*
%TD*%
D18*
%TO.C,C1*%
X113000000Y-134000000D03*
X117125000Y-134000000D03*
%TD*%
D19*
%TO.C,R1*%
X131475000Y-66500000D03*
X132340000Y-66500000D03*
%TD*%
D18*
%TO.C,C5*%
X61375000Y-88700000D03*
X65500000Y-88700000D03*
%TD*%
D19*
%TO.C,R6*%
X109500000Y-101750000D03*
X110365000Y-101750000D03*
%TD*%
D18*
%TO.C,C3*%
X61375000Y-75000000D03*
X65500000Y-75000000D03*
%TD*%
%TO.C,C2*%
X98875000Y-134000000D03*
X103000000Y-134000000D03*
%TD*%
D19*
%TO.C,R7*%
X109500000Y-103500000D03*
X110365000Y-103500000D03*
%TD*%
%TO.C,R5*%
X109500000Y-100000000D03*
X110365000Y-100000000D03*
%TD*%
D20*
%TO.C,D2*%
X120130000Y-123927500D03*
X117280000Y-123927500D03*
%TD*%
D18*
%TO.C,C4*%
X61375000Y-81850000D03*
X65500000Y-81850000D03*
%TD*%
D21*
%TO.C,J3*%
X69750000Y-119800000D03*
X69750000Y-122300000D03*
X69750000Y-124300000D03*
X69750000Y-126800000D03*
%TD*%
D19*
%TO.C,R4*%
X109500000Y-98250000D03*
X110365000Y-98250000D03*
%TD*%
D18*
%TO.C,C6*%
X61375000Y-95550000D03*
X65500000Y-95550000D03*
%TD*%
D22*
%TO.C,Q1*%
X159250000Y-80862500D03*
X159250000Y-82297500D03*
X161030000Y-80862500D03*
X161030000Y-82297500D03*
D23*
X160000000Y-77000000D03*
D24*
X157460000Y-81720000D03*
%TD*%
D19*
%TO.C,R2*%
X109500000Y-94750000D03*
X110365000Y-94750000D03*
%TD*%
%TO.C,R8*%
X158970000Y-94875000D03*
X159835000Y-94875000D03*
%TD*%
%TO.C,R3*%
X143532500Y-54987500D03*
X144397500Y-54987500D03*
%TD*%
D22*
%TO.C,Q2*%
X157220000Y-106737500D03*
X157220000Y-108172500D03*
X159000000Y-106737500D03*
X159000000Y-108172500D03*
D23*
X157970000Y-102875000D03*
D24*
X155430000Y-107595000D03*
%TD*%
M02*
