%TF.GenerationSoftware,KiCad,Pcbnew,9.0.2*%
%TF.CreationDate,2025-05-15T00:42:05-04:00*%
%TF.ProjectId,ProjectScematic_PCBv2,50726f6a-6563-4745-9363-656d61746963,rev?*%
%TF.SameCoordinates,Original*%
%TF.FileFunction,Copper,L2,Bot*%
%TF.FilePolarity,Positive*%
%FSLAX46Y46*%
G04 Gerber Fmt 4.6, Leading zero omitted, Abs format (unit mm)*
G04 Created by KiCad (PCBNEW 9.0.2) date 2025-05-15 00:42:05*
%MOMM*%
%LPD*%
G01*
G04 APERTURE LIST*
G04 Aperture macros list*
%AMRoundRect*
0 Rectangle with rounded corners*
0 $1 Rounding radius*
0 $2 $3 $4 $5 $6 $7 $8 $9 X,Y pos of 4 corners*
0 Add a 4 corners polygon primitive as box body*
4,1,4,$2,$3,$4,$5,$6,$7,$8,$9,$2,$3,0*
0 Add four circle primitives for the rounded corners*
1,1,$1+$1,$2,$3*
1,1,$1+$1,$4,$5*
1,1,$1+$1,$6,$7*
1,1,$1+$1,$8,$9*
0 Add four rect primitives between the rounded corners*
20,1,$1+$1,$2,$3,$4,$5,0*
20,1,$1+$1,$4,$5,$6,$7,0*
20,1,$1+$1,$6,$7,$8,$9,0*
20,1,$1+$1,$8,$9,$2,$3,0*%
G04 Aperture macros list end*
%TA.AperFunction,ComponentPad*%
%ADD10RoundRect,0.249999X-0.850001X-0.850001X0.850001X-0.850001X0.850001X0.850001X-0.850001X0.850001X0*%
%TD*%
%TA.AperFunction,ComponentPad*%
%ADD11C,2.200000*%
%TD*%
%TA.AperFunction,ComponentPad*%
%ADD12R,1.700000X1.700000*%
%TD*%
%TA.AperFunction,ComponentPad*%
%ADD13C,1.700000*%
%TD*%
%TA.AperFunction,HeatsinkPad*%
%ADD14O,3.500000X1.900000*%
%TD*%
%TA.AperFunction,ComponentPad*%
%ADD15R,1.730000X2.030000*%
%TD*%
%TA.AperFunction,ComponentPad*%
%ADD16O,1.730000X2.030000*%
%TD*%
%TA.AperFunction,ComponentPad*%
%ADD17RoundRect,0.250000X-0.550000X-0.550000X0.550000X-0.550000X0.550000X0.550000X-0.550000X0.550000X0*%
%TD*%
%TA.AperFunction,ComponentPad*%
%ADD18C,1.600000*%
%TD*%
%TA.AperFunction,ComponentPad*%
%ADD19R,2.000000X2.000000*%
%TD*%
%TA.AperFunction,ComponentPad*%
%ADD20C,2.000000*%
%TD*%
%TA.AperFunction,ComponentPad*%
%ADD21R,1.905000X2.000000*%
%TD*%
%TA.AperFunction,ComponentPad*%
%ADD22O,1.905000X2.000000*%
%TD*%
%TA.AperFunction,ComponentPad*%
%ADD23R,1.050000X1.500000*%
%TD*%
%TA.AperFunction,ComponentPad*%
%ADD24O,1.050000X1.500000*%
%TD*%
%TA.AperFunction,ComponentPad*%
%ADD25C,1.500000*%
%TD*%
%TA.AperFunction,ViaPad*%
%ADD26C,0.600000*%
%TD*%
%TA.AperFunction,Conductor*%
%ADD27C,0.200000*%
%TD*%
G04 APERTURE END LIST*
D10*
%TO.P,D5,1,K*%
%TO.N,+5V*%
X140920000Y-110492500D03*
D11*
%TO.P,D5,2,A*%
%TO.N,Net-(D5-A)*%
X151080000Y-110492500D03*
%TD*%
D12*
%TO.P,J2,1,MISO*%
%TO.N,Net-(J2-MISO)*%
X166000000Y-61500000D03*
D13*
%TO.P,J2,2,VCC*%
%TO.N,+5V*%
X168540000Y-61500000D03*
%TO.P,J2,3,SCK*%
%TO.N,Net-(J2-SCK)*%
X166000000Y-64040000D03*
%TO.P,J2,4,MOSI*%
%TO.N,Net-(J2-MOSI)*%
X168540000Y-64040000D03*
%TO.P,J2,5,~{RST}*%
%TO.N,RESET*%
X166000000Y-66580000D03*
%TO.P,J2,6,GND*%
%TO.N,GND*%
X168540000Y-66580000D03*
%TD*%
D12*
%TO.P,DHT11-TEMP&HUMD1,1,Pin_1*%
%TO.N,+5V*%
X136500000Y-124920000D03*
D13*
%TO.P,DHT11-TEMP&HUMD1,2,Pin_2*%
%TO.N,GND*%
X136500000Y-127460000D03*
%TO.P,DHT11-TEMP&HUMD1,3,Pin_3*%
%TO.N,Net-(DHT11-TEMP&HUMD1-Pin_3)*%
X136500000Y-130000000D03*
%TD*%
D14*
%TO.P,J3,5,Shield*%
%TO.N,unconnected-(J3-Shield-Pad5)*%
X72500000Y-117600000D03*
X72500000Y-129000000D03*
%TD*%
D15*
%TO.P,M1,1,+*%
%TO.N,+5V*%
X146420000Y-98500000D03*
D16*
%TO.P,M1,2,-*%
%TO.N,Net-(D5-A)*%
X148960000Y-98500000D03*
%TO.P,M1,3*%
%TO.N,N/C*%
X151500000Y-98500000D03*
%TD*%
D17*
%TO.P,U1,1,PB0*%
%TO.N,Net-(D4-A)*%
X81937500Y-57362500D03*
D18*
%TO.P,U1,2,PB1*%
%TO.N,Net-(DIO3-A)*%
X81937500Y-59902500D03*
%TO.P,U1,3,PB2*%
%TO.N,Net-(U1-PB2)*%
X81937500Y-62442500D03*
%TO.P,U1,4,PB3*%
%TO.N,Net-(J2-MOSI)*%
X81937500Y-64982500D03*
%TO.P,U1,5,PB4*%
%TO.N,Net-(J2-MISO)*%
X81937500Y-67522500D03*
%TO.P,U1,6,PB5*%
%TO.N,Net-(J2-SCK)*%
X81937500Y-70062500D03*
%TO.P,U1,7,PB6*%
%TO.N,unconnected-(U1-PB6-Pad7)*%
X81937500Y-72602500D03*
%TO.P,U1,8,PB7*%
%TO.N,unconnected-(U1-PB7-Pad8)*%
X81937500Y-75142500D03*
%TO.P,U1,9,~{RESET}*%
%TO.N,Net-(U1-~{RESET})*%
X81937500Y-77682500D03*
%TO.P,U1,10,VCC*%
%TO.N,+5V*%
X81937500Y-80222500D03*
%TO.P,U1,11,GND*%
%TO.N,GND*%
X81937500Y-82762500D03*
%TO.P,U1,12,XTAL2*%
%TO.N,Net-(U1-XTAL2)*%
X81937500Y-85302500D03*
%TO.P,U1,13,XTAL1*%
%TO.N,Net-(U1-XTAL1)*%
X81937500Y-87842500D03*
%TO.P,U1,14,PD0*%
%TO.N,Net-(J1-Pin_2)*%
X81937500Y-90382500D03*
%TO.P,U1,15,PD1*%
%TO.N,Net-(J1-Pin_3)*%
X81937500Y-92922500D03*
%TO.P,U1,16,PD2*%
%TO.N,Net-(PIRSENSOR2-Pin_2)*%
X81937500Y-95462500D03*
%TO.P,U1,17,PD3*%
%TO.N,Net-(PIRSENSOR1-Pin_2)*%
X81937500Y-98002500D03*
%TO.P,U1,18,PD4*%
%TO.N,Net-(DHT11-TEMP&HUMD1-Pin_3)*%
X81937500Y-100542500D03*
%TO.P,U1,19,PD5*%
%TO.N,Net-(U1-PD5)*%
X81937500Y-103082500D03*
%TO.P,U1,20,PD6*%
%TO.N,Net-(AmbientTEMPSENSOR1-DQ)*%
X81937500Y-105622500D03*
%TO.P,U1,21,PD7*%
%TO.N,unconnected-(U1-PD7-Pad21)*%
X97177500Y-105622500D03*
%TO.P,U1,22,PC0*%
%TO.N,unconnected-(U1-PC0-Pad22)*%
X97177500Y-103082500D03*
%TO.P,U1,23,PC1*%
%TO.N,unconnected-(U1-PC1-Pad23)*%
X97177500Y-100542500D03*
%TO.P,U1,24,PC2*%
%TO.N,unconnected-(U1-PC2-Pad24)*%
X97177500Y-98002500D03*
%TO.P,U1,25,PC3*%
%TO.N,unconnected-(U1-PC3-Pad25)*%
X97177500Y-95462500D03*
%TO.P,U1,26,PC4*%
%TO.N,unconnected-(U1-PC4-Pad26)*%
X97177500Y-92922500D03*
%TO.P,U1,27,PC5*%
%TO.N,unconnected-(U1-PC5-Pad27)*%
X97177500Y-90382500D03*
%TO.P,U1,28,PC6*%
%TO.N,unconnected-(U1-PC6-Pad28)*%
X97177500Y-87842500D03*
%TO.P,U1,29,PC7*%
%TO.N,unconnected-(U1-PC7-Pad29)*%
X97177500Y-85302500D03*
%TO.P,U1,30,AVCC*%
%TO.N,+5V*%
X97177500Y-82762500D03*
%TO.P,U1,31,GND*%
%TO.N,GND*%
X97177500Y-80222500D03*
%TO.P,U1,32,AREF*%
%TO.N,unconnected-(U1-AREF-Pad32)*%
X97177500Y-77682500D03*
%TO.P,U1,33,PA7*%
%TO.N,unconnected-(U1-PA7-Pad33)*%
X97177500Y-75142500D03*
%TO.P,U1,34,PA6*%
%TO.N,unconnected-(U1-PA6-Pad34)*%
X97177500Y-72602500D03*
%TO.P,U1,35,PA5*%
%TO.N,unconnected-(U1-PA5-Pad35)*%
X97177500Y-70062500D03*
%TO.P,U1,36,PA4*%
%TO.N,unconnected-(U1-PA4-Pad36)*%
X97177500Y-67522500D03*
%TO.P,U1,37,PA3*%
%TO.N,unconnected-(U1-PA3-Pad37)*%
X97177500Y-64982500D03*
%TO.P,U1,38,PA2*%
%TO.N,unconnected-(U1-PA2-Pad38)*%
X97177500Y-62442500D03*
%TO.P,U1,39,PA1*%
%TO.N,unconnected-(U1-PA1-Pad39)*%
X97177500Y-59902500D03*
%TO.P,U1,40,PA0*%
%TO.N,unconnected-(U1-PA0-Pad40)*%
X97177500Y-57362500D03*
%TD*%
D19*
%TO.P,BZ1,1,+*%
%TO.N,+5V*%
X130500000Y-81000000D03*
D20*
%TO.P,BZ1,2,-*%
%TO.N,Net-(BZ1--)*%
X138100000Y-81000000D03*
%TD*%
D21*
%TO.P,U2,1,VI*%
%TO.N,Net-(D1-K)*%
X100000000Y-121000000D03*
D22*
%TO.P,U2,2,GND*%
%TO.N,GND*%
X102540000Y-121000000D03*
%TO.P,U2,3,VO*%
%TO.N,+5V*%
X105080000Y-121000000D03*
%TD*%
D15*
%TO.P,PIRSENSOR1,1,Pin_1*%
%TO.N,+5V*%
X68000000Y-57500000D03*
D16*
%TO.P,PIRSENSOR1,2,Pin_2*%
%TO.N,Net-(PIRSENSOR1-Pin_2)*%
X70540000Y-57500000D03*
%TO.P,PIRSENSOR1,3,Pin_3*%
%TO.N,GND*%
X73080000Y-57500000D03*
%TD*%
D23*
%TO.P,AmbientTEMPSENSOR1,1,GND*%
%TO.N,GND*%
X61500000Y-110500000D03*
D24*
%TO.P,AmbientTEMPSENSOR1,2,DQ*%
%TO.N,Net-(AmbientTEMPSENSOR1-DQ)*%
X62770000Y-110500000D03*
%TO.P,AmbientTEMPSENSOR1,3,V_{DD}*%
%TO.N,+5V*%
X64040000Y-110500000D03*
%TD*%
D10*
%TO.P,D1,1,K*%
%TO.N,Net-(D1-K)*%
X114840000Y-116500000D03*
D11*
%TO.P,D1,2,A*%
%TO.N,Net-(D1-A)*%
X125000000Y-116500000D03*
%TD*%
D25*
%TO.P,16MHz1,1,1*%
%TO.N,Net-(U1-XTAL1)*%
X105560000Y-43000000D03*
%TO.P,16MHz1,2,2*%
%TO.N,Net-(U1-XTAL2)*%
X110440000Y-43000000D03*
%TD*%
D15*
%TO.P,PIRSENSOR2,1,Pin_1*%
%TO.N,+5V*%
X67960000Y-43000000D03*
D16*
%TO.P,PIRSENSOR2,2,Pin_2*%
%TO.N,Net-(PIRSENSOR2-Pin_2)*%
X70500000Y-43000000D03*
%TO.P,PIRSENSOR2,3,Pin_3*%
%TO.N,Net-(PIRSENSOR2-Pin_3)*%
X73040000Y-43000000D03*
%TD*%
D10*
%TO.P,D3,1,K*%
%TO.N,+5V*%
X173340000Y-87500000D03*
D11*
%TO.P,D3,2,A*%
%TO.N,Net-(BZ1--)*%
X183500000Y-87500000D03*
%TD*%
D26*
%TO.N,Net-(DHT11-TEMP&HUMD1-Pin_3)*%
X130500000Y-124000000D03*
X122500000Y-107500000D03*
X119000000Y-103000000D03*
X112500000Y-105500000D03*
X112000000Y-97500000D03*
%TO.N,Net-(U1-~{RESET})*%
X92000000Y-81000000D03*
X117250000Y-71250000D03*
X131000000Y-63000000D03*
%TO.N,Net-(J2-SCK)*%
X100500000Y-74500000D03*
X109000000Y-64500000D03*
X118000000Y-66500000D03*
X120500000Y-60500000D03*
%TO.N,Net-(J2-MISO)*%
X58500000Y-56500000D03*
X48000000Y-54000000D03*
%TO.N,Net-(BZ1--)*%
X151500000Y-85500000D03*
%TO.N,Net-(J2-MOSI)*%
X103500000Y-66000000D03*
X100000000Y-67500000D03*
X93500000Y-67500000D03*
%TO.N,Net-(U1-PB2)*%
X109000000Y-92500000D03*
%TO.N,Net-(Q1-B)*%
X113000000Y-93000000D03*
X126726035Y-95773966D03*
X136239961Y-90500000D03*
X141500000Y-87000000D03*
%TO.N,Net-(DIO3-A)*%
X165500000Y-104500000D03*
X104500000Y-63000000D03*
X100000000Y-63000000D03*
X91749971Y-62249972D03*
%TO.N,Net-(J1-Pin_3)*%
X69672266Y-64500000D03*
%TO.N,Net-(J1-Pin_2)*%
X69000000Y-63500000D03*
%TO.N,Net-(PIRSENSOR1-Pin_2)*%
X75000000Y-64000000D03*
X70500000Y-78500000D03*
X75500000Y-89500000D03*
X88500000Y-101000000D03*
X107500000Y-100000000D03*
%TO.N,Net-(DHT11-TEMP&HUMD1-Pin_3)*%
X107500000Y-99000000D03*
%TO.N,GND*%
X141000000Y-116000000D03*
%TO.N,Net-(D4-A)*%
X131500000Y-48000000D03*
X97500000Y-45500000D03*
%TO.N,Net-(PIRSENSOR2-Pin_3)*%
X107500000Y-101000000D03*
X47250000Y-121750000D03*
%TO.N,Net-(D1-A)*%
X145500000Y-131000000D03*
%TO.N,Net-(D1-K)*%
X110000000Y-138500000D03*
X110750000Y-147250000D03*
%TO.N,GND*%
X108000000Y-132000000D03*
X114000000Y-97500000D03*
%TO.N,Net-(U1-PD5)*%
X156416051Y-133083949D03*
X103000000Y-113500000D03*
%TO.N,Net-(AmbientTEMPSENSOR1-DQ)*%
X110500000Y-108000000D03*
X98500000Y-114000000D03*
%TO.N,+5V*%
X107000000Y-95000000D03*
X64500000Y-64000000D03*
%TO.N,Net-(U1-XTAL2)*%
X62500000Y-66500000D03*
%TO.N,GND*%
X70000000Y-90000000D03*
X71000000Y-84000000D03*
%TO.N,+5V*%
X78000000Y-93000000D03*
%TD*%
D27*
%TO.N,Net-(DHT11-TEMP&HUMD1-Pin_3)*%
X130500000Y-124000000D02*
X136500000Y-130000000D01*
X122500000Y-106500000D02*
X122500000Y-107500000D01*
X119000000Y-103000000D02*
X122500000Y-106500000D01*
X112500000Y-98000000D02*
X112500000Y-105500000D01*
X112000000Y-97500000D02*
X112500000Y-98000000D01*
%TO.N,Net-(U1-~{RESET})*%
X88182500Y-77682500D02*
X81937500Y-77682500D01*
X91500000Y-81000000D02*
X88182500Y-77682500D01*
X92000000Y-81000000D02*
X91500000Y-81000000D01*
X117250000Y-71250000D02*
X117000000Y-71500000D01*
X125500000Y-63000000D02*
X117250000Y-71250000D01*
X131000000Y-63000000D02*
X125500000Y-63000000D01*
%TO.N,Net-(J2-SCK)*%
X85916500Y-74041500D02*
X81937500Y-70062500D01*
X100041500Y-74041500D02*
X85916500Y-74041500D01*
X100500000Y-74500000D02*
X100041500Y-74041500D01*
X111000000Y-66500000D02*
X109000000Y-64500000D01*
X118000000Y-66500000D02*
X111000000Y-66500000D01*
X162460000Y-60500000D02*
X120500000Y-60500000D01*
X166000000Y-64040000D02*
X162460000Y-60500000D01*
%TO.N,Net-(J2-MISO)*%
X56000000Y-54000000D02*
X58500000Y-56500000D01*
X48000000Y-54000000D02*
X56000000Y-54000000D01*
%TO.N,Net-(BZ1--)*%
X154901000Y-88901000D02*
X151500000Y-85500000D01*
X182099000Y-88901000D02*
X154901000Y-88901000D01*
X183500000Y-87500000D02*
X182099000Y-88901000D01*
%TO.N,+5V*%
X173340000Y-64772900D02*
X173340000Y-87500000D01*
X170067100Y-61500000D02*
X173340000Y-64772900D01*
X168540000Y-61500000D02*
X170067100Y-61500000D01*
%TO.N,Net-(J2-MOSI)*%
X171960000Y-64040000D02*
X168540000Y-64040000D01*
X172000000Y-64000000D02*
X171960000Y-64040000D01*
X163000000Y-72500000D02*
X163500000Y-72000000D01*
X172000000Y-72000000D02*
X172000000Y-64000000D01*
X152899000Y-62399000D02*
X163000000Y-72500000D01*
X104251057Y-62399000D02*
X152899000Y-62399000D01*
X163500000Y-72000000D02*
X172000000Y-72000000D01*
X103500000Y-63150057D02*
X104251057Y-62399000D01*
X103500000Y-66000000D02*
X103500000Y-63150057D01*
X98921500Y-66421500D02*
X100000000Y-67500000D01*
X94578500Y-66421500D02*
X98921500Y-66421500D01*
X93500000Y-67500000D02*
X94578500Y-66421500D01*
%TO.N,Net-(U1-XTAL2)*%
X81642950Y-81500000D02*
X83038500Y-81500000D01*
X78401000Y-84741950D02*
X81642950Y-81500000D01*
X78401000Y-86201050D02*
X78401000Y-84741950D01*
X81481450Y-89281500D02*
X78401000Y-86201050D01*
X82393550Y-89281500D02*
X81481450Y-89281500D01*
X83038500Y-89926450D02*
X82393550Y-89281500D01*
X83038500Y-93378550D02*
X83038500Y-89926450D01*
X81481450Y-94023500D02*
X82393550Y-94023500D01*
X81101950Y-94403000D02*
X81481450Y-94023500D01*
X82393550Y-94023500D02*
X83038500Y-93378550D01*
X77418857Y-94403000D02*
X81101950Y-94403000D01*
X72924028Y-89908171D02*
X77418857Y-94403000D01*
X72924028Y-82341071D02*
X72924028Y-89908171D01*
X60696000Y-70113043D02*
X72924028Y-82341071D01*
X60696000Y-47214900D02*
X60696000Y-70113043D01*
X66627900Y-41283000D02*
X60696000Y-47214900D01*
X92417200Y-41283000D02*
X66627900Y-41283000D01*
X102287100Y-51152900D02*
X92417200Y-41283000D01*
X103347760Y-51152900D02*
X102287100Y-51152900D01*
X110440000Y-44060660D02*
X103347760Y-51152900D01*
X110440000Y-43000000D02*
X110440000Y-44060660D01*
X83038500Y-81500000D02*
X83038500Y-84201500D01*
%TO.N,Net-(U1-PB2)*%
X79779000Y-64601000D02*
X81937500Y-62442500D01*
X74751057Y-64601000D02*
X79779000Y-64601000D01*
X68966057Y-58816000D02*
X74751057Y-64601000D01*
X66834000Y-58816000D02*
X68966057Y-58816000D01*
X66794000Y-58776000D02*
X66834000Y-58816000D01*
X66794000Y-41684000D02*
X66794000Y-58776000D01*
X92251100Y-41684000D02*
X66794000Y-41684000D01*
X101901000Y-51333900D02*
X92251100Y-41684000D01*
X101901000Y-85401000D02*
X101901000Y-51333900D01*
X109000000Y-92500000D02*
X101901000Y-85401000D01*
%TO.N,Net-(Q1-B)*%
X115773966Y-95773966D02*
X126726035Y-95773966D01*
X113000000Y-93000000D02*
X115773966Y-95773966D01*
X138000000Y-90500000D02*
X136239961Y-90500000D01*
X141500000Y-87000000D02*
X138000000Y-90500000D01*
%TO.N,Net-(DIO3-A)*%
X154000000Y-104000000D02*
X154500000Y-103500000D01*
X149500000Y-105500000D02*
X152500000Y-105500000D01*
X141500000Y-105500000D02*
X149500000Y-105500000D01*
X154500000Y-103500000D02*
X154500000Y-98000000D01*
X159000000Y-98000000D02*
X165500000Y-104500000D01*
X152500000Y-105500000D02*
X154000000Y-104000000D01*
X135000000Y-93500000D02*
X135000000Y-99000000D01*
X154500000Y-98000000D02*
X159000000Y-98000000D01*
X104500000Y-63000000D02*
X135000000Y-93500000D01*
X135000000Y-99000000D02*
X141500000Y-105500000D01*
X99118500Y-63881500D02*
X100000000Y-63000000D01*
X93381499Y-63881500D02*
X99118500Y-63881500D01*
X91749971Y-62249972D02*
X93381499Y-63881500D01*
%TO.N,Net-(J1-Pin_3)*%
X70000000Y-64500000D02*
X69672266Y-64500000D01*
X72067100Y-64500000D02*
X70000000Y-64500000D01*
X72901000Y-63666100D02*
X72067100Y-64500000D01*
X72466100Y-62899000D02*
X72901000Y-63333900D01*
X73325028Y-82174971D02*
X61097000Y-69946943D01*
X64116857Y-62899000D02*
X72466100Y-62899000D01*
X72901000Y-63333900D02*
X72901000Y-63666100D01*
X61097000Y-65918857D02*
X64116857Y-62899000D01*
X61097000Y-69946943D02*
X61097000Y-65918857D01*
X73325028Y-89742071D02*
X73325028Y-82174971D01*
X77584957Y-94002000D02*
X73325028Y-89742071D01*
X80858000Y-94002000D02*
X77584957Y-94002000D01*
X81937500Y-92922500D02*
X80858000Y-94002000D01*
%TO.N,Net-(J1-Pin_2)*%
X78719000Y-93601000D02*
X81937500Y-90382500D01*
X77751057Y-93601000D02*
X78719000Y-93601000D01*
X77399000Y-93248943D02*
X77751057Y-93601000D01*
X77399000Y-84549057D02*
X77399000Y-93248943D01*
X61498000Y-68648057D02*
X77399000Y-84549057D01*
X61498000Y-66084957D02*
X61498000Y-68648057D01*
X64183957Y-63399000D02*
X61498000Y-66084957D01*
X72399000Y-63399000D02*
X64183957Y-63399000D01*
X72500000Y-63500000D02*
X72399000Y-63399000D01*
X69000000Y-63500000D02*
X72500000Y-63500000D01*
%TO.N,Net-(PIRSENSOR1-Pin_2)*%
X70540000Y-59040000D02*
X70540000Y-57500000D01*
X75000000Y-63500000D02*
X70540000Y-59040000D01*
X75000000Y-64000000D02*
X75000000Y-63500000D01*
X75500000Y-83500000D02*
X70500000Y-78500000D01*
X75500000Y-89500000D02*
X75500000Y-83500000D01*
X89143500Y-101643500D02*
X88500000Y-101000000D01*
X105856500Y-101643500D02*
X89143500Y-101643500D01*
X107500000Y-100000000D02*
X105856500Y-101643500D01*
%TO.N,Net-(DHT11-TEMP&HUMD1-Pin_3)*%
X107058500Y-99441500D02*
X83038500Y-99441500D01*
X107500000Y-99000000D02*
X107058500Y-99441500D01*
X83038500Y-99441500D02*
X81937500Y-100542500D01*
%TO.N,GND*%
X113439000Y-108061000D02*
X114000000Y-107500000D01*
X115925160Y-117901000D02*
X113754840Y-117901000D01*
X126326160Y-107500000D02*
X115925160Y-117901000D01*
X113439000Y-117585160D02*
X113439000Y-108061000D01*
X141000000Y-116000000D02*
X132500000Y-107500000D01*
X132500000Y-107500000D02*
X126326160Y-107500000D01*
X113754840Y-117901000D02*
X113439000Y-117585160D01*
X114000000Y-114853840D02*
X114000000Y-97500000D01*
X113439000Y-115414840D02*
X114000000Y-114853840D01*
X113439000Y-117585160D02*
X113439000Y-115414840D01*
X116241000Y-117585160D02*
X115925160Y-117901000D01*
X116241000Y-98323957D02*
X116241000Y-117585160D01*
X114415043Y-96498000D02*
X116241000Y-98323957D01*
X107648057Y-96498000D02*
X114415043Y-96498000D01*
X97553557Y-86403500D02*
X107648057Y-96498000D01*
X90996500Y-86403500D02*
X97553557Y-86403500D01*
X81481450Y-86403500D02*
X80836500Y-85758550D01*
X90996500Y-86403500D02*
X81481450Y-86403500D01*
X80836500Y-85758550D02*
X80836500Y-83863500D01*
X80836500Y-83863500D02*
X81937500Y-82762500D01*
X97177500Y-80222500D02*
X90996500Y-86403500D01*
%TO.N,Net-(D4-A)*%
X115000000Y-38000000D02*
X121500000Y-38000000D01*
X105000000Y-38000000D02*
X115000000Y-38000000D01*
X121500000Y-38000000D02*
X131500000Y-48000000D01*
X97500000Y-45500000D02*
X105000000Y-38000000D01*
%TO.N,Net-(PIRSENSOR2-Pin_3)*%
X97500000Y-111000000D02*
X107500000Y-101000000D01*
X74000000Y-111000000D02*
X78500000Y-111000000D01*
X68500000Y-116500000D02*
X71000000Y-114000000D01*
X71000000Y-114000000D02*
X74000000Y-111000000D01*
X78500000Y-111000000D02*
X97500000Y-111000000D01*
X52500000Y-116500000D02*
X64000000Y-116500000D01*
X64000000Y-116500000D02*
X68500000Y-116500000D01*
X47250000Y-121750000D02*
X52500000Y-116500000D01*
%TO.N,Net-(D1-A)*%
X126500000Y-118000000D02*
X125000000Y-116500000D01*
X131500000Y-118000000D02*
X126500000Y-118000000D01*
X132500000Y-119000000D02*
X131500000Y-118000000D01*
X144500000Y-119000000D02*
X132500000Y-119000000D01*
X145500000Y-120000000D02*
X144500000Y-119000000D01*
X145500000Y-131000000D02*
X145500000Y-120000000D01*
%TO.N,Net-(D1-K)*%
X110000000Y-146500000D02*
X110000000Y-138500000D01*
X110750000Y-147250000D02*
X110000000Y-146500000D01*
%TO.N,GND*%
X102540000Y-126540000D02*
X108000000Y-132000000D01*
X102540000Y-121000000D02*
X102540000Y-126540000D01*
%TO.N,Net-(D1-K)*%
X114248943Y-96899000D02*
X114840000Y-97490057D01*
X113751057Y-96899000D02*
X114248943Y-96899000D01*
X113399000Y-97251057D02*
X113751057Y-96899000D01*
X113399000Y-107533900D02*
X113399000Y-97251057D01*
X114840000Y-97490057D02*
X114840000Y-116500000D01*
X108434900Y-112498000D02*
X113399000Y-107533900D01*
X102584957Y-112498000D02*
X108434900Y-112498000D01*
X100000000Y-115082957D02*
X102584957Y-112498000D01*
X100000000Y-121000000D02*
X100000000Y-115082957D01*
%TO.N,GND*%
X102399000Y-113251057D02*
X102399000Y-120859000D01*
X102751057Y-112899000D02*
X102399000Y-113251057D01*
X114000000Y-107500000D02*
X108601000Y-112899000D01*
X114000000Y-97500000D02*
X114000000Y-107500000D01*
X108601000Y-112899000D02*
X102751057Y-112899000D01*
X102399000Y-120859000D02*
X102540000Y-121000000D01*
%TO.N,Net-(U1-PD5)*%
X152000000Y-137500000D02*
X156416051Y-133083949D01*
X135500000Y-137500000D02*
X152000000Y-137500000D01*
X130000000Y-132000000D02*
X135500000Y-137500000D01*
X130000000Y-130000000D02*
X130000000Y-132000000D01*
X119500000Y-130000000D02*
X130000000Y-130000000D01*
X103000000Y-113500000D02*
X119500000Y-130000000D01*
%TO.N,Net-(AmbientTEMPSENSOR1-DQ)*%
X104500000Y-108000000D02*
X110500000Y-108000000D01*
X98500000Y-114000000D02*
X104500000Y-108000000D01*
%TO.N,+5V*%
X107000000Y-92585000D02*
X107000000Y-95000000D01*
X97177500Y-82762500D02*
X107000000Y-92585000D01*
X101500000Y-78440000D02*
X97177500Y-82762500D01*
X101500000Y-51500000D02*
X101500000Y-78440000D01*
X76460000Y-51500000D02*
X101500000Y-51500000D01*
X67960000Y-43000000D02*
X76460000Y-51500000D01*
X68000000Y-57500000D02*
X68000000Y-43040000D01*
X68000000Y-43040000D02*
X67960000Y-43000000D01*
X75372557Y-80222500D02*
X81937500Y-80222500D01*
X61899000Y-66748943D02*
X75372557Y-80222500D01*
X61899000Y-66251057D02*
X61899000Y-66748943D01*
X64150057Y-64000000D02*
X61899000Y-66251057D01*
X64500000Y-64000000D02*
X64150057Y-64000000D01*
%TO.N,Net-(U1-XTAL2)*%
X83038500Y-84201500D02*
X81937500Y-85302500D01*
X82393550Y-79121500D02*
X83038500Y-79766450D01*
X75121500Y-79121500D02*
X82393550Y-79121500D01*
X62500000Y-66500000D02*
X75121500Y-79121500D01*
X83038500Y-79766450D02*
X83038500Y-81500000D01*
%TO.N,GND*%
X71000000Y-89000000D02*
X70000000Y-90000000D01*
X71000000Y-84000000D02*
X71000000Y-89000000D01*
%TO.N,+5V*%
X78000000Y-84160000D02*
X81937500Y-80222500D01*
X78000000Y-93000000D02*
X78000000Y-84160000D01*
%TD*%
%TA.AperFunction,Conductor*%
%TO.N,GND*%
G36*
X83443203Y-72417884D02*
G01*
X83449679Y-72423914D01*
X85547784Y-74522020D01*
X85547786Y-74522021D01*
X85547790Y-74522024D01*
X85684709Y-74601073D01*
X85684716Y-74601077D01*
X85837443Y-74642001D01*
X85837445Y-74642001D01*
X86003154Y-74642001D01*
X86003170Y-74642000D01*
X95802024Y-74642000D01*
X95869063Y-74661685D01*
X95914818Y-74714489D01*
X95924762Y-74783647D01*
X95919955Y-74804317D01*
X95909024Y-74837957D01*
X95909023Y-74837964D01*
X95877000Y-75040148D01*
X95877000Y-75244851D01*
X95909022Y-75447034D01*
X95972281Y-75641723D01*
X96065215Y-75824113D01*
X96185528Y-75989713D01*
X96330286Y-76134471D01*
X96485249Y-76247056D01*
X96495890Y-76254787D01*
X96587340Y-76301383D01*
X96588580Y-76302015D01*
X96639376Y-76349990D01*
X96656171Y-76417811D01*
X96633634Y-76483946D01*
X96588580Y-76522985D01*
X96495886Y-76570215D01*
X96330286Y-76690528D01*
X96185528Y-76835286D01*
X96065215Y-77000886D01*
X95972281Y-77183276D01*
X95909022Y-77377965D01*
X95877000Y-77580148D01*
X95877000Y-77784851D01*
X95909022Y-77987034D01*
X95972281Y-78181723D01*
X96065215Y-78364113D01*
X96185528Y-78529713D01*
X96330286Y-78674471D01*
X96495885Y-78794784D01*
X96495887Y-78794785D01*
X96495890Y-78794787D01*
X96589130Y-78842295D01*
X96639926Y-78890270D01*
X96656721Y-78958091D01*
X96634184Y-79024225D01*
X96589130Y-79063265D01*
X96496144Y-79110643D01*
X96451577Y-79143023D01*
X96451577Y-79143024D01*
X97131054Y-79822500D01*
X97124839Y-79822500D01*
X97023106Y-79849759D01*
X96931894Y-79902420D01*
X96857420Y-79976894D01*
X96804759Y-80068106D01*
X96777500Y-80169839D01*
X96777500Y-80176053D01*
X96098024Y-79496577D01*
X96098023Y-79496577D01*
X96065643Y-79541144D01*
X95972744Y-79723468D01*
X95909509Y-79918082D01*
X95877500Y-80120182D01*
X95877500Y-80324817D01*
X95909509Y-80526917D01*
X95972744Y-80721531D01*
X96065641Y-80903850D01*
X96065647Y-80903859D01*
X96098023Y-80948421D01*
X96098024Y-80948422D01*
X96777500Y-80268946D01*
X96777500Y-80275161D01*
X96804759Y-80376894D01*
X96857420Y-80468106D01*
X96931894Y-80542580D01*
X97023106Y-80595241D01*
X97124839Y-80622500D01*
X97131053Y-80622500D01*
X96451576Y-81301974D01*
X96496152Y-81334361D01*
X96589128Y-81381734D01*
X96639925Y-81429708D01*
X96656720Y-81497529D01*
X96634183Y-81563664D01*
X96589130Y-81602703D01*
X96495888Y-81650213D01*
X96330286Y-81770528D01*
X96185528Y-81915286D01*
X96065215Y-82080886D01*
X95972281Y-82263276D01*
X95909022Y-82457965D01*
X95877000Y-82660148D01*
X95877000Y-82864851D01*
X95909022Y-83067034D01*
X95972281Y-83261723D01*
X96018447Y-83352327D01*
X96065085Y-83443859D01*
X96065215Y-83444113D01*
X96185528Y-83609713D01*
X96330286Y-83754471D01*
X96450726Y-83841974D01*
X96495890Y-83874787D01*
X96587340Y-83921383D01*
X96588580Y-83922015D01*
X96639376Y-83969990D01*
X96656171Y-84037811D01*
X96633634Y-84103946D01*
X96588580Y-84142985D01*
X96495886Y-84190215D01*
X96330286Y-84310528D01*
X96330282Y-84310532D01*
X96185534Y-84455281D01*
X96185531Y-84455284D01*
X96065215Y-84620886D01*
X95972281Y-84803276D01*
X95909022Y-84997965D01*
X95877000Y-85200148D01*
X95877000Y-85404851D01*
X95909022Y-85607034D01*
X95972281Y-85801723D01*
X96036191Y-85927153D01*
X96055571Y-85965187D01*
X96065215Y-85984113D01*
X96185528Y-86149713D01*
X96330286Y-86294471D01*
X96485249Y-86407056D01*
X96495890Y-86414787D01*
X96587340Y-86461383D01*
X96588580Y-86462015D01*
X96639376Y-86509990D01*
X96656171Y-86577811D01*
X96633634Y-86643946D01*
X96588580Y-86682985D01*
X96495886Y-86730215D01*
X96330286Y-86850528D01*
X96185528Y-86995286D01*
X96065215Y-87160886D01*
X95972281Y-87343276D01*
X95909022Y-87537965D01*
X95877000Y-87740148D01*
X95877000Y-87944851D01*
X95909022Y-88147034D01*
X95972281Y-88341723D01*
X96065215Y-88524113D01*
X96185528Y-88689713D01*
X96330286Y-88834471D01*
X96448331Y-88920234D01*
X96495890Y-88954787D01*
X96582023Y-88998674D01*
X96588580Y-89002015D01*
X96639376Y-89049990D01*
X96656171Y-89117811D01*
X96633634Y-89183946D01*
X96588580Y-89222985D01*
X96495886Y-89270215D01*
X96330286Y-89390528D01*
X96185528Y-89535286D01*
X96065215Y-89700886D01*
X95972281Y-89883276D01*
X95909022Y-90077965D01*
X95877000Y-90280148D01*
X95877000Y-90484851D01*
X95909022Y-90687034D01*
X95972281Y-90881723D01*
X96036191Y-91007153D01*
X96062903Y-91059577D01*
X96065215Y-91064113D01*
X96185528Y-91229713D01*
X96330286Y-91374471D01*
X96485249Y-91487056D01*
X96495890Y-91494787D01*
X96587340Y-91541383D01*
X96588580Y-91542015D01*
X96639376Y-91589990D01*
X96656171Y-91657811D01*
X96633634Y-91723946D01*
X96588580Y-91762985D01*
X96495886Y-91810215D01*
X96330286Y-91930528D01*
X96185528Y-92075286D01*
X96065215Y-92240886D01*
X95972281Y-92423276D01*
X95909022Y-92617965D01*
X95877000Y-92820148D01*
X95877000Y-93024851D01*
X95909022Y-93227034D01*
X95972281Y-93421723D01*
X96017410Y-93510292D01*
X96052448Y-93579058D01*
X96065215Y-93604113D01*
X96185528Y-93769713D01*
X96330286Y-93914471D01*
X96485249Y-94027056D01*
X96495890Y-94034787D01*
X96587340Y-94081383D01*
X96588580Y-94082015D01*
X96639376Y-94129990D01*
X96656171Y-94197811D01*
X96633634Y-94263946D01*
X96588580Y-94302985D01*
X96495886Y-94350215D01*
X96330286Y-94470528D01*
X96185528Y-94615286D01*
X96065215Y-94780886D01*
X95972281Y-94963276D01*
X95909022Y-95157965D01*
X95877000Y-95360148D01*
X95877000Y-95564851D01*
X95909022Y-95767034D01*
X95972281Y-95961723D01*
X96036191Y-96087153D01*
X96064485Y-96142682D01*
X96065215Y-96144113D01*
X96185528Y-96309713D01*
X96330286Y-96454471D01*
X96485249Y-96567056D01*
X96495890Y-96574787D01*
X96587340Y-96621383D01*
X96588580Y-96622015D01*
X96639376Y-96669990D01*
X96656171Y-96737811D01*
X96633634Y-96803946D01*
X96588580Y-96842985D01*
X96495886Y-96890215D01*
X96330286Y-97010528D01*
X96185528Y-97155286D01*
X96065215Y-97320886D01*
X95972281Y-97503276D01*
X95909022Y-97697965D01*
X95877000Y-97900148D01*
X95877000Y-98104851D01*
X95909022Y-98307034D01*
X95972281Y-98501723D01*
X96053288Y-98660705D01*
X96066184Y-98729374D01*
X96039908Y-98794114D01*
X95982802Y-98834372D01*
X95942803Y-98841000D01*
X83172197Y-98841000D01*
X83105158Y-98821315D01*
X83059403Y-98768511D01*
X83049459Y-98699353D01*
X83061712Y-98660705D01*
X83086679Y-98611706D01*
X83142720Y-98501719D01*
X83205977Y-98307034D01*
X83238000Y-98104852D01*
X83238000Y-97900148D01*
X83211605Y-97733497D01*
X83205977Y-97697965D01*
X83167356Y-97579103D01*
X83142720Y-97503281D01*
X83142718Y-97503278D01*
X83142718Y-97503276D01*
X83108676Y-97436466D01*
X83049787Y-97320890D01*
X83010273Y-97266503D01*
X82929471Y-97155286D01*
X82784713Y-97010528D01*
X82619114Y-96890215D01*
X82595553Y-96878210D01*
X82526417Y-96842983D01*
X82475623Y-96795011D01*
X82458828Y-96727190D01*
X82481365Y-96661055D01*
X82526417Y-96622016D01*
X82619110Y-96574787D01*
X82640270Y-96559413D01*
X82784713Y-96454471D01*
X82784715Y-96454468D01*
X82784719Y-96454466D01*
X82929466Y-96309719D01*
X82929468Y-96309715D01*
X82929471Y-96309713D01*
X83043218Y-96153151D01*
X83049787Y-96144110D01*
X83142720Y-95961719D01*
X83205977Y-95767034D01*
X83238000Y-95564852D01*
X83238000Y-95360148D01*
X83205977Y-95157966D01*
X83205975Y-95157961D01*
X83155788Y-95003500D01*
X83142720Y-94963281D01*
X83142718Y-94963278D01*
X83142718Y-94963276D01*
X83102080Y-94883520D01*
X83049787Y-94780890D01*
X83039331Y-94766498D01*
X82929471Y-94615286D01*
X82877916Y-94563731D01*
X82873582Y-94555794D01*
X82866342Y-94550376D01*
X82857099Y-94525608D01*
X82844431Y-94502408D01*
X82845076Y-94493388D01*
X82841914Y-94484915D01*
X82847529Y-94459081D01*
X82849415Y-94432716D01*
X82855226Y-94423671D01*
X82856755Y-94416640D01*
X82877859Y-94388449D01*
X82877902Y-94388383D01*
X82881085Y-94385198D01*
X82884272Y-94382012D01*
X82884275Y-94382010D01*
X82884279Y-94382005D01*
X83397006Y-93869278D01*
X83397011Y-93869274D01*
X83407214Y-93859070D01*
X83407216Y-93859070D01*
X83519020Y-93747266D01*
X83584827Y-93633284D01*
X83598077Y-93610335D01*
X83639001Y-93457607D01*
X83639001Y-93299493D01*
X83639001Y-93291898D01*
X83639000Y-93291880D01*
X83639000Y-90015509D01*
X83639001Y-90015496D01*
X83639001Y-89847395D01*
X83639001Y-89847393D01*
X83598077Y-89694665D01*
X83569139Y-89644545D01*
X83519020Y-89557734D01*
X83407216Y-89445930D01*
X83407215Y-89445929D01*
X83402885Y-89441599D01*
X83402874Y-89441589D01*
X82881140Y-88919855D01*
X82877902Y-88916617D01*
X82868365Y-88899144D01*
X82865647Y-88900957D01*
X82865645Y-88900954D01*
X82868363Y-88899141D01*
X82860500Y-88884736D01*
X82844431Y-88855307D01*
X82844431Y-88855296D01*
X82844427Y-88855288D01*
X82846844Y-88821556D01*
X82849415Y-88785615D01*
X82849421Y-88785605D01*
X82849422Y-88785597D01*
X82849454Y-88785553D01*
X82877915Y-88741268D01*
X82929466Y-88689719D01*
X82929468Y-88689715D01*
X82929471Y-88689713D01*
X82982232Y-88617090D01*
X83049787Y-88524110D01*
X83142720Y-88341719D01*
X83205977Y-88147034D01*
X83238000Y-87944852D01*
X83238000Y-87740148D01*
X83233128Y-87709390D01*
X83205977Y-87537965D01*
X83154384Y-87379179D01*
X83142720Y-87343281D01*
X83142718Y-87343277D01*
X83142718Y-87343276D01*
X83086778Y-87233489D01*
X83049787Y-87160890D01*
X83023867Y-87125214D01*
X82929471Y-86995286D01*
X82784713Y-86850528D01*
X82619114Y-86730215D01*
X82612506Y-86726848D01*
X82526417Y-86682983D01*
X82475623Y-86635011D01*
X82458828Y-86567190D01*
X82481365Y-86501055D01*
X82526417Y-86462016D01*
X82619110Y-86414787D01*
X82669453Y-86378211D01*
X82784713Y-86294471D01*
X82784715Y-86294468D01*
X82784719Y-86294466D01*
X82929466Y-86149719D01*
X82929468Y-86149715D01*
X82929471Y-86149713D01*
X82996620Y-86057289D01*
X83049787Y-85984110D01*
X83142720Y-85801719D01*
X83205977Y-85607034D01*
X83238000Y-85404852D01*
X83238000Y-85200148D01*
X83205977Y-84997966D01*
X83201325Y-84983651D01*
X83200891Y-84968440D01*
X83195574Y-84954183D01*
X83199914Y-84934228D01*
X83199332Y-84913812D01*
X83207420Y-84899725D01*
X83210426Y-84885910D01*
X83231574Y-84857659D01*
X83397006Y-84692228D01*
X83397011Y-84692224D01*
X83407214Y-84682020D01*
X83407216Y-84682020D01*
X83519020Y-84570216D01*
X83585377Y-84455281D01*
X83598077Y-84433285D01*
X83639000Y-84280557D01*
X83639000Y-84122443D01*
X83639000Y-81420943D01*
X83639000Y-81420942D01*
X83639000Y-79855509D01*
X83639001Y-79855496D01*
X83639001Y-79687395D01*
X83639001Y-79687393D01*
X83598077Y-79534665D01*
X83569139Y-79484545D01*
X83519020Y-79397734D01*
X83407216Y-79285930D01*
X83407215Y-79285929D01*
X83402885Y-79281599D01*
X83402874Y-79281589D01*
X82881140Y-78759855D01*
X82877902Y-78756617D01*
X82868365Y-78739144D01*
X82865647Y-78740957D01*
X82865645Y-78740954D01*
X82868363Y-78739141D01*
X82860500Y-78724736D01*
X82844431Y-78695307D01*
X82844431Y-78695296D01*
X82844427Y-78695288D01*
X82846844Y-78661556D01*
X82849415Y-78625615D01*
X82849421Y-78625605D01*
X82849422Y-78625597D01*
X82849454Y-78625553D01*
X82877915Y-78581268D01*
X82929466Y-78529719D01*
X82929468Y-78529715D01*
X82929471Y-78529713D01*
X83049784Y-78364114D01*
X83049785Y-78364113D01*
X83049787Y-78364110D01*
X83056617Y-78350704D01*
X83104591Y-78299909D01*
X83167102Y-78283000D01*
X87882403Y-78283000D01*
X87949442Y-78302685D01*
X87970084Y-78319319D01*
X91015139Y-81364374D01*
X91015149Y-81364385D01*
X91019479Y-81368715D01*
X91019480Y-81368716D01*
X91131284Y-81480520D01*
X91131286Y-81480521D01*
X91131290Y-81480524D01*
X91203395Y-81522153D01*
X91268216Y-81559577D01*
X91380019Y-81589534D01*
X91420942Y-81600500D01*
X91420943Y-81600500D01*
X91433122Y-81600500D01*
X91445730Y-81603149D01*
X91465619Y-81613826D01*
X91487273Y-81620185D01*
X91489125Y-81621398D01*
X91620814Y-81709390D01*
X91620827Y-81709397D01*
X91766498Y-81769735D01*
X91766503Y-81769737D01*
X91921153Y-81800499D01*
X91921156Y-81800500D01*
X91921158Y-81800500D01*
X92078844Y-81800500D01*
X92078845Y-81800499D01*
X92233497Y-81769737D01*
X92379179Y-81709394D01*
X92510289Y-81621789D01*
X92621789Y-81510289D01*
X92709394Y-81379179D01*
X92769737Y-81233497D01*
X92800500Y-81078842D01*
X92800500Y-80921158D01*
X92800500Y-80921155D01*
X92800499Y-80921153D01*
X92792691Y-80881902D01*
X92769737Y-80766503D01*
X92764202Y-80753141D01*
X92709397Y-80620827D01*
X92709390Y-80620814D01*
X92621789Y-80489711D01*
X92621786Y-80489707D01*
X92510292Y-80378213D01*
X92510288Y-80378210D01*
X92379185Y-80290609D01*
X92379172Y-80290602D01*
X92233502Y-80230264D01*
X92233489Y-80230261D01*
X92078845Y-80199500D01*
X92078842Y-80199500D01*
X91921158Y-80199500D01*
X91921155Y-80199500D01*
X91766511Y-80230260D01*
X91766502Y-80230263D01*
X91710814Y-80253329D01*
X91641345Y-80260796D01*
X91578866Y-80229520D01*
X91575683Y-80226448D01*
X88670090Y-77320855D01*
X88670088Y-77320852D01*
X88551217Y-77201981D01*
X88551216Y-77201980D01*
X88464404Y-77151860D01*
X88464404Y-77151859D01*
X88464400Y-77151858D01*
X88414285Y-77122923D01*
X88261557Y-77081999D01*
X88103443Y-77081999D01*
X88095847Y-77081999D01*
X88095831Y-77082000D01*
X83167102Y-77082000D01*
X83100063Y-77062315D01*
X83056617Y-77014295D01*
X83049784Y-77000885D01*
X82929471Y-76835286D01*
X82784713Y-76690528D01*
X82619114Y-76570215D01*
X82612506Y-76566848D01*
X82526417Y-76522983D01*
X82475623Y-76475011D01*
X82458828Y-76407190D01*
X82481365Y-76341055D01*
X82526417Y-76302016D01*
X82619110Y-76254787D01*
X82640270Y-76239413D01*
X82784713Y-76134471D01*
X82784715Y-76134468D01*
X82784719Y-76134466D01*
X82929466Y-75989719D01*
X82929468Y-75989715D01*
X82929471Y-75989713D01*
X82982232Y-75917090D01*
X83049787Y-75824110D01*
X83142720Y-75641719D01*
X83205977Y-75447034D01*
X83238000Y-75244852D01*
X83238000Y-75040148D01*
X83212505Y-74879179D01*
X83205977Y-74837965D01*
X83148700Y-74661685D01*
X83142720Y-74643281D01*
X83142718Y-74643278D01*
X83142718Y-74643276D01*
X83080933Y-74522018D01*
X83049787Y-74460890D01*
X83042056Y-74450249D01*
X82929471Y-74295286D01*
X82784713Y-74150528D01*
X82619114Y-74030215D01*
X82612506Y-74026848D01*
X82526417Y-73982983D01*
X82475623Y-73935011D01*
X82458828Y-73867190D01*
X82481365Y-73801055D01*
X82526417Y-73762016D01*
X82619110Y-73714787D01*
X82676923Y-73672784D01*
X82784713Y-73594471D01*
X82784715Y-73594468D01*
X82784719Y-73594466D01*
X82929466Y-73449719D01*
X82929468Y-73449715D01*
X82929471Y-73449713D01*
X83038712Y-73299353D01*
X83049787Y-73284110D01*
X83142720Y-73101719D01*
X83205977Y-72907034D01*
X83238000Y-72704852D01*
X83238000Y-72511597D01*
X83257685Y-72444558D01*
X83310489Y-72398803D01*
X83379647Y-72388859D01*
X83443203Y-72417884D01*
G37*
%TD.AperFunction*%
%TA.AperFunction,Conductor*%
G36*
X81537500Y-82815161D02*
G01*
X81564759Y-82916894D01*
X81617420Y-83008106D01*
X81691894Y-83082580D01*
X81783106Y-83135241D01*
X81884839Y-83162500D01*
X81891052Y-83162500D01*
X81211576Y-83841974D01*
X81256152Y-83874361D01*
X81349128Y-83921734D01*
X81399925Y-83969708D01*
X81416720Y-84037529D01*
X81394183Y-84103664D01*
X81349130Y-84142703D01*
X81255888Y-84190213D01*
X81090286Y-84310528D01*
X81090282Y-84310532D01*
X80945534Y-84455281D01*
X80945531Y-84455284D01*
X80825215Y-84620886D01*
X80732281Y-84803276D01*
X80669022Y-84997965D01*
X80637000Y-85200148D01*
X80637000Y-85404851D01*
X80669022Y-85607034D01*
X80732281Y-85801723D01*
X80796191Y-85927153D01*
X80815571Y-85965187D01*
X80825215Y-85984113D01*
X80945528Y-86149713D01*
X81090286Y-86294471D01*
X81245249Y-86407056D01*
X81255890Y-86414787D01*
X81347340Y-86461383D01*
X81348580Y-86462015D01*
X81399376Y-86509990D01*
X81416171Y-86577811D01*
X81393634Y-86643946D01*
X81348580Y-86682985D01*
X81255886Y-86730215D01*
X81090286Y-86850528D01*
X80945528Y-86995286D01*
X80825215Y-87160886D01*
X80732281Y-87343277D01*
X80711474Y-87407315D01*
X80672036Y-87464990D01*
X80607677Y-87492188D01*
X80538830Y-87480273D01*
X80505862Y-87456677D01*
X79037819Y-85988634D01*
X79004334Y-85927311D01*
X79001500Y-85900953D01*
X79001500Y-85042046D01*
X79021185Y-84975007D01*
X79037814Y-84954370D01*
X80611360Y-83380824D01*
X80672678Y-83347343D01*
X80742370Y-83352327D01*
X80798303Y-83394199D01*
X80809520Y-83412212D01*
X80825640Y-83443849D01*
X80825647Y-83443859D01*
X80858023Y-83488421D01*
X80858024Y-83488422D01*
X81537500Y-82808946D01*
X81537500Y-82815161D01*
G37*
%TD.AperFunction*%
%TA.AperFunction,Conductor*%
G36*
X99677582Y-74661685D02*
G01*
X99723337Y-74714489D01*
X99729203Y-74730002D01*
X99730264Y-74733501D01*
X99790602Y-74879172D01*
X99790609Y-74879185D01*
X99878210Y-75010288D01*
X99878213Y-75010292D01*
X99989707Y-75121786D01*
X99989711Y-75121789D01*
X100120814Y-75209390D01*
X100120827Y-75209397D01*
X100266498Y-75269735D01*
X100266503Y-75269737D01*
X100396982Y-75295691D01*
X100421153Y-75300499D01*
X100421156Y-75300500D01*
X100421158Y-75300500D01*
X100578844Y-75300500D01*
X100578845Y-75300499D01*
X100733497Y-75269737D01*
X100733509Y-75269731D01*
X100739324Y-75267969D01*
X100740158Y-75270720D01*
X100797359Y-75264497D01*
X100859878Y-75295691D01*
X100895608Y-75355734D01*
X100899500Y-75386555D01*
X100899500Y-78139902D01*
X100879815Y-78206941D01*
X100863181Y-78227583D01*
X98689181Y-80401582D01*
X98627858Y-80435067D01*
X98558166Y-80430083D01*
X98502233Y-80388211D01*
X98477816Y-80322747D01*
X98477500Y-80313901D01*
X98477500Y-80120182D01*
X98445490Y-79918082D01*
X98382255Y-79723468D01*
X98289359Y-79541150D01*
X98256974Y-79496577D01*
X98256974Y-79496576D01*
X97577500Y-80176053D01*
X97577500Y-80169839D01*
X97550241Y-80068106D01*
X97497580Y-79976894D01*
X97423106Y-79902420D01*
X97331894Y-79849759D01*
X97230161Y-79822500D01*
X97223946Y-79822500D01*
X97903422Y-79143024D01*
X97903421Y-79143023D01*
X97858859Y-79110647D01*
X97858850Y-79110641D01*
X97765869Y-79063265D01*
X97715073Y-79015290D01*
X97698278Y-78947469D01*
X97720815Y-78881335D01*
X97765870Y-78842295D01*
X97859110Y-78794787D01*
X97933201Y-78740957D01*
X98024713Y-78674471D01*
X98024715Y-78674468D01*
X98024719Y-78674466D01*
X98169466Y-78529719D01*
X98169468Y-78529715D01*
X98169471Y-78529713D01*
X98256901Y-78409374D01*
X98289787Y-78364110D01*
X98382720Y-78181719D01*
X98445977Y-77987034D01*
X98478000Y-77784852D01*
X98478000Y-77580148D01*
X98445977Y-77377966D01*
X98382720Y-77183281D01*
X98382718Y-77183278D01*
X98382718Y-77183276D01*
X98349003Y-77117107D01*
X98289787Y-77000890D01*
X98282056Y-76990249D01*
X98169471Y-76835286D01*
X98024713Y-76690528D01*
X97859114Y-76570215D01*
X97852506Y-76566848D01*
X97766417Y-76522983D01*
X97715623Y-76475011D01*
X97698828Y-76407190D01*
X97721365Y-76341055D01*
X97766417Y-76302016D01*
X97859110Y-76254787D01*
X97880270Y-76239413D01*
X98024713Y-76134471D01*
X98024715Y-76134468D01*
X98024719Y-76134466D01*
X98169466Y-75989719D01*
X98169468Y-75989715D01*
X98169471Y-75989713D01*
X98222232Y-75917090D01*
X98289787Y-75824110D01*
X98382720Y-75641719D01*
X98445977Y-75447034D01*
X98478000Y-75244852D01*
X98478000Y-75040148D01*
X98445977Y-74837966D01*
X98445975Y-74837962D01*
X98445975Y-74837957D01*
X98435045Y-74804317D01*
X98433050Y-74734476D01*
X98469131Y-74674644D01*
X98531832Y-74643816D01*
X98552976Y-74642000D01*
X99610543Y-74642000D01*
X99677582Y-74661685D01*
G37*
%TD.AperFunction*%
%TA.AperFunction,Conductor*%
G36*
X68805703Y-44695384D02*
G01*
X68812181Y-44701416D01*
X75975139Y-51864374D01*
X75975149Y-51864385D01*
X75979479Y-51868715D01*
X75979480Y-51868716D01*
X76091284Y-51980520D01*
X76178095Y-52030639D01*
X76178097Y-52030641D01*
X76228213Y-52059576D01*
X76228215Y-52059577D01*
X76380942Y-52100500D01*
X76380943Y-52100500D01*
X100775500Y-52100500D01*
X100842539Y-52120185D01*
X100888294Y-52172989D01*
X100899500Y-52224500D01*
X100899500Y-62496560D01*
X100879815Y-62563599D01*
X100827011Y-62609354D01*
X100757853Y-62619298D01*
X100694297Y-62590273D01*
X100672398Y-62565451D01*
X100621789Y-62489711D01*
X100621786Y-62489707D01*
X100510292Y-62378213D01*
X100510288Y-62378210D01*
X100379185Y-62290609D01*
X100379172Y-62290602D01*
X100233501Y-62230264D01*
X100233489Y-62230261D01*
X100078845Y-62199500D01*
X100078842Y-62199500D01*
X99921158Y-62199500D01*
X99921155Y-62199500D01*
X99766510Y-62230261D01*
X99766498Y-62230264D01*
X99620827Y-62290602D01*
X99620814Y-62290609D01*
X99489711Y-62378210D01*
X99489707Y-62378213D01*
X99378213Y-62489707D01*
X99378210Y-62489711D01*
X99290609Y-62620814D01*
X99290602Y-62620827D01*
X99230264Y-62766498D01*
X99230261Y-62766508D01*
X99199361Y-62921850D01*
X99166976Y-62983761D01*
X99165425Y-62985339D01*
X98906084Y-63244681D01*
X98844761Y-63278166D01*
X98818403Y-63281000D01*
X98412197Y-63281000D01*
X98345158Y-63261315D01*
X98299403Y-63208511D01*
X98289459Y-63139353D01*
X98301712Y-63100705D01*
X98302424Y-63099309D01*
X98382720Y-62941719D01*
X98445977Y-62747034D01*
X98478000Y-62544852D01*
X98478000Y-62340148D01*
X98476205Y-62328814D01*
X98445977Y-62137965D01*
X98413286Y-62037355D01*
X98382720Y-61943281D01*
X98382718Y-61943278D01*
X98382718Y-61943276D01*
X98349003Y-61877107D01*
X98289787Y-61760890D01*
X98274379Y-61739683D01*
X98169471Y-61595286D01*
X98024713Y-61450528D01*
X97859114Y-61330215D01*
X97852506Y-61326848D01*
X97766417Y-61282983D01*
X97715623Y-61235011D01*
X97698828Y-61167190D01*
X97721365Y-61101055D01*
X97766417Y-61062016D01*
X97859110Y-61014787D01*
X97880270Y-60999413D01*
X98024713Y-60894471D01*
X98024715Y-60894468D01*
X98024719Y-60894466D01*
X98169466Y-60749719D01*
X98169468Y-60749715D01*
X98169471Y-60749713D01*
X98222232Y-60677090D01*
X98289787Y-60584110D01*
X98382720Y-60401719D01*
X98445977Y-60207034D01*
X98478000Y-60004852D01*
X98478000Y-59800148D01*
X98445977Y-59597966D01*
X98382720Y-59403281D01*
X98382718Y-59403278D01*
X98382718Y-59403276D01*
X98349003Y-59337107D01*
X98289787Y-59220890D01*
X98234439Y-59144709D01*
X98169471Y-59055286D01*
X98024713Y-58910528D01*
X97859114Y-58790215D01*
X97852506Y-58786848D01*
X97766417Y-58742983D01*
X97715623Y-58695011D01*
X97698828Y-58627190D01*
X97721365Y-58561055D01*
X97766417Y-58522016D01*
X97859110Y-58474787D01*
X97987982Y-58381157D01*
X98024713Y-58354471D01*
X98024715Y-58354468D01*
X98024719Y-58354466D01*
X98169466Y-58209719D01*
X98169468Y-58209715D01*
X98169471Y-58209713D01*
X98274392Y-58065299D01*
X98289787Y-58044110D01*
X98382720Y-57861719D01*
X98445977Y-57667034D01*
X98478000Y-57464852D01*
X98478000Y-57260148D01*
X98456085Y-57121786D01*
X98445977Y-57057965D01*
X98416627Y-56967637D01*
X98382720Y-56863281D01*
X98382718Y-56863278D01*
X98382718Y-56863276D01*
X98331365Y-56762491D01*
X98289787Y-56680890D01*
X98274392Y-56659700D01*
X98169471Y-56515286D01*
X98024713Y-56370528D01*
X97859113Y-56250215D01*
X97859112Y-56250214D01*
X97859110Y-56250213D01*
X97799398Y-56219788D01*
X97676723Y-56157281D01*
X97482034Y-56094022D01*
X97307495Y-56066378D01*
X97279852Y-56062000D01*
X97075148Y-56062000D01*
X97050829Y-56065851D01*
X96872965Y-56094022D01*
X96678276Y-56157281D01*
X96495886Y-56250215D01*
X96330286Y-56370528D01*
X96185528Y-56515286D01*
X96065215Y-56680886D01*
X95972281Y-56863276D01*
X95909022Y-57057965D01*
X95877000Y-57260148D01*
X95877000Y-57464851D01*
X95909022Y-57667034D01*
X95972281Y-57861723D01*
X96065215Y-58044113D01*
X96185528Y-58209713D01*
X96330286Y-58354471D01*
X96485249Y-58467056D01*
X96495890Y-58474787D01*
X96587340Y-58521383D01*
X96588580Y-58522015D01*
X96639376Y-58569990D01*
X96656171Y-58637811D01*
X96633634Y-58703946D01*
X96588580Y-58742985D01*
X96495886Y-58790215D01*
X96330286Y-58910528D01*
X96185528Y-59055286D01*
X96065215Y-59220886D01*
X95972281Y-59403276D01*
X95909022Y-59597965D01*
X95877000Y-59800148D01*
X95877000Y-60004851D01*
X95909022Y-60207034D01*
X95972281Y-60401723D01*
X96065215Y-60584113D01*
X96185528Y-60749713D01*
X96330286Y-60894471D01*
X96485249Y-61007056D01*
X96495890Y-61014787D01*
X96587340Y-61061383D01*
X96588580Y-61062015D01*
X96639376Y-61109990D01*
X96656171Y-61177811D01*
X96633634Y-61243946D01*
X96588580Y-61282985D01*
X96495886Y-61330215D01*
X96330286Y-61450528D01*
X96185528Y-61595286D01*
X96065215Y-61760886D01*
X95972281Y-61943276D01*
X95909022Y-62137965D01*
X95877000Y-62340148D01*
X95877000Y-62544851D01*
X95909022Y-62747034D01*
X95972281Y-62941723D01*
X96027763Y-63050610D01*
X96052576Y-63099309D01*
X96053288Y-63100705D01*
X96066184Y-63169374D01*
X96039908Y-63234114D01*
X95982802Y-63274372D01*
X95942803Y-63281000D01*
X93681596Y-63281000D01*
X93614557Y-63261315D01*
X93593915Y-63244681D01*
X92584545Y-62235311D01*
X92551060Y-62173988D01*
X92550609Y-62171821D01*
X92523861Y-62037355D01*
X92519708Y-62016475D01*
X92519706Y-62016470D01*
X92459368Y-61870799D01*
X92459361Y-61870786D01*
X92371760Y-61739683D01*
X92371757Y-61739679D01*
X92260263Y-61628185D01*
X92260259Y-61628182D01*
X92129156Y-61540581D01*
X92129143Y-61540574D01*
X91983472Y-61480236D01*
X91983460Y-61480233D01*
X91828816Y-61449472D01*
X91828813Y-61449472D01*
X91671129Y-61449472D01*
X91671126Y-61449472D01*
X91516481Y-61480233D01*
X91516469Y-61480236D01*
X91370798Y-61540574D01*
X91370785Y-61540581D01*
X91239682Y-61628182D01*
X91239678Y-61628185D01*
X91128184Y-61739679D01*
X91128181Y-61739683D01*
X91040580Y-61870786D01*
X91040573Y-61870799D01*
X90980235Y-62016470D01*
X90980232Y-62016482D01*
X90949471Y-62171125D01*
X90949471Y-62328818D01*
X90980232Y-62483461D01*
X90980235Y-62483473D01*
X91040573Y-62629144D01*
X91040580Y-62629157D01*
X91128181Y-62760260D01*
X91128184Y-62760264D01*
X91239678Y-62871758D01*
X91239682Y-62871761D01*
X91370785Y-62959362D01*
X91370798Y-62959369D01*
X91492783Y-63009896D01*
X91516474Y-63019709D01*
X91581118Y-63032567D01*
X91671820Y-63050610D01*
X91733731Y-63082995D01*
X91735310Y-63084546D01*
X92896638Y-64245874D01*
X92896648Y-64245885D01*
X92900978Y-64250215D01*
X92900979Y-64250216D01*
X93012783Y-64362020D01*
X93085814Y-64404184D01*
X93149714Y-64441077D01*
X93302442Y-64482001D01*
X93302445Y-64482001D01*
X93468152Y-64482001D01*
X93468168Y-64482000D01*
X95802024Y-64482000D01*
X95869063Y-64501685D01*
X95914818Y-64554489D01*
X95924762Y-64623647D01*
X95919955Y-64644317D01*
X95909024Y-64677957D01*
X95909023Y-64677964D01*
X95881465Y-64851958D01*
X95877000Y-64880148D01*
X95877000Y-65084852D01*
X95879479Y-65100501D01*
X95909022Y-65287034D01*
X95972281Y-65481723D01*
X96053288Y-65640705D01*
X96066184Y-65709374D01*
X96039908Y-65774114D01*
X95982802Y-65814372D01*
X95942803Y-65821000D01*
X94499441Y-65821000D01*
X94466902Y-65829718D01*
X94466903Y-65829719D01*
X94346714Y-65861923D01*
X94346709Y-65861926D01*
X94209790Y-65940975D01*
X94209782Y-65940981D01*
X93485339Y-66665425D01*
X93424016Y-66698910D01*
X93421850Y-66699361D01*
X93266508Y-66730261D01*
X93266498Y-66730264D01*
X93120827Y-66790602D01*
X93120814Y-66790609D01*
X92989711Y-66878210D01*
X92989707Y-66878213D01*
X92878213Y-66989707D01*
X92878210Y-66989711D01*
X92790609Y-67120814D01*
X92790602Y-67120827D01*
X92730264Y-67266498D01*
X92730261Y-67266510D01*
X92699500Y-67421153D01*
X92699500Y-67578846D01*
X92730261Y-67733489D01*
X92730264Y-67733501D01*
X92790602Y-67879172D01*
X92790609Y-67879185D01*
X92878210Y-68010288D01*
X92878213Y-68010292D01*
X92989707Y-68121786D01*
X92989711Y-68121789D01*
X93120814Y-68209390D01*
X93120827Y-68209397D01*
X93266498Y-68269735D01*
X93266503Y-68269737D01*
X93421153Y-68300499D01*
X93421156Y-68300500D01*
X93421158Y-68300500D01*
X93578844Y-68300500D01*
X93578845Y-68300499D01*
X93733497Y-68269737D01*
X93879179Y-68209394D01*
X94010289Y-68121789D01*
X94121789Y-68010289D01*
X94209394Y-67879179D01*
X94269737Y-67733497D01*
X94294281Y-67610109D01*
X94300638Y-67578150D01*
X94333023Y-67516239D01*
X94334518Y-67514716D01*
X94790916Y-67058319D01*
X94852239Y-67024834D01*
X94878597Y-67022000D01*
X95802024Y-67022000D01*
X95869063Y-67041685D01*
X95914818Y-67094489D01*
X95924762Y-67163647D01*
X95919955Y-67184317D01*
X95909024Y-67217957D01*
X95909023Y-67217964D01*
X95877000Y-67420148D01*
X95877000Y-67624851D01*
X95909022Y-67827034D01*
X95972281Y-68021723D01*
X96065215Y-68204113D01*
X96185528Y-68369713D01*
X96330286Y-68514471D01*
X96485249Y-68627056D01*
X96495890Y-68634787D01*
X96587340Y-68681383D01*
X96588580Y-68682015D01*
X96639376Y-68729990D01*
X96656171Y-68797811D01*
X96633634Y-68863946D01*
X96588580Y-68902985D01*
X96495886Y-68950215D01*
X96330286Y-69070528D01*
X96185528Y-69215286D01*
X96065215Y-69380886D01*
X95972281Y-69563276D01*
X95909022Y-69757965D01*
X95877000Y-69960148D01*
X95877000Y-70164851D01*
X95909022Y-70367030D01*
X95909022Y-70367034D01*
X95972281Y-70561723D01*
X96065215Y-70744113D01*
X96185528Y-70909713D01*
X96330286Y-71054471D01*
X96485249Y-71167056D01*
X96495890Y-71174787D01*
X96587340Y-71221383D01*
X96588580Y-71222015D01*
X96639376Y-71269990D01*
X96656171Y-71337811D01*
X96633634Y-71403946D01*
X96588580Y-71442985D01*
X96495886Y-71490215D01*
X96330286Y-71610528D01*
X96185528Y-71755286D01*
X96065215Y-71920886D01*
X95972281Y-72103276D01*
X95909022Y-72297965D01*
X95877000Y-72500148D01*
X95877000Y-72704851D01*
X95909022Y-72907034D01*
X95972281Y-73101723D01*
X96053288Y-73260705D01*
X96066184Y-73329374D01*
X96039908Y-73394114D01*
X95982802Y-73434372D01*
X95942803Y-73441000D01*
X86216598Y-73441000D01*
X86149559Y-73421315D01*
X86128917Y-73404681D01*
X83231577Y-70507342D01*
X83198092Y-70446019D01*
X83201328Y-70381341D01*
X83205977Y-70367035D01*
X83205977Y-70367034D01*
X83238000Y-70164852D01*
X83238000Y-69960148D01*
X83205977Y-69757966D01*
X83186560Y-69698208D01*
X83142718Y-69563276D01*
X83109003Y-69497107D01*
X83049787Y-69380890D01*
X83042056Y-69370249D01*
X82929471Y-69215286D01*
X82784713Y-69070528D01*
X82619114Y-68950215D01*
X82612506Y-68946848D01*
X82526417Y-68902983D01*
X82475623Y-68855011D01*
X82458828Y-68787190D01*
X82481365Y-68721055D01*
X82526417Y-68682016D01*
X82619110Y-68634787D01*
X82640270Y-68619413D01*
X82784713Y-68514471D01*
X82784715Y-68514468D01*
X82784719Y-68514466D01*
X82929466Y-68369719D01*
X82929468Y-68369715D01*
X82929471Y-68369713D01*
X83002106Y-68269738D01*
X83049787Y-68204110D01*
X83142720Y-68021719D01*
X83205977Y-67827034D01*
X83238000Y-67624852D01*
X83238000Y-67420148D01*
X83208429Y-67233445D01*
X83205977Y-67217965D01*
X83167132Y-67098414D01*
X83142720Y-67023281D01*
X83142718Y-67023278D01*
X83142718Y-67023276D01*
X83097002Y-66933554D01*
X83049787Y-66840890D01*
X83020442Y-66800500D01*
X82929471Y-66675286D01*
X82784713Y-66530528D01*
X82619114Y-66410215D01*
X82612506Y-66406848D01*
X82526417Y-66362983D01*
X82475623Y-66315011D01*
X82458828Y-66247190D01*
X82481365Y-66181055D01*
X82526417Y-66142016D01*
X82619110Y-66094787D01*
X82739857Y-66007060D01*
X82784713Y-65974471D01*
X82784715Y-65974468D01*
X82784719Y-65974466D01*
X82929466Y-65829719D01*
X82929468Y-65829715D01*
X82929471Y-65829713D01*
X82992582Y-65742847D01*
X83049787Y-65664110D01*
X83142720Y-65481719D01*
X83205977Y-65287034D01*
X83238000Y-65084852D01*
X83238000Y-64880148D01*
X83233535Y-64851958D01*
X83205977Y-64677965D01*
X83167132Y-64558414D01*
X83142720Y-64483281D01*
X83142718Y-64483278D01*
X83142718Y-64483276D01*
X83089677Y-64379179D01*
X83049787Y-64300890D01*
X83027153Y-64269737D01*
X82929471Y-64135286D01*
X82784713Y-63990528D01*
X82619114Y-63870215D01*
X82612506Y-63866848D01*
X82526417Y-63822983D01*
X82475623Y-63775011D01*
X82458828Y-63707190D01*
X82481365Y-63641055D01*
X82526417Y-63602016D01*
X82619110Y-63554787D01*
X82689785Y-63503439D01*
X82784713Y-63434471D01*
X82784715Y-63434468D01*
X82784719Y-63434466D01*
X82929466Y-63289719D01*
X82929468Y-63289715D01*
X82929471Y-63289713D01*
X83016901Y-63169374D01*
X83049787Y-63124110D01*
X83142720Y-62941719D01*
X83205977Y-62747034D01*
X83238000Y-62544852D01*
X83238000Y-62340148D01*
X83236205Y-62328814D01*
X83205977Y-62137965D01*
X83173286Y-62037355D01*
X83142720Y-61943281D01*
X83142718Y-61943278D01*
X83142718Y-61943276D01*
X83109003Y-61877107D01*
X83049787Y-61760890D01*
X83034379Y-61739683D01*
X82929471Y-61595286D01*
X82784713Y-61450528D01*
X82619114Y-61330215D01*
X82612506Y-61326848D01*
X82526417Y-61282983D01*
X82475623Y-61235011D01*
X82458828Y-61167190D01*
X82481365Y-61101055D01*
X82526417Y-61062016D01*
X82619110Y-61014787D01*
X82640270Y-60999413D01*
X82784713Y-60894471D01*
X82784715Y-60894468D01*
X82784719Y-60894466D01*
X82929466Y-60749719D01*
X82929468Y-60749715D01*
X82929471Y-60749713D01*
X82982232Y-60677090D01*
X83049787Y-60584110D01*
X83142720Y-60401719D01*
X83205977Y-60207034D01*
X83238000Y-60004852D01*
X83238000Y-59800148D01*
X83205977Y-59597966D01*
X83142720Y-59403281D01*
X83142718Y-59403278D01*
X83142718Y-59403276D01*
X83109003Y-59337107D01*
X83049787Y-59220890D01*
X82994439Y-59144709D01*
X82929471Y-59055286D01*
X82784719Y-58910534D01*
X82765383Y-58896486D01*
X82691047Y-58842478D01*
X82648382Y-58787149D01*
X82642403Y-58717536D01*
X82675008Y-58655740D01*
X82724926Y-58624455D01*
X82806834Y-58597314D01*
X82956156Y-58505212D01*
X83080212Y-58381156D01*
X83172314Y-58231834D01*
X83227499Y-58065297D01*
X83238000Y-57962509D01*
X83237999Y-56762492D01*
X83227499Y-56659703D01*
X83172314Y-56493166D01*
X83080212Y-56343844D01*
X82956156Y-56219788D01*
X82806834Y-56127686D01*
X82640297Y-56072501D01*
X82640295Y-56072500D01*
X82537510Y-56062000D01*
X81337498Y-56062000D01*
X81337481Y-56062001D01*
X81234703Y-56072500D01*
X81234700Y-56072501D01*
X81068168Y-56127685D01*
X81068163Y-56127687D01*
X80918842Y-56219789D01*
X80794789Y-56343842D01*
X80702687Y-56493163D01*
X80702685Y-56493168D01*
X80695358Y-56515281D01*
X80647501Y-56659703D01*
X80647501Y-56659704D01*
X80647500Y-56659704D01*
X80637000Y-56762483D01*
X80637000Y-57962501D01*
X80637001Y-57962518D01*
X80647500Y-58065296D01*
X80647501Y-58065299D01*
X80683513Y-58173975D01*
X80702686Y-58231834D01*
X80794788Y-58381156D01*
X80918844Y-58505212D01*
X81068166Y-58597314D01*
X81150070Y-58624454D01*
X81207515Y-58664227D01*
X81234338Y-58728743D01*
X81222023Y-58797518D01*
X81183951Y-58842478D01*
X81090287Y-58910528D01*
X81090282Y-58910532D01*
X80945528Y-59055286D01*
X80825215Y-59220886D01*
X80732281Y-59403276D01*
X80669022Y-59597965D01*
X80637000Y-59800148D01*
X80637000Y-60004851D01*
X80669022Y-60207034D01*
X80732281Y-60401723D01*
X80825215Y-60584113D01*
X80945528Y-60749713D01*
X81090286Y-60894471D01*
X81245249Y-61007056D01*
X81255890Y-61014787D01*
X81347340Y-61061383D01*
X81348580Y-61062015D01*
X81399376Y-61109990D01*
X81416171Y-61177811D01*
X81393634Y-61243946D01*
X81348580Y-61282985D01*
X81255886Y-61330215D01*
X81090286Y-61450528D01*
X80945528Y-61595286D01*
X80825215Y-61760886D01*
X80732281Y-61943276D01*
X80669022Y-62137965D01*
X80637000Y-62340148D01*
X80637000Y-62544851D01*
X80669022Y-62747034D01*
X80673673Y-62761348D01*
X80675665Y-62831190D01*
X80643421Y-62887342D01*
X79566584Y-63964181D01*
X79505261Y-63997666D01*
X79478903Y-64000500D01*
X75918046Y-64000500D01*
X75851007Y-63980815D01*
X75805252Y-63928011D01*
X75796429Y-63900691D01*
X75779791Y-63817049D01*
X75769737Y-63766503D01*
X75769160Y-63765109D01*
X75709397Y-63620827D01*
X75709390Y-63620814D01*
X75621398Y-63489125D01*
X75602652Y-63443234D01*
X75600500Y-63431833D01*
X75600500Y-63420943D01*
X75594754Y-63399500D01*
X75576717Y-63332184D01*
X75559577Y-63268216D01*
X75542769Y-63239103D01*
X75480524Y-63131290D01*
X75480521Y-63131286D01*
X75480520Y-63131284D01*
X75368716Y-63019480D01*
X75368715Y-63019479D01*
X75364385Y-63015149D01*
X75364374Y-63015139D01*
X71307044Y-58957809D01*
X71273559Y-58896486D01*
X71278543Y-58826794D01*
X71320415Y-58770861D01*
X71321800Y-58769839D01*
X71429563Y-58691545D01*
X71581545Y-58539563D01*
X71707880Y-58365678D01*
X71707881Y-58365675D01*
X71709990Y-58362773D01*
X71765320Y-58320107D01*
X71834933Y-58314128D01*
X71896728Y-58346734D01*
X71910626Y-58362772D01*
X72038838Y-58539239D01*
X72038838Y-58539240D01*
X72190759Y-58691161D01*
X72364583Y-58817452D01*
X72556024Y-58914996D01*
X72760359Y-58981388D01*
X72829999Y-58992418D01*
X72830000Y-58992418D01*
X72830000Y-57944560D01*
X72883147Y-57975245D01*
X73012857Y-58010000D01*
X73147143Y-58010000D01*
X73276853Y-57975245D01*
X73330000Y-57944560D01*
X73330000Y-58992418D01*
X73399638Y-58981388D01*
X73399641Y-58981388D01*
X73603975Y-58914996D01*
X73795416Y-58817452D01*
X73969240Y-58691161D01*
X74121161Y-58539240D01*
X74247452Y-58365416D01*
X74344996Y-58173975D01*
X74411388Y-57969642D01*
X74411388Y-57969639D01*
X74445000Y-57757427D01*
X74445000Y-57750000D01*
X73524560Y-57750000D01*
X73555245Y-57696853D01*
X73590000Y-57567143D01*
X73590000Y-57432857D01*
X73555245Y-57303147D01*
X73524560Y-57250000D01*
X74445000Y-57250000D01*
X74445000Y-57242572D01*
X74411388Y-57030360D01*
X74411388Y-57030357D01*
X74344996Y-56826024D01*
X74247452Y-56634583D01*
X74121161Y-56460759D01*
X73969240Y-56308838D01*
X73795416Y-56182547D01*
X73603975Y-56085003D01*
X73399635Y-56018610D01*
X73399636Y-56018610D01*
X73330000Y-56007581D01*
X73330000Y-57055439D01*
X73276853Y-57024755D01*
X73147143Y-56990000D01*
X73012857Y-56990000D01*
X72883147Y-57024755D01*
X72830000Y-57055439D01*
X72830000Y-56007581D01*
X72760364Y-56018610D01*
X72556024Y-56085003D01*
X72364583Y-56182547D01*
X72190759Y-56308838D01*
X72038838Y-56460759D01*
X72038838Y-56460760D01*
X71910626Y-56637227D01*
X71855296Y-56679892D01*
X71785682Y-56685871D01*
X71723887Y-56653265D01*
X71709990Y-56637226D01*
X71621395Y-56515286D01*
X71581545Y-56460437D01*
X71429563Y-56308455D01*
X71255678Y-56182120D01*
X71206927Y-56157280D01*
X71064170Y-56084541D01*
X71064167Y-56084540D01*
X70859757Y-56018124D01*
X70718229Y-55995708D01*
X70647467Y-55984500D01*
X70432533Y-55984500D01*
X70361770Y-55995708D01*
X70220243Y-56018124D01*
X70220240Y-56018124D01*
X70015832Y-56084540D01*
X70015829Y-56084541D01*
X69824321Y-56182120D01*
X69650438Y-56308454D01*
X69555910Y-56402982D01*
X69494586Y-56436466D01*
X69424895Y-56431482D01*
X69368962Y-56389610D01*
X69352047Y-56358632D01*
X69308798Y-56242673D01*
X69308793Y-56242664D01*
X69222547Y-56127455D01*
X69222544Y-56127452D01*
X69107335Y-56041206D01*
X69107328Y-56041202D01*
X68972482Y-55990908D01*
X68972483Y-55990908D01*
X68912883Y-55984501D01*
X68912881Y-55984500D01*
X68912873Y-55984500D01*
X68912865Y-55984500D01*
X68724500Y-55984500D01*
X68657461Y-55964815D01*
X68611706Y-55912011D01*
X68600500Y-55860500D01*
X68600500Y-44789097D01*
X68620185Y-44722058D01*
X68672989Y-44676303D01*
X68742147Y-44666359D01*
X68805703Y-44695384D01*
G37*
%TD.AperFunction*%
%TA.AperFunction,Conductor*%
G36*
X167341444Y-64693999D02*
G01*
X167380486Y-64739056D01*
X167384951Y-64747820D01*
X167509890Y-64919786D01*
X167660213Y-65070109D01*
X167832179Y-65195048D01*
X167832181Y-65195049D01*
X167832184Y-65195051D01*
X167841493Y-65199794D01*
X167892290Y-65247766D01*
X167909087Y-65315587D01*
X167886552Y-65381722D01*
X167841505Y-65420760D01*
X167832446Y-65425376D01*
X167832440Y-65425380D01*
X167778282Y-65464727D01*
X167778282Y-65464728D01*
X168410591Y-66097037D01*
X168347007Y-66114075D01*
X168232993Y-66179901D01*
X168139901Y-66272993D01*
X168074075Y-66387007D01*
X168057037Y-66450591D01*
X167424728Y-65818282D01*
X167424727Y-65818282D01*
X167385380Y-65872440D01*
X167385376Y-65872446D01*
X167380760Y-65881505D01*
X167332781Y-65932297D01*
X167264959Y-65949087D01*
X167198826Y-65926543D01*
X167159794Y-65881493D01*
X167155051Y-65872184D01*
X167155049Y-65872181D01*
X167155048Y-65872179D01*
X167030109Y-65700213D01*
X166879786Y-65549890D01*
X166707820Y-65424951D01*
X166707115Y-65424591D01*
X166699054Y-65420485D01*
X166648259Y-65372512D01*
X166631463Y-65304692D01*
X166653999Y-65238556D01*
X166699054Y-65199515D01*
X166707816Y-65195051D01*
X166808648Y-65121793D01*
X166879786Y-65070109D01*
X166879788Y-65070106D01*
X166879792Y-65070104D01*
X167030104Y-64919792D01*
X167030106Y-64919788D01*
X167030109Y-64919786D01*
X167155048Y-64747820D01*
X167155047Y-64747820D01*
X167155051Y-64747816D01*
X167159514Y-64739054D01*
X167207488Y-64688259D01*
X167275308Y-64671463D01*
X167341444Y-64693999D01*
G37*
%TD.AperFunction*%
%TA.AperFunction,Conductor*%
G36*
X206438313Y-19019685D02*
G01*
X206484068Y-19072489D01*
X206495187Y-19128636D01*
X201004403Y-165882306D01*
X200982226Y-165948563D01*
X200927748Y-165992311D01*
X200882236Y-166001658D01*
X23630895Y-168498156D01*
X23563585Y-168479417D01*
X23517091Y-168427263D01*
X23505249Y-168369197D01*
X23825177Y-160397648D01*
X38199500Y-160397648D01*
X38199500Y-160602351D01*
X38231522Y-160804534D01*
X38294781Y-160999223D01*
X38387715Y-161181613D01*
X38508028Y-161347213D01*
X38652786Y-161491971D01*
X38807749Y-161604556D01*
X38818390Y-161612287D01*
X38934607Y-161671503D01*
X39000776Y-161705218D01*
X39000778Y-161705218D01*
X39000781Y-161705220D01*
X39105137Y-161739127D01*
X39195465Y-161768477D01*
X39296557Y-161784488D01*
X39397648Y-161800500D01*
X39397649Y-161800500D01*
X39602351Y-161800500D01*
X39602352Y-161800500D01*
X39804534Y-161768477D01*
X39999219Y-161705220D01*
X40181610Y-161612287D01*
X40274590Y-161544732D01*
X40347213Y-161491971D01*
X40347215Y-161491968D01*
X40347219Y-161491966D01*
X40491966Y-161347219D01*
X40491968Y-161347215D01*
X40491971Y-161347213D01*
X40544732Y-161274590D01*
X40612287Y-161181610D01*
X40705220Y-160999219D01*
X40768477Y-160804534D01*
X40800500Y-160602352D01*
X40800500Y-160397648D01*
X40768477Y-160195466D01*
X40705220Y-160000781D01*
X40705218Y-160000778D01*
X40705218Y-160000776D01*
X40671503Y-159934607D01*
X40612287Y-159818390D01*
X40604556Y-159807749D01*
X40491971Y-159652786D01*
X40347213Y-159508028D01*
X40181613Y-159387715D01*
X40181612Y-159387714D01*
X40181610Y-159387713D01*
X40124653Y-159358691D01*
X39999223Y-159294781D01*
X39804534Y-159231522D01*
X39629995Y-159203878D01*
X39602352Y-159199500D01*
X39397648Y-159199500D01*
X39373329Y-159203351D01*
X39195465Y-159231522D01*
X39000776Y-159294781D01*
X38818386Y-159387715D01*
X38652786Y-159508028D01*
X38508028Y-159652786D01*
X38387715Y-159818386D01*
X38294781Y-160000776D01*
X38231522Y-160195465D01*
X38199500Y-160397648D01*
X23825177Y-160397648D01*
X23965645Y-156897648D01*
X190199500Y-156897648D01*
X190199500Y-157102351D01*
X190231522Y-157304534D01*
X190294781Y-157499223D01*
X190387715Y-157681613D01*
X190508028Y-157847213D01*
X190652786Y-157991971D01*
X190807749Y-158104556D01*
X190818390Y-158112287D01*
X190934607Y-158171503D01*
X191000776Y-158205218D01*
X191000778Y-158205218D01*
X191000781Y-158205220D01*
X191105137Y-158239127D01*
X191195465Y-158268477D01*
X191296557Y-158284488D01*
X191397648Y-158300500D01*
X191397649Y-158300500D01*
X191602351Y-158300500D01*
X191602352Y-158300500D01*
X191804534Y-158268477D01*
X191999219Y-158205220D01*
X192181610Y-158112287D01*
X192274590Y-158044732D01*
X192347213Y-157991971D01*
X192347215Y-157991968D01*
X192347219Y-157991966D01*
X192491966Y-157847219D01*
X192491968Y-157847215D01*
X192491971Y-157847213D01*
X192544732Y-157774590D01*
X192612287Y-157681610D01*
X192705220Y-157499219D01*
X192768477Y-157304534D01*
X192800500Y-157102352D01*
X192800500Y-156897648D01*
X192768477Y-156695466D01*
X192705220Y-156500781D01*
X192705218Y-156500778D01*
X192705218Y-156500776D01*
X192671503Y-156434607D01*
X192612287Y-156318390D01*
X192604556Y-156307749D01*
X192491971Y-156152786D01*
X192347213Y-156008028D01*
X192181613Y-155887715D01*
X192181612Y-155887714D01*
X192181610Y-155887713D01*
X192124653Y-155858691D01*
X191999223Y-155794781D01*
X191804534Y-155731522D01*
X191629995Y-155703878D01*
X191602352Y-155699500D01*
X191397648Y-155699500D01*
X191373329Y-155703351D01*
X191195465Y-155731522D01*
X191000776Y-155794781D01*
X190818386Y-155887715D01*
X190652786Y-156008028D01*
X190508028Y-156152786D01*
X190387715Y-156318386D01*
X190294781Y-156500776D01*
X190231522Y-156695465D01*
X190199500Y-156897648D01*
X23965645Y-156897648D01*
X24707177Y-138421153D01*
X109199500Y-138421153D01*
X109199500Y-138578846D01*
X109230261Y-138733489D01*
X109230264Y-138733501D01*
X109290602Y-138879172D01*
X109290609Y-138879185D01*
X109378602Y-139010874D01*
X109399480Y-139077551D01*
X109399500Y-139079765D01*
X109399500Y-146413330D01*
X109399499Y-146413348D01*
X109399499Y-146579054D01*
X109399498Y-146579054D01*
X109440423Y-146731785D01*
X109469358Y-146781900D01*
X109469359Y-146781904D01*
X109469360Y-146781904D01*
X109519479Y-146868714D01*
X109519481Y-146868717D01*
X109638349Y-146987585D01*
X109638355Y-146987590D01*
X109915425Y-147264660D01*
X109948910Y-147325983D01*
X109949361Y-147328149D01*
X109980261Y-147483491D01*
X109980264Y-147483501D01*
X110040602Y-147629172D01*
X110040609Y-147629185D01*
X110128210Y-147760288D01*
X110128213Y-147760292D01*
X110239707Y-147871786D01*
X110239711Y-147871789D01*
X110370814Y-147959390D01*
X110370827Y-147959397D01*
X110516498Y-148019735D01*
X110516503Y-148019737D01*
X110671153Y-148050499D01*
X110671156Y-148050500D01*
X110671158Y-148050500D01*
X110828844Y-148050500D01*
X110828845Y-148050499D01*
X110983497Y-148019737D01*
X111129179Y-147959394D01*
X111260289Y-147871789D01*
X111371789Y-147760289D01*
X111459394Y-147629179D01*
X111519737Y-147483497D01*
X111550500Y-147328842D01*
X111550500Y-147171158D01*
X111550500Y-147171155D01*
X111550499Y-147171153D01*
X111519738Y-147016510D01*
X111519737Y-147016503D01*
X111504833Y-146980521D01*
X111459397Y-146870827D01*
X111459390Y-146870814D01*
X111371789Y-146739711D01*
X111371786Y-146739707D01*
X111260292Y-146628213D01*
X111260288Y-146628210D01*
X111129185Y-146540609D01*
X111129172Y-146540602D01*
X110983501Y-146480264D01*
X110983491Y-146480261D01*
X110828149Y-146449361D01*
X110811392Y-146440595D01*
X110792914Y-146436576D01*
X110767877Y-146417833D01*
X110766238Y-146416976D01*
X110764660Y-146415425D01*
X110636819Y-146287584D01*
X110603334Y-146226261D01*
X110600500Y-146199903D01*
X110600500Y-139079765D01*
X110620185Y-139012726D01*
X110621398Y-139010874D01*
X110709390Y-138879185D01*
X110709390Y-138879184D01*
X110709394Y-138879179D01*
X110769737Y-138733497D01*
X110800500Y-138578842D01*
X110800500Y-138421158D01*
X110800500Y-138421155D01*
X110800499Y-138421153D01*
X110769738Y-138266510D01*
X110769737Y-138266503D01*
X110769735Y-138266498D01*
X110709397Y-138120827D01*
X110709390Y-138120814D01*
X110621789Y-137989711D01*
X110621786Y-137989707D01*
X110510292Y-137878213D01*
X110510288Y-137878210D01*
X110379185Y-137790609D01*
X110379172Y-137790602D01*
X110233501Y-137730264D01*
X110233489Y-137730261D01*
X110078845Y-137699500D01*
X110078842Y-137699500D01*
X109921158Y-137699500D01*
X109921155Y-137699500D01*
X109766510Y-137730261D01*
X109766498Y-137730264D01*
X109620827Y-137790602D01*
X109620814Y-137790609D01*
X109489711Y-137878210D01*
X109489707Y-137878213D01*
X109378213Y-137989707D01*
X109378210Y-137989711D01*
X109290609Y-138120814D01*
X109290602Y-138120827D01*
X109230264Y-138266498D01*
X109230261Y-138266510D01*
X109199500Y-138421153D01*
X24707177Y-138421153D01*
X25089865Y-128885837D01*
X70249500Y-128885837D01*
X70249500Y-129114162D01*
X70285215Y-129339660D01*
X70355770Y-129556803D01*
X70459421Y-129760228D01*
X70593621Y-129944937D01*
X70755063Y-130106379D01*
X70939772Y-130240579D01*
X71035884Y-130289550D01*
X71143196Y-130344229D01*
X71143198Y-130344229D01*
X71143201Y-130344231D01*
X71259592Y-130382049D01*
X71360339Y-130414784D01*
X71585838Y-130450500D01*
X71585843Y-130450500D01*
X73414162Y-130450500D01*
X73639660Y-130414784D01*
X73856799Y-130344231D01*
X74060228Y-130240579D01*
X74244937Y-130106379D01*
X74406379Y-129944937D01*
X74540579Y-129760228D01*
X74644231Y-129556799D01*
X74714784Y-129339660D01*
X74750500Y-129114162D01*
X74750500Y-128885837D01*
X74714784Y-128660339D01*
X74644229Y-128443196D01*
X74540578Y-128239771D01*
X74488109Y-128167554D01*
X74406379Y-128055063D01*
X74244937Y-127893621D01*
X74060228Y-127759421D01*
X73856803Y-127655770D01*
X73639660Y-127585215D01*
X73414162Y-127549500D01*
X73414157Y-127549500D01*
X71585843Y-127549500D01*
X71585838Y-127549500D01*
X71360339Y-127585215D01*
X71143196Y-127655770D01*
X70939771Y-127759421D01*
X70755061Y-127893622D01*
X70593622Y-128055061D01*
X70459421Y-128239771D01*
X70355770Y-128443196D01*
X70285215Y-128660339D01*
X70249500Y-128885837D01*
X25089865Y-128885837D01*
X25224903Y-125521153D01*
X71699500Y-125521153D01*
X71699500Y-125678846D01*
X71730261Y-125833489D01*
X71730264Y-125833501D01*
X71790602Y-125979172D01*
X71790609Y-125979185D01*
X71878210Y-126110288D01*
X71878213Y-126110292D01*
X71989707Y-126221786D01*
X71989711Y-126221789D01*
X72120814Y-126309390D01*
X72120827Y-126309397D01*
X72266498Y-126369735D01*
X72266503Y-126369737D01*
X72421153Y-126400499D01*
X72421156Y-126400500D01*
X72421158Y-126400500D01*
X72578844Y-126400500D01*
X72578845Y-126400499D01*
X72733497Y-126369737D01*
X72879179Y-126309394D01*
X73010289Y-126221789D01*
X73121789Y-126110289D01*
X73209394Y-125979179D01*
X73269737Y-125833497D01*
X73300500Y-125678842D01*
X73300500Y-125521158D01*
X73300500Y-125521155D01*
X73300499Y-125521153D01*
X73269738Y-125366510D01*
X73269737Y-125366503D01*
X73269735Y-125366498D01*
X73209397Y-125220827D01*
X73209390Y-125220814D01*
X73121789Y-125089711D01*
X73121786Y-125089707D01*
X73010292Y-124978213D01*
X73010288Y-124978210D01*
X72879185Y-124890609D01*
X72879172Y-124890602D01*
X72733501Y-124830264D01*
X72733489Y-124830261D01*
X72578845Y-124799500D01*
X72578842Y-124799500D01*
X72421158Y-124799500D01*
X72421155Y-124799500D01*
X72266510Y-124830261D01*
X72266498Y-124830264D01*
X72120827Y-124890602D01*
X72120814Y-124890609D01*
X71989711Y-124978210D01*
X71989707Y-124978213D01*
X71878213Y-125089707D01*
X71878210Y-125089711D01*
X71790609Y-125220814D01*
X71790602Y-125220827D01*
X71730264Y-125366498D01*
X71730261Y-125366510D01*
X71699500Y-125521153D01*
X25224903Y-125521153D01*
X25379418Y-121671153D01*
X46449500Y-121671153D01*
X46449500Y-121828846D01*
X46480261Y-121983489D01*
X46480264Y-121983501D01*
X46540602Y-122129172D01*
X46540609Y-122129185D01*
X46628210Y-122260288D01*
X46628213Y-122260292D01*
X46739707Y-122371786D01*
X46739711Y-122371789D01*
X46870814Y-122459390D01*
X46870827Y-122459397D01*
X46970060Y-122500500D01*
X47016503Y-122519737D01*
X47171153Y-122550499D01*
X47171156Y-122550500D01*
X47171158Y-122550500D01*
X47328844Y-122550500D01*
X47328845Y-122550499D01*
X47483497Y-122519737D01*
X47616316Y-122464722D01*
X47629172Y-122459397D01*
X47629172Y-122459396D01*
X47629179Y-122459394D01*
X47760289Y-122371789D01*
X47871789Y-122260289D01*
X47959394Y-122129179D01*
X48019737Y-121983497D01*
X48044205Y-121860491D01*
X48050638Y-121828150D01*
X48083023Y-121766239D01*
X48084518Y-121764716D01*
X48928081Y-120921153D01*
X71699500Y-120921153D01*
X71699500Y-121078846D01*
X71730261Y-121233489D01*
X71730264Y-121233501D01*
X71790602Y-121379172D01*
X71790609Y-121379185D01*
X71878210Y-121510288D01*
X71878213Y-121510292D01*
X71989707Y-121621786D01*
X71989711Y-121621789D01*
X72120814Y-121709390D01*
X72120827Y-121709397D01*
X72254246Y-121764660D01*
X72266503Y-121769737D01*
X72412285Y-121798735D01*
X72421153Y-121800499D01*
X72421156Y-121800500D01*
X72421158Y-121800500D01*
X72578844Y-121800500D01*
X72578845Y-121800499D01*
X72733497Y-121769737D01*
X72879179Y-121709394D01*
X73010289Y-121621789D01*
X73121789Y-121510289D01*
X73209394Y-121379179D01*
X73212854Y-121370827D01*
X73267163Y-121239711D01*
X73269737Y-121233497D01*
X73300500Y-121078842D01*
X73300500Y-120921158D01*
X73300500Y-120921155D01*
X73300499Y-120921153D01*
X73269738Y-120766510D01*
X73269737Y-120766503D01*
X73226572Y-120662292D01*
X73209397Y-120620827D01*
X73209390Y-120620814D01*
X73121789Y-120489711D01*
X73121786Y-120489707D01*
X73010292Y-120378213D01*
X73010288Y-120378210D01*
X72879185Y-120290609D01*
X72879172Y-120290602D01*
X72733501Y-120230264D01*
X72733489Y-120230261D01*
X72578845Y-120199500D01*
X72578842Y-120199500D01*
X72421158Y-120199500D01*
X72421155Y-120199500D01*
X72266510Y-120230261D01*
X72266498Y-120230264D01*
X72120827Y-120290602D01*
X72120814Y-120290609D01*
X71989711Y-120378210D01*
X71989707Y-120378213D01*
X71878213Y-120489707D01*
X71878210Y-120489711D01*
X71790609Y-120620814D01*
X71790602Y-120620827D01*
X71730264Y-120766498D01*
X71730261Y-120766510D01*
X71699500Y-120921153D01*
X48928081Y-120921153D01*
X49897099Y-119952135D01*
X98547000Y-119952135D01*
X98547000Y-122047870D01*
X98547001Y-122047876D01*
X98553408Y-122107483D01*
X98603702Y-122242328D01*
X98603706Y-122242335D01*
X98689952Y-122357544D01*
X98689955Y-122357547D01*
X98805164Y-122443793D01*
X98805171Y-122443797D01*
X98940017Y-122494091D01*
X98940016Y-122494091D01*
X98946944Y-122494835D01*
X98999627Y-122500500D01*
X101000372Y-122500499D01*
X101059983Y-122494091D01*
X101194831Y-122443796D01*
X101310046Y-122357546D01*
X101396296Y-122242331D01*
X101406872Y-122213974D01*
X101448740Y-122158041D01*
X101514204Y-122133622D01*
X101582477Y-122148472D01*
X101595940Y-122156988D01*
X101778723Y-122289788D01*
X101982429Y-122393582D01*
X102199871Y-122464234D01*
X102290000Y-122478509D01*
X102290000Y-121490747D01*
X102327708Y-121512518D01*
X102467591Y-121550000D01*
X102612409Y-121550000D01*
X102752292Y-121512518D01*
X102790000Y-121490747D01*
X102790000Y-122478508D01*
X102880128Y-122464234D01*
X103097570Y-122393582D01*
X103301276Y-122289788D01*
X103486242Y-122155402D01*
X103647905Y-121993739D01*
X103709371Y-121909137D01*
X103764701Y-121866470D01*
X103834314Y-121860491D01*
X103896109Y-121893096D01*
X103910007Y-121909134D01*
X103971714Y-121994066D01*
X104133434Y-122155786D01*
X104318462Y-122290217D01*
X104478556Y-122371789D01*
X104522244Y-122394049D01*
X104739751Y-122464721D01*
X104739752Y-122464721D01*
X104739755Y-122464722D01*
X104965646Y-122500500D01*
X104965647Y-122500500D01*
X105194353Y-122500500D01*
X105194354Y-122500500D01*
X105420245Y-122464722D01*
X105420248Y-122464721D01*
X105420249Y-122464721D01*
X105637755Y-122394049D01*
X105637755Y-122394048D01*
X105637758Y-122394048D01*
X105841538Y-122290217D01*
X106026566Y-122155786D01*
X106188286Y-121994066D01*
X106322717Y-121809038D01*
X106426548Y-121605258D01*
X106497222Y-121387745D01*
X106533000Y-121161854D01*
X106533000Y-120838146D01*
X106497222Y-120612255D01*
X106497221Y-120612251D01*
X106497221Y-120612250D01*
X106426549Y-120394744D01*
X106418125Y-120378211D01*
X106322717Y-120190962D01*
X106188286Y-120005934D01*
X106026566Y-119844214D01*
X105841538Y-119709783D01*
X105637755Y-119605950D01*
X105420248Y-119535278D01*
X105234812Y-119505908D01*
X105194354Y-119499500D01*
X104965646Y-119499500D01*
X104925188Y-119505908D01*
X104739753Y-119535278D01*
X104739750Y-119535278D01*
X104522244Y-119605950D01*
X104318461Y-119709783D01*
X104238039Y-119768214D01*
X104133434Y-119844214D01*
X104133432Y-119844216D01*
X104133431Y-119844216D01*
X103971716Y-120005931D01*
X103971709Y-120005940D01*
X103910007Y-120090864D01*
X103854677Y-120133530D01*
X103785063Y-120139508D01*
X103723269Y-120106901D01*
X103709372Y-120090863D01*
X103647907Y-120006263D01*
X103647902Y-120006257D01*
X103486242Y-119844597D01*
X103301276Y-119710211D01*
X103097568Y-119606417D01*
X102880124Y-119535765D01*
X102790000Y-119521490D01*
X102790000Y-120509252D01*
X102752292Y-120487482D01*
X102612409Y-120450000D01*
X102467591Y-120450000D01*
X102327708Y-120487482D01*
X102290000Y-120509252D01*
X102290000Y-119521490D01*
X102289999Y-119521490D01*
X102199875Y-119535765D01*
X101982431Y-119606417D01*
X101778719Y-119710213D01*
X101595939Y-119843010D01*
X101530132Y-119866490D01*
X101462079Y-119850664D01*
X101413384Y-119800558D01*
X101406875Y-119786033D01*
X101396296Y-119757669D01*
X101396295Y-119757667D01*
X101396293Y-119757664D01*
X101310047Y-119642455D01*
X101310044Y-119642452D01*
X101194835Y-119556206D01*
X101194828Y-119556202D01*
X101059982Y-119505908D01*
X101059983Y-119505908D01*
X101000383Y-119499501D01*
X101000381Y-119499500D01*
X101000373Y-119499500D01*
X101000365Y-119499500D01*
X100724500Y-119499500D01*
X100657461Y-119479815D01*
X100611706Y-119427011D01*
X100600500Y-119375500D01*
X100600500Y-115383053D01*
X100620185Y-115316014D01*
X100636814Y-115295377D01*
X102089792Y-113842398D01*
X102151115Y-113808914D01*
X102220807Y-113813898D01*
X102276740Y-113855770D01*
X102287181Y-113874105D01*
X102287736Y-113873809D01*
X102290609Y-113879185D01*
X102378210Y-114010288D01*
X102378213Y-114010292D01*
X102489707Y-114121786D01*
X102489711Y-114121789D01*
X102620814Y-114209390D01*
X102620827Y-114209397D01*
X102766498Y-114269735D01*
X102766503Y-114269737D01*
X102831147Y-114282595D01*
X102921849Y-114300638D01*
X102983760Y-114333023D01*
X102985338Y-114334573D01*
X119131284Y-130480520D01*
X119131286Y-130480521D01*
X119131290Y-130480524D01*
X119268209Y-130559573D01*
X119268216Y-130559577D01*
X119420943Y-130600501D01*
X119420945Y-130600501D01*
X119586654Y-130600501D01*
X119586670Y-130600500D01*
X129275500Y-130600500D01*
X129342539Y-130620185D01*
X129388294Y-130672989D01*
X129399500Y-130724500D01*
X129399500Y-131913330D01*
X129399499Y-131913348D01*
X129399499Y-132079054D01*
X129399498Y-132079054D01*
X129440423Y-132231785D01*
X129469358Y-132281900D01*
X129469359Y-132281904D01*
X129469360Y-132281904D01*
X129519479Y-132368714D01*
X129519481Y-132368717D01*
X129638349Y-132487585D01*
X129638354Y-132487589D01*
X135131284Y-137980520D01*
X135131286Y-137980521D01*
X135131290Y-137980524D01*
X135268209Y-138059573D01*
X135268216Y-138059577D01*
X135420943Y-138100501D01*
X135420945Y-138100501D01*
X135586654Y-138100501D01*
X135586670Y-138100500D01*
X151913331Y-138100500D01*
X151913347Y-138100501D01*
X151920943Y-138100501D01*
X152079054Y-138100501D01*
X152079057Y-138100501D01*
X152231785Y-138059577D01*
X152281904Y-138030639D01*
X152368716Y-137980520D01*
X152480520Y-137868716D01*
X152480520Y-137868714D01*
X152490728Y-137858507D01*
X152490729Y-137858504D01*
X156430713Y-133918521D01*
X156492034Y-133885038D01*
X156494201Y-133884587D01*
X156552136Y-133873062D01*
X156649548Y-133853686D01*
X156795230Y-133793343D01*
X156926340Y-133705738D01*
X157037840Y-133594238D01*
X157125445Y-133463128D01*
X157185788Y-133317446D01*
X157216551Y-133162791D01*
X157216551Y-133005107D01*
X157216551Y-133005104D01*
X157216550Y-133005102D01*
X157185789Y-132850459D01*
X157185789Y-132850457D01*
X157185788Y-132850452D01*
X157185786Y-132850447D01*
X157125448Y-132704776D01*
X157125441Y-132704763D01*
X157037840Y-132573660D01*
X157037837Y-132573656D01*
X156926343Y-132462162D01*
X156926339Y-132462159D01*
X156795236Y-132374558D01*
X156795223Y-132374551D01*
X156649552Y-132314213D01*
X156649540Y-132314210D01*
X156494896Y-132283449D01*
X156494893Y-132283449D01*
X156337209Y-132283449D01*
X156337206Y-132283449D01*
X156182561Y-132314210D01*
X156182549Y-132314213D01*
X156036878Y-132374551D01*
X156036865Y-132374558D01*
X155905762Y-132462159D01*
X155905758Y-132462162D01*
X155794264Y-132573656D01*
X155794261Y-132573660D01*
X155706660Y-132704763D01*
X155706653Y-132704776D01*
X155646315Y-132850447D01*
X155646312Y-132850457D01*
X155615412Y-133005799D01*
X155583027Y-133067710D01*
X155581476Y-133069288D01*
X151787584Y-136863181D01*
X151726261Y-136896666D01*
X151699903Y-136899500D01*
X135800098Y-136899500D01*
X135733059Y-136879815D01*
X135712417Y-136863181D01*
X130636819Y-131787583D01*
X130603334Y-131726260D01*
X130600500Y-131699902D01*
X130600500Y-129920945D01*
X130600500Y-129920943D01*
X130559577Y-129768216D01*
X130486403Y-129641473D01*
X130480524Y-129631290D01*
X130480518Y-129631282D01*
X130368717Y-129519481D01*
X130368709Y-129519475D01*
X130231790Y-129440426D01*
X130231786Y-129440424D01*
X130231784Y-129440423D01*
X130079057Y-129399500D01*
X130079056Y-129399500D01*
X119800098Y-129399500D01*
X119733059Y-129379815D01*
X119712417Y-129363181D01*
X114270389Y-123921153D01*
X129699500Y-123921153D01*
X129699500Y-124078846D01*
X129730261Y-124233489D01*
X129730264Y-124233501D01*
X129790602Y-124379172D01*
X129790609Y-124379185D01*
X129878210Y-124510288D01*
X129878213Y-124510292D01*
X129989707Y-124621786D01*
X129989711Y-124621789D01*
X130120814Y-124709390D01*
X130120827Y-124709397D01*
X130266498Y-124769735D01*
X130266503Y-124769737D01*
X130331147Y-124782595D01*
X130421849Y-124800638D01*
X130483760Y-124833023D01*
X130485339Y-124834574D01*
X135166241Y-129515476D01*
X135199726Y-129576799D01*
X135196492Y-129641473D01*
X135182753Y-129683757D01*
X135149500Y-129893713D01*
X135149500Y-130106287D01*
X135182754Y-130316243D01*
X135239117Y-130489711D01*
X135248444Y-130518414D01*
X135344951Y-130707820D01*
X135469890Y-130879786D01*
X135620213Y-131030109D01*
X135792179Y-131155048D01*
X135792181Y-131155049D01*
X135792184Y-131155051D01*
X135981588Y-131251557D01*
X136183757Y-131317246D01*
X136393713Y-131350500D01*
X136393714Y-131350500D01*
X136606286Y-131350500D01*
X136606287Y-131350500D01*
X136816243Y-131317246D01*
X137018412Y-131251557D01*
X137207816Y-131155051D01*
X137312707Y-131078844D01*
X137379786Y-131030109D01*
X137379788Y-131030106D01*
X137379792Y-131030104D01*
X137530104Y-130879792D01*
X137530106Y-130879788D01*
X137530109Y-130879786D01*
X137655048Y-130707820D01*
X137655047Y-130707820D01*
X137655051Y-130707816D01*
X137751557Y-130518412D01*
X137817246Y-130316243D01*
X137850500Y-130106287D01*
X137850500Y-129893713D01*
X137817246Y-129683757D01*
X137751557Y-129481588D01*
X137655051Y-129292184D01*
X137655049Y-129292181D01*
X137655048Y-129292179D01*
X137530109Y-129120213D01*
X137379786Y-128969890D01*
X137207817Y-128844949D01*
X137198504Y-128840204D01*
X137147707Y-128792230D01*
X137130912Y-128724409D01*
X137153449Y-128658274D01*
X137198507Y-128619232D01*
X137207555Y-128614622D01*
X137261716Y-128575270D01*
X137261717Y-128575270D01*
X136629408Y-127942962D01*
X136692993Y-127925925D01*
X136807007Y-127860099D01*
X136900099Y-127767007D01*
X136965925Y-127652993D01*
X136982962Y-127589408D01*
X137615270Y-128221717D01*
X137615270Y-128221716D01*
X137654622Y-128167554D01*
X137751095Y-127978217D01*
X137816757Y-127776130D01*
X137816757Y-127776127D01*
X137850000Y-127566246D01*
X137850000Y-127353753D01*
X137816757Y-127143872D01*
X137816757Y-127143869D01*
X137751095Y-126941782D01*
X137654624Y-126752449D01*
X137615270Y-126698282D01*
X137615269Y-126698282D01*
X136982962Y-127330590D01*
X136965925Y-127267007D01*
X136900099Y-127152993D01*
X136807007Y-127059901D01*
X136692993Y-126994075D01*
X136629409Y-126977037D01*
X137299627Y-126306818D01*
X137360950Y-126273333D01*
X137387307Y-126270499D01*
X137397872Y-126270499D01*
X137457483Y-126264091D01*
X137592331Y-126213796D01*
X137707546Y-126127546D01*
X137793796Y-126012331D01*
X137844091Y-125877483D01*
X137850500Y-125817873D01*
X137850499Y-124022128D01*
X137844091Y-123962517D01*
X137839894Y-123951265D01*
X137793797Y-123827671D01*
X137793793Y-123827664D01*
X137707547Y-123712455D01*
X137707544Y-123712452D01*
X137592335Y-123626206D01*
X137592328Y-123626202D01*
X137457482Y-123575908D01*
X137457483Y-123575908D01*
X137397883Y-123569501D01*
X137397881Y-123569500D01*
X137397873Y-123569500D01*
X137397864Y-123569500D01*
X135602129Y-123569500D01*
X135602123Y-123569501D01*
X135542516Y-123575908D01*
X135407671Y-123626202D01*
X135407664Y-123626206D01*
X135292455Y-123712452D01*
X135292452Y-123712455D01*
X135206206Y-123827664D01*
X135206202Y-123827671D01*
X135155908Y-123962517D01*
X135153455Y-123985339D01*
X135149501Y-124022123D01*
X135149500Y-124022135D01*
X135149500Y-125817870D01*
X135149501Y-125817876D01*
X135155908Y-125877483D01*
X135206202Y-126012328D01*
X135206206Y-126012335D01*
X135292452Y-126127544D01*
X135292455Y-126127547D01*
X135407664Y-126213793D01*
X135407671Y-126213797D01*
X135429091Y-126221786D01*
X135542517Y-126264091D01*
X135602127Y-126270500D01*
X135612685Y-126270499D01*
X135679723Y-126290179D01*
X135700372Y-126306818D01*
X136370591Y-126977037D01*
X136307007Y-126994075D01*
X136192993Y-127059901D01*
X136099901Y-127152993D01*
X136034075Y-127267007D01*
X136017037Y-127330591D01*
X135384728Y-126698282D01*
X135384727Y-126698282D01*
X135345380Y-126752439D01*
X135248904Y-126941782D01*
X135183242Y-127143869D01*
X135183242Y-127143872D01*
X135150000Y-127353753D01*
X135150000Y-127501403D01*
X135130315Y-127568442D01*
X135077511Y-127614197D01*
X135008353Y-127624141D01*
X134944797Y-127595116D01*
X134938319Y-127589084D01*
X131334574Y-123985339D01*
X131301089Y-123924016D01*
X131300638Y-123921849D01*
X131269738Y-123766510D01*
X131269737Y-123766503D01*
X131247350Y-123712455D01*
X131209397Y-123620827D01*
X131209390Y-123620814D01*
X131121789Y-123489711D01*
X131121786Y-123489707D01*
X131010292Y-123378213D01*
X131010288Y-123378210D01*
X130879185Y-123290609D01*
X130879172Y-123290602D01*
X130733501Y-123230264D01*
X130733489Y-123230261D01*
X130578845Y-123199500D01*
X130578842Y-123199500D01*
X130421158Y-123199500D01*
X130421155Y-123199500D01*
X130266510Y-123230261D01*
X130266498Y-123230264D01*
X130120827Y-123290602D01*
X130120814Y-123290609D01*
X129989711Y-123378210D01*
X129989707Y-123378213D01*
X129878213Y-123489707D01*
X129878210Y-123489711D01*
X129790609Y-123620814D01*
X129790602Y-123620827D01*
X129730264Y-123766498D01*
X129730261Y-123766510D01*
X129699500Y-123921153D01*
X114270389Y-123921153D01*
X103834573Y-113485337D01*
X103825779Y-113469232D01*
X103812914Y-113456144D01*
X103802030Y-113425740D01*
X103801088Y-113424014D01*
X103800865Y-113422970D01*
X103800500Y-113421219D01*
X103800500Y-113421158D01*
X103769737Y-113266503D01*
X103766712Y-113259202D01*
X103764338Y-113247814D01*
X103766238Y-113224111D01*
X103763699Y-113200476D01*
X103768979Y-113189929D01*
X103769922Y-113178168D01*
X103784334Y-113159256D01*
X103794977Y-113137999D01*
X103805123Y-113131979D01*
X103812274Y-113122597D01*
X103834620Y-113114480D01*
X103855068Y-113102350D01*
X103874861Y-113099864D01*
X103877946Y-113098744D01*
X103880027Y-113099215D01*
X103885727Y-113098500D01*
X108348231Y-113098500D01*
X108348247Y-113098501D01*
X108355843Y-113098501D01*
X108513954Y-113098501D01*
X108513957Y-113098501D01*
X108666685Y-113057577D01*
X108716804Y-113028639D01*
X108803616Y-112978520D01*
X108915420Y-112866716D01*
X108915420Y-112866714D01*
X108925628Y-112856507D01*
X108925629Y-112856504D01*
X113879520Y-107902616D01*
X113958577Y-107765684D01*
X113995725Y-107627045D01*
X114032091Y-107567387D01*
X114094938Y-107536858D01*
X114164313Y-107545153D01*
X114218191Y-107589639D01*
X114239465Y-107656191D01*
X114239500Y-107659141D01*
X114239500Y-114775500D01*
X114219815Y-114842539D01*
X114167011Y-114888294D01*
X114115500Y-114899500D01*
X113939982Y-114899500D01*
X113837203Y-114910000D01*
X113837202Y-114910001D01*
X113754669Y-114937349D01*
X113670667Y-114965185D01*
X113670662Y-114965187D01*
X113521342Y-115057289D01*
X113397289Y-115181342D01*
X113305187Y-115330662D01*
X113305185Y-115330667D01*
X113287826Y-115383053D01*
X113250001Y-115497202D01*
X113250001Y-115497203D01*
X113250000Y-115497203D01*
X113239500Y-115599982D01*
X113239500Y-117400017D01*
X113250000Y-117502796D01*
X113305185Y-117669332D01*
X113305187Y-117669337D01*
X113336926Y-117720793D01*
X113397288Y-117818656D01*
X113521344Y-117942712D01*
X113670665Y-118034814D01*
X113837202Y-118089999D01*
X113939990Y-118100500D01*
X113939995Y-118100500D01*
X115740005Y-118100500D01*
X115740010Y-118100500D01*
X115842798Y-118089999D01*
X116009335Y-118034814D01*
X116158656Y-117942712D01*
X116282712Y-117818656D01*
X116374814Y-117669335D01*
X116429999Y-117502798D01*
X116440500Y-117400010D01*
X116440500Y-116374038D01*
X123399500Y-116374038D01*
X123399500Y-116625961D01*
X123438910Y-116874785D01*
X123516760Y-117114383D01*
X123631132Y-117338848D01*
X123779201Y-117542649D01*
X123779205Y-117542654D01*
X123957345Y-117720794D01*
X123957350Y-117720798D01*
X124135117Y-117849952D01*
X124161155Y-117868870D01*
X124300088Y-117939660D01*
X124385616Y-117983239D01*
X124385618Y-117983239D01*
X124385621Y-117983241D01*
X124625215Y-118061090D01*
X124874038Y-118100500D01*
X124874039Y-118100500D01*
X125125961Y-118100500D01*
X125125962Y-118100500D01*
X125374785Y-118061090D01*
X125556928Y-118001907D01*
X125626764Y-117999912D01*
X125682923Y-118032158D01*
X126015139Y-118364374D01*
X126015149Y-118364385D01*
X126019479Y-118368715D01*
X126019480Y-118368716D01*
X126131284Y-118480520D01*
X126131286Y-118480521D01*
X126131290Y-118480524D01*
X126242860Y-118544938D01*
X126268216Y-118559577D01*
X126380019Y-118589534D01*
X126420942Y-118600500D01*
X126420943Y-118600500D01*
X131199903Y-118600500D01*
X131266942Y-118620185D01*
X131287583Y-118636818D01*
X132131284Y-119480520D01*
X132131286Y-119480521D01*
X132131290Y-119480524D01*
X132226972Y-119535765D01*
X132268216Y-119559577D01*
X132420943Y-119600501D01*
X132420945Y-119600501D01*
X132586654Y-119600501D01*
X132586670Y-119600500D01*
X144199903Y-119600500D01*
X144266942Y-119620185D01*
X144287584Y-119636819D01*
X144863181Y-120212416D01*
X144896666Y-120273739D01*
X144899500Y-120300097D01*
X144899500Y-130420234D01*
X144879815Y-130487273D01*
X144878602Y-130489125D01*
X144790609Y-130620814D01*
X144790602Y-130620827D01*
X144730264Y-130766498D01*
X144730261Y-130766510D01*
X144699500Y-130921153D01*
X144699500Y-131078846D01*
X144730261Y-131233489D01*
X144730264Y-131233501D01*
X144790602Y-131379172D01*
X144790609Y-131379185D01*
X144878210Y-131510288D01*
X144878213Y-131510292D01*
X144989707Y-131621786D01*
X144989711Y-131621789D01*
X145120814Y-131709390D01*
X145120827Y-131709397D01*
X145266498Y-131769735D01*
X145266503Y-131769737D01*
X145421153Y-131800499D01*
X145421156Y-131800500D01*
X145421158Y-131800500D01*
X145578844Y-131800500D01*
X145578845Y-131800499D01*
X145733497Y-131769737D01*
X145879179Y-131709394D01*
X146010289Y-131621789D01*
X146121789Y-131510289D01*
X146209394Y-131379179D01*
X146269737Y-131233497D01*
X146300500Y-131078842D01*
X146300500Y-130921158D01*
X146300500Y-130921155D01*
X146300499Y-130921153D01*
X146292272Y-130879792D01*
X146269737Y-130766503D01*
X146231003Y-130672989D01*
X146209397Y-130620827D01*
X146209390Y-130620814D01*
X146121398Y-130489125D01*
X146100520Y-130422447D01*
X146100500Y-130420234D01*
X146100500Y-120089060D01*
X146100501Y-120089047D01*
X146100501Y-119920944D01*
X146081669Y-119850664D01*
X146059577Y-119768216D01*
X146053485Y-119757664D01*
X145980524Y-119631290D01*
X145980518Y-119631282D01*
X144987590Y-118638355D01*
X144987588Y-118638352D01*
X144868717Y-118519481D01*
X144868716Y-118519480D01*
X144781904Y-118469360D01*
X144781904Y-118469359D01*
X144781900Y-118469358D01*
X144731785Y-118440423D01*
X144579057Y-118399499D01*
X144420943Y-118399499D01*
X144413347Y-118399499D01*
X144413331Y-118399500D01*
X132800098Y-118399500D01*
X132733059Y-118379815D01*
X132712417Y-118363181D01*
X131987590Y-117638355D01*
X131987588Y-117638352D01*
X131868717Y-117519481D01*
X131868716Y-117519480D01*
X131781904Y-117469360D01*
X131781904Y-117469359D01*
X131781900Y-117469358D01*
X131731785Y-117440423D01*
X131579057Y-117399499D01*
X131420943Y-117399499D01*
X131413347Y-117399499D01*
X131413331Y-117399500D01*
X126800097Y-117399500D01*
X126733058Y-117379815D01*
X126712416Y-117363181D01*
X126532158Y-117182923D01*
X126498673Y-117121600D01*
X126501907Y-117056928D01*
X126561090Y-116874785D01*
X126600500Y-116625962D01*
X126600500Y-116374038D01*
X126561090Y-116125215D01*
X126483241Y-115885621D01*
X126483239Y-115885618D01*
X126483239Y-115885616D01*
X126441747Y-115804184D01*
X126368870Y-115661155D01*
X126324425Y-115599982D01*
X126220798Y-115457350D01*
X126220794Y-115457345D01*
X126042654Y-115279205D01*
X126042649Y-115279201D01*
X125838848Y-115131132D01*
X125838847Y-115131131D01*
X125838845Y-115131130D01*
X125768747Y-115095413D01*
X125614383Y-115016760D01*
X125374785Y-114938910D01*
X125125962Y-114899500D01*
X124874038Y-114899500D01*
X124807738Y-114910001D01*
X124625214Y-114938910D01*
X124385616Y-115016760D01*
X124161151Y-115131132D01*
X123957350Y-115279201D01*
X123957345Y-115279205D01*
X123779205Y-115457345D01*
X123779201Y-115457350D01*
X123631132Y-115661151D01*
X123516760Y-115885616D01*
X123438910Y-116125214D01*
X123399500Y-116374038D01*
X116440500Y-116374038D01*
X116440500Y-115599990D01*
X116429999Y-115497202D01*
X116374814Y-115330665D01*
X116282712Y-115181344D01*
X116158656Y-115057288D01*
X116009335Y-114965186D01*
X115842798Y-114910001D01*
X115842796Y-114910000D01*
X115740017Y-114899500D01*
X115740010Y-114899500D01*
X115564500Y-114899500D01*
X115497461Y-114879815D01*
X115451706Y-114827011D01*
X115440500Y-114775500D01*
X115440500Y-109592482D01*
X139319500Y-109592482D01*
X139319500Y-111392517D01*
X139330000Y-111495296D01*
X139385185Y-111661832D01*
X139385187Y-111661837D01*
X139402004Y-111689101D01*
X139477288Y-111811156D01*
X139601344Y-111935212D01*
X139750665Y-112027314D01*
X139917202Y-112082499D01*
X140019990Y-112093000D01*
X140019995Y-112093000D01*
X141820005Y-112093000D01*
X141820010Y-112093000D01*
X141922798Y-112082499D01*
X142089335Y-112027314D01*
X142238656Y-111935212D01*
X142362712Y-111811156D01*
X142454814Y-111661835D01*
X142509999Y-111495298D01*
X142520500Y-111392510D01*
X142520500Y-110366538D01*
X149479500Y-110366538D01*
X149479500Y-110618461D01*
X149518910Y-110867285D01*
X149596760Y-111106883D01*
X149649685Y-111210752D01*
X149694060Y-111297844D01*
X149711132Y-111331348D01*
X149859201Y-111535149D01*
X149859205Y-111535154D01*
X150037345Y-111713294D01*
X150037350Y-111713298D01*
X150215117Y-111842452D01*
X150241155Y-111861370D01*
X150384184Y-111934247D01*
X150465616Y-111975739D01*
X150465618Y-111975739D01*
X150465621Y-111975741D01*
X150705215Y-112053590D01*
X150954038Y-112093000D01*
X150954039Y-112093000D01*
X151205961Y-112093000D01*
X151205962Y-112093000D01*
X151454785Y-112053590D01*
X151694379Y-111975741D01*
X151918845Y-111861370D01*
X152122656Y-111713293D01*
X152300793Y-111535156D01*
X152448870Y-111331345D01*
X152563241Y-111106879D01*
X152641090Y-110867285D01*
X152680500Y-110618462D01*
X152680500Y-110366538D01*
X152641090Y-110117715D01*
X152563241Y-109878121D01*
X152563239Y-109878118D01*
X152563239Y-109878116D01*
X152517952Y-109789237D01*
X152448870Y-109653655D01*
X152404425Y-109592482D01*
X152300798Y-109449850D01*
X152300794Y-109449845D01*
X152122654Y-109271705D01*
X152122649Y-109271701D01*
X151918848Y-109123632D01*
X151918847Y-109123631D01*
X151918845Y-109123630D01*
X151848747Y-109087913D01*
X151694383Y-109009260D01*
X151454785Y-108931410D01*
X151205962Y-108892000D01*
X150954038Y-108892000D01*
X150887738Y-108902501D01*
X150705214Y-108931410D01*
X150465616Y-109009260D01*
X150241151Y-109123632D01*
X150037350Y-109271701D01*
X150037345Y-109271705D01*
X149859205Y-109449845D01*
X149859201Y-109449850D01*
X149711132Y-109653651D01*
X149596760Y-109878116D01*
X149518910Y-110117714D01*
X149479500Y-110366538D01*
X142520500Y-110366538D01*
X142520500Y-109592490D01*
X142509999Y-109489702D01*
X142454814Y-109323165D01*
X142362712Y-109173844D01*
X142238656Y-109049788D01*
X142089335Y-108957686D01*
X141922798Y-108902501D01*
X141922796Y-108902500D01*
X141820017Y-108892000D01*
X141820010Y-108892000D01*
X140019990Y-108892000D01*
X140019982Y-108892000D01*
X139917203Y-108902500D01*
X139917202Y-108902501D01*
X139834669Y-108929849D01*
X139750667Y-108957685D01*
X139750662Y-108957687D01*
X139601342Y-109049789D01*
X139477289Y-109173842D01*
X139385187Y-109323162D01*
X139385185Y-109323167D01*
X139370921Y-109366213D01*
X139330001Y-109489702D01*
X139330001Y-109489703D01*
X139330000Y-109489703D01*
X139319500Y-109592482D01*
X115440500Y-109592482D01*
X115440500Y-102921153D01*
X118199500Y-102921153D01*
X118199500Y-103078846D01*
X118230261Y-103233489D01*
X118230264Y-103233501D01*
X118290602Y-103379172D01*
X118290609Y-103379185D01*
X118378210Y-103510288D01*
X118378213Y-103510292D01*
X118489707Y-103621786D01*
X118489711Y-103621789D01*
X118620814Y-103709390D01*
X118620827Y-103709397D01*
X118752918Y-103764110D01*
X118766503Y-103769737D01*
X118831147Y-103782595D01*
X118921849Y-103800638D01*
X118983760Y-103833023D01*
X118985339Y-103834574D01*
X121863181Y-106712416D01*
X121877884Y-106739343D01*
X121894477Y-106765162D01*
X121895368Y-106771362D01*
X121896666Y-106773739D01*
X121899500Y-106800097D01*
X121899500Y-106920234D01*
X121879815Y-106987273D01*
X121878602Y-106989125D01*
X121790609Y-107120814D01*
X121790602Y-107120827D01*
X121730264Y-107266498D01*
X121730261Y-107266510D01*
X121699500Y-107421153D01*
X121699500Y-107578846D01*
X121730261Y-107733489D01*
X121730264Y-107733501D01*
X121790602Y-107879172D01*
X121790609Y-107879185D01*
X121878210Y-108010288D01*
X121878213Y-108010292D01*
X121989707Y-108121786D01*
X121989711Y-108121789D01*
X122120814Y-108209390D01*
X122120827Y-108209397D01*
X122266498Y-108269735D01*
X122266503Y-108269737D01*
X122421153Y-108300499D01*
X122421156Y-108300500D01*
X122421158Y-108300500D01*
X122578844Y-108300500D01*
X122578845Y-108300499D01*
X122733497Y-108269737D01*
X122879179Y-108209394D01*
X123010289Y-108121789D01*
X123121789Y-108010289D01*
X123209394Y-107879179D01*
X123269737Y-107733497D01*
X123300500Y-107578842D01*
X123300500Y-107421158D01*
X123300500Y-107421155D01*
X123300499Y-107421153D01*
X123274531Y-107290606D01*
X123269737Y-107266503D01*
X123256192Y-107233802D01*
X123209397Y-107120827D01*
X123209390Y-107120814D01*
X123121398Y-106989125D01*
X123100520Y-106922447D01*
X123100500Y-106920234D01*
X123100500Y-106420945D01*
X123100500Y-106420943D01*
X123059577Y-106268216D01*
X123025618Y-106209397D01*
X122980524Y-106131290D01*
X122980521Y-106131286D01*
X122980520Y-106131284D01*
X122868716Y-106019480D01*
X122868715Y-106019479D01*
X122864385Y-106015149D01*
X122864374Y-106015139D01*
X119834574Y-102985339D01*
X119801089Y-102924016D01*
X119800638Y-102921849D01*
X119769738Y-102766510D01*
X119769737Y-102766503D01*
X119769735Y-102766498D01*
X119709397Y-102620827D01*
X119709390Y-102620814D01*
X119621789Y-102489711D01*
X119621786Y-102489707D01*
X119510292Y-102378213D01*
X119510288Y-102378210D01*
X119379185Y-102290609D01*
X119379172Y-102290602D01*
X119233501Y-102230264D01*
X119233489Y-102230261D01*
X119078845Y-102199500D01*
X119078842Y-102199500D01*
X118921158Y-102199500D01*
X118921155Y-102199500D01*
X118766510Y-102230261D01*
X118766498Y-102230264D01*
X118620827Y-102290602D01*
X118620814Y-102290609D01*
X118489711Y-102378210D01*
X118489707Y-102378213D01*
X118378213Y-102489707D01*
X118378210Y-102489711D01*
X118290609Y-102620814D01*
X118290602Y-102620827D01*
X118230264Y-102766498D01*
X118230261Y-102766510D01*
X118199500Y-102921153D01*
X115440500Y-102921153D01*
X115440500Y-97579116D01*
X115440501Y-97579103D01*
X115440501Y-97411002D01*
X115440501Y-97411000D01*
X115399577Y-97258272D01*
X115355610Y-97182120D01*
X115320520Y-97121341D01*
X115208716Y-97009537D01*
X115208715Y-97009536D01*
X115204385Y-97005206D01*
X115204374Y-97005196D01*
X114736533Y-96537355D01*
X114736531Y-96537352D01*
X114617660Y-96418481D01*
X114617652Y-96418475D01*
X114499795Y-96350431D01*
X114499794Y-96350430D01*
X114486392Y-96342693D01*
X114480728Y-96339423D01*
X114328000Y-96298499D01*
X114169886Y-96298499D01*
X114162290Y-96298499D01*
X114162274Y-96298500D01*
X113837727Y-96298500D01*
X113837711Y-96298499D01*
X113830115Y-96298499D01*
X113672000Y-96298499D01*
X113541231Y-96333539D01*
X113519268Y-96339424D01*
X113382344Y-96418477D01*
X113382339Y-96418481D01*
X113023217Y-96777603D01*
X113023214Y-96777605D01*
X113023215Y-96777606D01*
X112918478Y-96882343D01*
X112918475Y-96882347D01*
X112884947Y-96940421D01*
X112884946Y-96940423D01*
X112847400Y-97005453D01*
X112796833Y-97053668D01*
X112728226Y-97066890D01*
X112663361Y-97040922D01*
X112636913Y-97012344D01*
X112621791Y-96989713D01*
X112621786Y-96989707D01*
X112510292Y-96878213D01*
X112510288Y-96878210D01*
X112379185Y-96790609D01*
X112379172Y-96790602D01*
X112233501Y-96730264D01*
X112233489Y-96730261D01*
X112078845Y-96699500D01*
X112078842Y-96699500D01*
X111921158Y-96699500D01*
X111921155Y-96699500D01*
X111766510Y-96730261D01*
X111766498Y-96730264D01*
X111620827Y-96790602D01*
X111620814Y-96790609D01*
X111489711Y-96878210D01*
X111489707Y-96878213D01*
X111378213Y-96989707D01*
X111378210Y-96989711D01*
X111290609Y-97120814D01*
X111290602Y-97120827D01*
X111230264Y-97266498D01*
X111230261Y-97266510D01*
X111199500Y-97421153D01*
X111199500Y-97578846D01*
X111230261Y-97733489D01*
X111230264Y-97733501D01*
X111290602Y-97879172D01*
X111290609Y-97879185D01*
X111378210Y-98010288D01*
X111378213Y-98010292D01*
X111489707Y-98121786D01*
X111489711Y-98121789D01*
X111620814Y-98209390D01*
X111620827Y-98209397D01*
X111700826Y-98242533D01*
X111766503Y-98269737D01*
X111799691Y-98276338D01*
X111861600Y-98308721D01*
X111896176Y-98369436D01*
X111899500Y-98397955D01*
X111899500Y-104920234D01*
X111879815Y-104987273D01*
X111878602Y-104989125D01*
X111790609Y-105120814D01*
X111790602Y-105120827D01*
X111730264Y-105266498D01*
X111730261Y-105266510D01*
X111699500Y-105421153D01*
X111699500Y-105578846D01*
X111730261Y-105733489D01*
X111730264Y-105733501D01*
X111790602Y-105879172D01*
X111790609Y-105879185D01*
X111878210Y-106010288D01*
X111878213Y-106010292D01*
X111989707Y-106121786D01*
X111989711Y-106121789D01*
X112120814Y-106209390D01*
X112120827Y-106209397D01*
X112262814Y-106268209D01*
X112266503Y-106269737D01*
X112380995Y-106292511D01*
X112421153Y-106300499D01*
X112421156Y-106300500D01*
X112421158Y-106300500D01*
X112578843Y-106300500D01*
X112595958Y-106297095D01*
X112650309Y-106286284D01*
X112719899Y-106292511D01*
X112775077Y-106335373D01*
X112798322Y-106401262D01*
X112798500Y-106407901D01*
X112798500Y-107233802D01*
X112778815Y-107300841D01*
X112762181Y-107321483D01*
X108222484Y-111861181D01*
X108161161Y-111894666D01*
X108134803Y-111897500D01*
X102664014Y-111897500D01*
X102505899Y-111897500D01*
X102353172Y-111938423D01*
X102353171Y-111938423D01*
X102353169Y-111938424D01*
X102353166Y-111938425D01*
X102303053Y-111967359D01*
X102303052Y-111967360D01*
X102288536Y-111975741D01*
X102216242Y-112017479D01*
X102216239Y-112017481D01*
X99519479Y-114714241D01*
X99496959Y-114753248D01*
X99487440Y-114769737D01*
X99469679Y-114800500D01*
X99440423Y-114851171D01*
X99440423Y-114851172D01*
X99399499Y-115003900D01*
X99399499Y-115003902D01*
X99399499Y-115172003D01*
X99399500Y-115172016D01*
X99399500Y-119375500D01*
X99379815Y-119442539D01*
X99327011Y-119488294D01*
X99275500Y-119499500D01*
X98999630Y-119499500D01*
X98999623Y-119499501D01*
X98940016Y-119505908D01*
X98805171Y-119556202D01*
X98805164Y-119556206D01*
X98689955Y-119642452D01*
X98689952Y-119642455D01*
X98603706Y-119757664D01*
X98603702Y-119757671D01*
X98553408Y-119892517D01*
X98547001Y-119952116D01*
X98547000Y-119952135D01*
X49897099Y-119952135D01*
X52363398Y-117485837D01*
X70249500Y-117485837D01*
X70249500Y-117714162D01*
X70285215Y-117939660D01*
X70355770Y-118156803D01*
X70459421Y-118360228D01*
X70593621Y-118544937D01*
X70755063Y-118706379D01*
X70939772Y-118840579D01*
X71035884Y-118889550D01*
X71143196Y-118944229D01*
X71143198Y-118944229D01*
X71143201Y-118944231D01*
X71259592Y-118982049D01*
X71360339Y-119014784D01*
X71585838Y-119050500D01*
X71585843Y-119050500D01*
X73414162Y-119050500D01*
X73639660Y-119014784D01*
X73856799Y-118944231D01*
X74060228Y-118840579D01*
X74244937Y-118706379D01*
X74406379Y-118544937D01*
X74540579Y-118360228D01*
X74644231Y-118156799D01*
X74714784Y-117939660D01*
X74725996Y-117868870D01*
X74750500Y-117714162D01*
X74750500Y-117485837D01*
X74714784Y-117260339D01*
X74669704Y-117121600D01*
X74644231Y-117043201D01*
X74644229Y-117043198D01*
X74644229Y-117043196D01*
X74558419Y-116874785D01*
X74540579Y-116839772D01*
X74406379Y-116655063D01*
X74244937Y-116493621D01*
X74060228Y-116359421D01*
X73856803Y-116255770D01*
X73639660Y-116185215D01*
X73414162Y-116149500D01*
X73414157Y-116149500D01*
X71585843Y-116149500D01*
X71585838Y-116149500D01*
X71360339Y-116185215D01*
X71143196Y-116255770D01*
X70939771Y-116359421D01*
X70755061Y-116493622D01*
X70593622Y-116655061D01*
X70459421Y-116839771D01*
X70355770Y-117043196D01*
X70285215Y-117260339D01*
X70249500Y-117485837D01*
X52363398Y-117485837D01*
X52712416Y-117136819D01*
X52773739Y-117103334D01*
X52800097Y-117100500D01*
X63920943Y-117100500D01*
X68413331Y-117100500D01*
X68413347Y-117100501D01*
X68420943Y-117100501D01*
X68579054Y-117100501D01*
X68579057Y-117100501D01*
X68731785Y-117059577D01*
X68781904Y-117030639D01*
X68868716Y-116980520D01*
X68980520Y-116868716D01*
X68980520Y-116868714D01*
X68990728Y-116858507D01*
X68990729Y-116858504D01*
X71480519Y-114368716D01*
X71539078Y-114310157D01*
X71539090Y-114310143D01*
X71928080Y-113921153D01*
X97699500Y-113921153D01*
X97699500Y-114078846D01*
X97730261Y-114233489D01*
X97730264Y-114233501D01*
X97790602Y-114379172D01*
X97790609Y-114379185D01*
X97878210Y-114510288D01*
X97878213Y-114510292D01*
X97989707Y-114621786D01*
X97989711Y-114621789D01*
X98120814Y-114709390D01*
X98120827Y-114709397D01*
X98266498Y-114769735D01*
X98266503Y-114769737D01*
X98421153Y-114800499D01*
X98421156Y-114800500D01*
X98421158Y-114800500D01*
X98578844Y-114800500D01*
X98578845Y-114800499D01*
X98733497Y-114769737D01*
X98879179Y-114709394D01*
X99010289Y-114621789D01*
X99121789Y-114510289D01*
X99209394Y-114379179D01*
X99269737Y-114233497D01*
X99291958Y-114121786D01*
X99300638Y-114078150D01*
X99333023Y-114016239D01*
X99334518Y-114014716D01*
X104712416Y-108636819D01*
X104773739Y-108603334D01*
X104800097Y-108600500D01*
X109920234Y-108600500D01*
X109987273Y-108620185D01*
X109989125Y-108621398D01*
X110120814Y-108709390D01*
X110120827Y-108709397D01*
X110266498Y-108769735D01*
X110266503Y-108769737D01*
X110421153Y-108800499D01*
X110421156Y-108800500D01*
X110421158Y-108800500D01*
X110578844Y-108800500D01*
X110578845Y-108800499D01*
X110733497Y-108769737D01*
X110879179Y-108709394D01*
X111010289Y-108621789D01*
X111121789Y-108510289D01*
X111209394Y-108379179D01*
X111269737Y-108233497D01*
X111300500Y-108078842D01*
X111300500Y-107921158D01*
X111300500Y-107921155D01*
X111300499Y-107921153D01*
X111269738Y-107766510D01*
X111269737Y-107766503D01*
X111211973Y-107627047D01*
X111209397Y-107620827D01*
X111209390Y-107620814D01*
X111121789Y-107489711D01*
X111121786Y-107489707D01*
X111010292Y-107378213D01*
X111010288Y-107378210D01*
X110879185Y-107290609D01*
X110879172Y-107290602D01*
X110733501Y-107230264D01*
X110733489Y-107230261D01*
X110578845Y-107199500D01*
X110578842Y-107199500D01*
X110421158Y-107199500D01*
X110421155Y-107199500D01*
X110266510Y-107230261D01*
X110266498Y-107230264D01*
X110120827Y-107290602D01*
X110120814Y-107290609D01*
X109989125Y-107378602D01*
X109922447Y-107399480D01*
X109920234Y-107399500D01*
X104420940Y-107399500D01*
X104380019Y-107410464D01*
X104380019Y-107410465D01*
X104342751Y-107420451D01*
X104268214Y-107440423D01*
X104268209Y-107440426D01*
X104131290Y-107519475D01*
X104131282Y-107519481D01*
X98485339Y-113165425D01*
X98424016Y-113198910D01*
X98421850Y-113199361D01*
X98266508Y-113230261D01*
X98266498Y-113230264D01*
X98120827Y-113290602D01*
X98120814Y-113290609D01*
X97989711Y-113378210D01*
X97989707Y-113378213D01*
X97878213Y-113489707D01*
X97878210Y-113489711D01*
X97790609Y-113620814D01*
X97790602Y-113620827D01*
X97730264Y-113766498D01*
X97730261Y-113766510D01*
X97699500Y-113921153D01*
X71928080Y-113921153D01*
X74212417Y-111636819D01*
X74273740Y-111603334D01*
X74300098Y-111600500D01*
X78420943Y-111600500D01*
X97413331Y-111600500D01*
X97413347Y-111600501D01*
X97420943Y-111600501D01*
X97579054Y-111600501D01*
X97579057Y-111600501D01*
X97731785Y-111559577D01*
X97797635Y-111521558D01*
X97868716Y-111480520D01*
X97980520Y-111368716D01*
X97980520Y-111368714D01*
X97990724Y-111358511D01*
X97990727Y-111358506D01*
X107514664Y-101834571D01*
X107575985Y-101801088D01*
X107578152Y-101800637D01*
X107578841Y-101800500D01*
X107578842Y-101800500D01*
X107733497Y-101769737D01*
X107879179Y-101709394D01*
X108010289Y-101621789D01*
X108121789Y-101510289D01*
X108209394Y-101379179D01*
X108269737Y-101233497D01*
X108300500Y-101078842D01*
X108300500Y-100921158D01*
X108300500Y-100921155D01*
X108300499Y-100921153D01*
X108269737Y-100766503D01*
X108219348Y-100644852D01*
X108209396Y-100620825D01*
X108209394Y-100620822D01*
X108209394Y-100620821D01*
X108174694Y-100568889D01*
X108153816Y-100502215D01*
X108172300Y-100434835D01*
X108174676Y-100431136D01*
X108209394Y-100379179D01*
X108269737Y-100233497D01*
X108300500Y-100078842D01*
X108300500Y-99921158D01*
X108300500Y-99921155D01*
X108300499Y-99921153D01*
X108299366Y-99915458D01*
X108269737Y-99766503D01*
X108238689Y-99691545D01*
X108209396Y-99620825D01*
X108209394Y-99620822D01*
X108209394Y-99620821D01*
X108174694Y-99568889D01*
X108153816Y-99502215D01*
X108172300Y-99434835D01*
X108174676Y-99431136D01*
X108209394Y-99379179D01*
X108269737Y-99233497D01*
X108300500Y-99078842D01*
X108300500Y-98921158D01*
X108300500Y-98921155D01*
X108300499Y-98921153D01*
X108286290Y-98849719D01*
X108269737Y-98766503D01*
X108269735Y-98766498D01*
X108209397Y-98620827D01*
X108209390Y-98620814D01*
X108121789Y-98489711D01*
X108121786Y-98489707D01*
X108010292Y-98378213D01*
X108010288Y-98378210D01*
X107879185Y-98290609D01*
X107879172Y-98290602D01*
X107733501Y-98230264D01*
X107733489Y-98230261D01*
X107578845Y-98199500D01*
X107578842Y-98199500D01*
X107421158Y-98199500D01*
X107421155Y-98199500D01*
X107266510Y-98230261D01*
X107266498Y-98230264D01*
X107120827Y-98290602D01*
X107120814Y-98290609D01*
X106989711Y-98378210D01*
X106989707Y-98378213D01*
X106878213Y-98489707D01*
X106878210Y-98489711D01*
X106790609Y-98620814D01*
X106790602Y-98620826D01*
X106731113Y-98764452D01*
X106687273Y-98818856D01*
X106620979Y-98840921D01*
X106616552Y-98841000D01*
X98412197Y-98841000D01*
X98345158Y-98821315D01*
X98299403Y-98768511D01*
X98289459Y-98699353D01*
X98301712Y-98660705D01*
X98326679Y-98611706D01*
X98382720Y-98501719D01*
X98445977Y-98307034D01*
X98478000Y-98104852D01*
X98478000Y-97900148D01*
X98451605Y-97733497D01*
X98445977Y-97697965D01*
X98407356Y-97579103D01*
X98382720Y-97503281D01*
X98382718Y-97503278D01*
X98382718Y-97503276D01*
X98348676Y-97436466D01*
X98289787Y-97320890D01*
X98250273Y-97266503D01*
X98169471Y-97155286D01*
X98024713Y-97010528D01*
X97859114Y-96890215D01*
X97835553Y-96878210D01*
X97766417Y-96842983D01*
X97715623Y-96795011D01*
X97698828Y-96727190D01*
X97721365Y-96661055D01*
X97766417Y-96622016D01*
X97859110Y-96574787D01*
X97880270Y-96559413D01*
X98024713Y-96454471D01*
X98024715Y-96454468D01*
X98024719Y-96454466D01*
X98169466Y-96309719D01*
X98169468Y-96309715D01*
X98169471Y-96309713D01*
X98283218Y-96153151D01*
X98289787Y-96144110D01*
X98382720Y-95961719D01*
X98445977Y-95767034D01*
X98478000Y-95564852D01*
X98478000Y-95360148D01*
X98445977Y-95157966D01*
X98445975Y-95157961D01*
X98395788Y-95003500D01*
X98382720Y-94963281D01*
X98382718Y-94963278D01*
X98382718Y-94963276D01*
X98342080Y-94883520D01*
X98289787Y-94780890D01*
X98279331Y-94766498D01*
X98169471Y-94615286D01*
X98024713Y-94470528D01*
X97859114Y-94350215D01*
X97852506Y-94346848D01*
X97766417Y-94302983D01*
X97715623Y-94255011D01*
X97698828Y-94187190D01*
X97721365Y-94121055D01*
X97766417Y-94082016D01*
X97859110Y-94034787D01*
X97880270Y-94019413D01*
X98024713Y-93914471D01*
X98024715Y-93914468D01*
X98024719Y-93914466D01*
X98169466Y-93769719D01*
X98169468Y-93769715D01*
X98169471Y-93769713D01*
X98268585Y-93633292D01*
X98289787Y-93604110D01*
X98382720Y-93421719D01*
X98445977Y-93227034D01*
X98478000Y-93024852D01*
X98478000Y-92820148D01*
X98462170Y-92720205D01*
X98445977Y-92617965D01*
X98409579Y-92505944D01*
X98382720Y-92423281D01*
X98382718Y-92423278D01*
X98382718Y-92423276D01*
X98315120Y-92290609D01*
X98289787Y-92240890D01*
X98271910Y-92216284D01*
X98169471Y-92075286D01*
X98024713Y-91930528D01*
X97859114Y-91810215D01*
X97820621Y-91790602D01*
X97766417Y-91762983D01*
X97715623Y-91715011D01*
X97698828Y-91647190D01*
X97721365Y-91581055D01*
X97766417Y-91542016D01*
X97859110Y-91494787D01*
X97880270Y-91479413D01*
X98024713Y-91374471D01*
X98024715Y-91374468D01*
X98024719Y-91374466D01*
X98169466Y-91229719D01*
X98169468Y-91229715D01*
X98169471Y-91229713D01*
X98248165Y-91121398D01*
X98289787Y-91064110D01*
X98382720Y-90881719D01*
X98445977Y-90687034D01*
X98478000Y-90484852D01*
X98478000Y-90280148D01*
X98466794Y-90209397D01*
X98445977Y-90077965D01*
X98382718Y-89883276D01*
X98335501Y-89790609D01*
X98289787Y-89700890D01*
X98256768Y-89655443D01*
X98169471Y-89535286D01*
X98024713Y-89390528D01*
X97859114Y-89270215D01*
X97851819Y-89266498D01*
X97766417Y-89222983D01*
X97715623Y-89175011D01*
X97698828Y-89107190D01*
X97721365Y-89041055D01*
X97766417Y-89002016D01*
X97859110Y-88954787D01*
X97916923Y-88912784D01*
X98024713Y-88834471D01*
X98024715Y-88834468D01*
X98024719Y-88834466D01*
X98169466Y-88689719D01*
X98169468Y-88689715D01*
X98169471Y-88689713D01*
X98222232Y-88617090D01*
X98289787Y-88524110D01*
X98382720Y-88341719D01*
X98445977Y-88147034D01*
X98478000Y-87944852D01*
X98478000Y-87740148D01*
X98473128Y-87709390D01*
X98445977Y-87537965D01*
X98394384Y-87379179D01*
X98382720Y-87343281D01*
X98382718Y-87343277D01*
X98382718Y-87343276D01*
X98326778Y-87233489D01*
X98289787Y-87160890D01*
X98263867Y-87125214D01*
X98169471Y-86995286D01*
X98024713Y-86850528D01*
X97859114Y-86730215D01*
X97852506Y-86726848D01*
X97766417Y-86682983D01*
X97715623Y-86635011D01*
X97698828Y-86567190D01*
X97721365Y-86501055D01*
X97766417Y-86462016D01*
X97859110Y-86414787D01*
X97909453Y-86378211D01*
X98024713Y-86294471D01*
X98024715Y-86294468D01*
X98024719Y-86294466D01*
X98169466Y-86149719D01*
X98169468Y-86149715D01*
X98169471Y-86149713D01*
X98236620Y-86057289D01*
X98289787Y-85984110D01*
X98382720Y-85801719D01*
X98445977Y-85607034D01*
X98478000Y-85404852D01*
X98478000Y-85211597D01*
X98497685Y-85144558D01*
X98550489Y-85098803D01*
X98619647Y-85088859D01*
X98683203Y-85117884D01*
X98689681Y-85123916D01*
X106363181Y-92797416D01*
X106396666Y-92858739D01*
X106399500Y-92885097D01*
X106399500Y-94420234D01*
X106379815Y-94487273D01*
X106378602Y-94489125D01*
X106290609Y-94620814D01*
X106290602Y-94620827D01*
X106230264Y-94766498D01*
X106230261Y-94766510D01*
X106199500Y-94921153D01*
X106199500Y-95078846D01*
X106230261Y-95233489D01*
X106230264Y-95233501D01*
X106290602Y-95379172D01*
X106290609Y-95379185D01*
X106378210Y-95510288D01*
X106378213Y-95510292D01*
X106489707Y-95621786D01*
X106489711Y-95621789D01*
X106620814Y-95709390D01*
X106620827Y-95709397D01*
X106759977Y-95767034D01*
X106766503Y-95769737D01*
X106921153Y-95800499D01*
X106921156Y-95800500D01*
X106921158Y-95800500D01*
X107078844Y-95800500D01*
X107078845Y-95800499D01*
X107233497Y-95769737D01*
X107379179Y-95709394D01*
X107510289Y-95621789D01*
X107621789Y-95510289D01*
X107709394Y-95379179D01*
X107769737Y-95233497D01*
X107800500Y-95078842D01*
X107800500Y-94921158D01*
X107800500Y-94921156D01*
X107800500Y-94921155D01*
X107800499Y-94921153D01*
X107793013Y-94883520D01*
X107769737Y-94766503D01*
X107769735Y-94766498D01*
X107709397Y-94620827D01*
X107709390Y-94620814D01*
X107621398Y-94489125D01*
X107600520Y-94422447D01*
X107600500Y-94420234D01*
X107600500Y-92674060D01*
X107600501Y-92674047D01*
X107600501Y-92505944D01*
X107600501Y-92505943D01*
X107559577Y-92353216D01*
X107523431Y-92290609D01*
X107480524Y-92216290D01*
X107480518Y-92216282D01*
X103004384Y-87740148D01*
X98471576Y-83207341D01*
X98438092Y-83146019D01*
X98441328Y-83081341D01*
X98445977Y-83067034D01*
X98478000Y-82864852D01*
X98478000Y-82660148D01*
X98445977Y-82457966D01*
X98441325Y-82443651D01*
X98439332Y-82373812D01*
X98471575Y-82317658D01*
X101088821Y-79700413D01*
X101150142Y-79666930D01*
X101219834Y-79671914D01*
X101275767Y-79713786D01*
X101300184Y-79779250D01*
X101300500Y-79788096D01*
X101300500Y-85314330D01*
X101300499Y-85314348D01*
X101300499Y-85480054D01*
X101300498Y-85480054D01*
X101341423Y-85632785D01*
X101370358Y-85682900D01*
X101370359Y-85682904D01*
X101370360Y-85682904D01*
X101420479Y-85769714D01*
X101420481Y-85769717D01*
X101539349Y-85888585D01*
X101539355Y-85888590D01*
X108165425Y-92514660D01*
X108198910Y-92575983D01*
X108199361Y-92578149D01*
X108230261Y-92733491D01*
X108230264Y-92733501D01*
X108290602Y-92879172D01*
X108290609Y-92879185D01*
X108378210Y-93010288D01*
X108378213Y-93010292D01*
X108489707Y-93121786D01*
X108489711Y-93121789D01*
X108620814Y-93209390D01*
X108620827Y-93209397D01*
X108762814Y-93268209D01*
X108766503Y-93269737D01*
X108916075Y-93299489D01*
X108921153Y-93300499D01*
X108921156Y-93300500D01*
X108921158Y-93300500D01*
X109078844Y-93300500D01*
X109078845Y-93300499D01*
X109233497Y-93269737D01*
X109379179Y-93209394D01*
X109510289Y-93121789D01*
X109621789Y-93010289D01*
X109681348Y-92921153D01*
X112199500Y-92921153D01*
X112199500Y-93078846D01*
X112230261Y-93233489D01*
X112230264Y-93233501D01*
X112290602Y-93379172D01*
X112290609Y-93379185D01*
X112378210Y-93510288D01*
X112378213Y-93510292D01*
X112489707Y-93621786D01*
X112489711Y-93621789D01*
X112620814Y-93709390D01*
X112620827Y-93709397D01*
X112766498Y-93769735D01*
X112766503Y-93769737D01*
X112831147Y-93782595D01*
X112921849Y-93800638D01*
X112983760Y-93833023D01*
X112985339Y-93834574D01*
X115289105Y-96138340D01*
X115289115Y-96138351D01*
X115293445Y-96142681D01*
X115293446Y-96142682D01*
X115405250Y-96254486D01*
X115405252Y-96254487D01*
X115405256Y-96254490D01*
X115481483Y-96298499D01*
X115542182Y-96333543D01*
X115652117Y-96363000D01*
X115652116Y-96363000D01*
X115667778Y-96367196D01*
X115694908Y-96374466D01*
X115694909Y-96374466D01*
X126146269Y-96374466D01*
X126213308Y-96394151D01*
X126215160Y-96395364D01*
X126346849Y-96483356D01*
X126346862Y-96483363D01*
X126460141Y-96530284D01*
X126492538Y-96543703D01*
X126647188Y-96574465D01*
X126647191Y-96574466D01*
X126647193Y-96574466D01*
X126804879Y-96574466D01*
X126804880Y-96574465D01*
X126959532Y-96543703D01*
X127105214Y-96483360D01*
X127236324Y-96395755D01*
X127347824Y-96284255D01*
X127435429Y-96153145D01*
X127495772Y-96007463D01*
X127526535Y-95852808D01*
X127526535Y-95695124D01*
X127526535Y-95695121D01*
X127526534Y-95695119D01*
X127495772Y-95540469D01*
X127495770Y-95540464D01*
X127435432Y-95394793D01*
X127435425Y-95394780D01*
X127347824Y-95263677D01*
X127347821Y-95263673D01*
X127236327Y-95152179D01*
X127236323Y-95152176D01*
X127105220Y-95064575D01*
X127105207Y-95064568D01*
X126959536Y-95004230D01*
X126959524Y-95004227D01*
X126804880Y-94973466D01*
X126804877Y-94973466D01*
X126647193Y-94973466D01*
X126647190Y-94973466D01*
X126492545Y-95004227D01*
X126492533Y-95004230D01*
X126346862Y-95064568D01*
X126346849Y-95064575D01*
X126215160Y-95152568D01*
X126148482Y-95173446D01*
X126146269Y-95173466D01*
X116074063Y-95173466D01*
X116007024Y-95153781D01*
X115986382Y-95137147D01*
X113834574Y-92985339D01*
X113801089Y-92924016D01*
X113800638Y-92921849D01*
X113769738Y-92766510D01*
X113769737Y-92766503D01*
X113750560Y-92720205D01*
X113709397Y-92620827D01*
X113709390Y-92620814D01*
X113621789Y-92489711D01*
X113621786Y-92489707D01*
X113510292Y-92378213D01*
X113510288Y-92378210D01*
X113379185Y-92290609D01*
X113379172Y-92290602D01*
X113233501Y-92230264D01*
X113233489Y-92230261D01*
X113078845Y-92199500D01*
X113078842Y-92199500D01*
X112921158Y-92199500D01*
X112921155Y-92199500D01*
X112766510Y-92230261D01*
X112766498Y-92230264D01*
X112620827Y-92290602D01*
X112620814Y-92290609D01*
X112489711Y-92378210D01*
X112489707Y-92378213D01*
X112378213Y-92489707D01*
X112378210Y-92489711D01*
X112290609Y-92620814D01*
X112290602Y-92620827D01*
X112230264Y-92766498D01*
X112230261Y-92766510D01*
X112199500Y-92921153D01*
X109681348Y-92921153D01*
X109709394Y-92879179D01*
X109769737Y-92733497D01*
X109800500Y-92578842D01*
X109800500Y-92421158D01*
X109800500Y-92421155D01*
X109800499Y-92421153D01*
X109791957Y-92378210D01*
X109769737Y-92266503D01*
X109759126Y-92240886D01*
X109709397Y-92120827D01*
X109709390Y-92120814D01*
X109621789Y-91989711D01*
X109621786Y-91989707D01*
X109510292Y-91878213D01*
X109510288Y-91878210D01*
X109379185Y-91790609D01*
X109379172Y-91790602D01*
X109233501Y-91730264D01*
X109233491Y-91730261D01*
X109078149Y-91699361D01*
X109016238Y-91666976D01*
X109014660Y-91665425D01*
X102537819Y-85188584D01*
X102504334Y-85127261D01*
X102501500Y-85100903D01*
X102501500Y-66304604D01*
X102521185Y-66237565D01*
X102573989Y-66191810D01*
X102643147Y-66181866D01*
X102706703Y-66210891D01*
X102740061Y-66257152D01*
X102790602Y-66379172D01*
X102790609Y-66379185D01*
X102878210Y-66510288D01*
X102878213Y-66510292D01*
X102989707Y-66621786D01*
X102989711Y-66621789D01*
X103120814Y-66709390D01*
X103120827Y-66709397D01*
X103266498Y-66769735D01*
X103266503Y-66769737D01*
X103421153Y-66800499D01*
X103421156Y-66800500D01*
X103421158Y-66800500D01*
X103578844Y-66800500D01*
X103578845Y-66800499D01*
X103733497Y-66769737D01*
X103879179Y-66709394D01*
X104010289Y-66621789D01*
X104121789Y-66510289D01*
X104209394Y-66379179D01*
X104269737Y-66233497D01*
X104300500Y-66078842D01*
X104300500Y-65921158D01*
X104300500Y-65921155D01*
X104300499Y-65921153D01*
X104290811Y-65872449D01*
X104269737Y-65766503D01*
X104262285Y-65748511D01*
X104209397Y-65620827D01*
X104209390Y-65620814D01*
X104121398Y-65489125D01*
X104100520Y-65422447D01*
X104100500Y-65420234D01*
X104100500Y-63886555D01*
X104120185Y-63819516D01*
X104172989Y-63773761D01*
X104242147Y-63763817D01*
X104249538Y-63765109D01*
X104261069Y-63767486D01*
X104266503Y-63769737D01*
X104421158Y-63800500D01*
X104421197Y-63800500D01*
X104422696Y-63800809D01*
X104453222Y-63817049D01*
X104483760Y-63833023D01*
X104484364Y-63833616D01*
X104484380Y-63833625D01*
X104484388Y-63833640D01*
X104485339Y-63834574D01*
X134363181Y-93712416D01*
X134396666Y-93773739D01*
X134399500Y-93800097D01*
X134399500Y-98913330D01*
X134399499Y-98913348D01*
X134399499Y-99079054D01*
X134399498Y-99079054D01*
X134399499Y-99079057D01*
X134440423Y-99231785D01*
X134446317Y-99241994D01*
X134446319Y-99242001D01*
X134446321Y-99242001D01*
X134519475Y-99368709D01*
X134519481Y-99368717D01*
X134638349Y-99487585D01*
X134638355Y-99487590D01*
X141015139Y-105864374D01*
X141015149Y-105864385D01*
X141019479Y-105868715D01*
X141019480Y-105868716D01*
X141131284Y-105980520D01*
X141191265Y-106015149D01*
X141218095Y-106030639D01*
X141218097Y-106030641D01*
X141256151Y-106052611D01*
X141268215Y-106059577D01*
X141420943Y-106100500D01*
X141579057Y-106100500D01*
X149420943Y-106100500D01*
X152413331Y-106100500D01*
X152413347Y-106100501D01*
X152420943Y-106100501D01*
X152579054Y-106100501D01*
X152579057Y-106100501D01*
X152731785Y-106059577D01*
X152781904Y-106030639D01*
X152868716Y-105980520D01*
X152980520Y-105868716D01*
X152980520Y-105868714D01*
X152990728Y-105858507D01*
X152990729Y-105858504D01*
X154480519Y-104368716D01*
X154539069Y-104310166D01*
X154539078Y-104310156D01*
X154980520Y-103868716D01*
X155059577Y-103731784D01*
X155100501Y-103579057D01*
X155100501Y-103420942D01*
X155100501Y-103413347D01*
X155100500Y-103413329D01*
X155100500Y-98724500D01*
X155120185Y-98657461D01*
X155172989Y-98611706D01*
X155224500Y-98600500D01*
X158699903Y-98600500D01*
X158766942Y-98620185D01*
X158787584Y-98636819D01*
X164665425Y-104514660D01*
X164698910Y-104575983D01*
X164699361Y-104578149D01*
X164730261Y-104733491D01*
X164730264Y-104733501D01*
X164790602Y-104879172D01*
X164790609Y-104879185D01*
X164878210Y-105010288D01*
X164878213Y-105010292D01*
X164989707Y-105121786D01*
X164989711Y-105121789D01*
X165120814Y-105209390D01*
X165120827Y-105209397D01*
X165258683Y-105266498D01*
X165266503Y-105269737D01*
X165421153Y-105300499D01*
X165421156Y-105300500D01*
X165421158Y-105300500D01*
X165578844Y-105300500D01*
X165578845Y-105300499D01*
X165733497Y-105269737D01*
X165879179Y-105209394D01*
X166010289Y-105121789D01*
X166121789Y-105010289D01*
X166209394Y-104879179D01*
X166269737Y-104733497D01*
X166300500Y-104578842D01*
X166300500Y-104421158D01*
X166300500Y-104421155D01*
X166300499Y-104421153D01*
X166299277Y-104415011D01*
X166269737Y-104266503D01*
X166259594Y-104242015D01*
X166209397Y-104120827D01*
X166209390Y-104120814D01*
X166121789Y-103989711D01*
X166121786Y-103989707D01*
X166010292Y-103878213D01*
X166010288Y-103878210D01*
X165879185Y-103790609D01*
X165879172Y-103790602D01*
X165733501Y-103730264D01*
X165733491Y-103730261D01*
X165578149Y-103699361D01*
X165516238Y-103666976D01*
X165514660Y-103665425D01*
X159487590Y-97638355D01*
X159487588Y-97638352D01*
X159368717Y-97519481D01*
X159368716Y-97519480D01*
X159263228Y-97458577D01*
X159263227Y-97458576D01*
X159231783Y-97440422D01*
X159159888Y-97421158D01*
X159079057Y-97399499D01*
X158920943Y-97399499D01*
X158913347Y-97399499D01*
X158913331Y-97399500D01*
X154420943Y-97399500D01*
X154268216Y-97440423D01*
X154268209Y-97440426D01*
X154131290Y-97519475D01*
X154131282Y-97519481D01*
X154019481Y-97631282D01*
X154019475Y-97631290D01*
X153940426Y-97768209D01*
X153940423Y-97768216D01*
X153899500Y-97920943D01*
X153899500Y-103199902D01*
X153879815Y-103266941D01*
X153863181Y-103287583D01*
X153631284Y-103519481D01*
X152287584Y-104863181D01*
X152226261Y-104896666D01*
X152199903Y-104899500D01*
X141800097Y-104899500D01*
X141733058Y-104879815D01*
X141712416Y-104863181D01*
X135636819Y-98787584D01*
X135603334Y-98726261D01*
X135600500Y-98699903D01*
X135600500Y-97437135D01*
X145054500Y-97437135D01*
X145054500Y-99562870D01*
X145054501Y-99562876D01*
X145060908Y-99622483D01*
X145111202Y-99757328D01*
X145111206Y-99757335D01*
X145197452Y-99872544D01*
X145197455Y-99872547D01*
X145312664Y-99958793D01*
X145312671Y-99958797D01*
X145447517Y-100009091D01*
X145447516Y-100009091D01*
X145454444Y-100009835D01*
X145507127Y-100015500D01*
X147332872Y-100015499D01*
X147392483Y-100009091D01*
X147527331Y-99958796D01*
X147642546Y-99872546D01*
X147728796Y-99757331D01*
X147772048Y-99641365D01*
X147813917Y-99585433D01*
X147879381Y-99561015D01*
X147947654Y-99575866D01*
X147975910Y-99597018D01*
X148070437Y-99691545D01*
X148244322Y-99817880D01*
X148328726Y-99860886D01*
X148435829Y-99915458D01*
X148435832Y-99915459D01*
X148626494Y-99977408D01*
X148640245Y-99981876D01*
X148852533Y-100015500D01*
X148852534Y-100015500D01*
X149067466Y-100015500D01*
X149067467Y-100015500D01*
X149279755Y-99981876D01*
X149279758Y-99981875D01*
X149279759Y-99981875D01*
X149484167Y-99915459D01*
X149484170Y-99915458D01*
X149675678Y-99817880D01*
X149849563Y-99691545D01*
X150001545Y-99539563D01*
X150127880Y-99365678D01*
X150127879Y-99365678D01*
X150129682Y-99363198D01*
X150185012Y-99320532D01*
X150254625Y-99314553D01*
X150316420Y-99347159D01*
X150330318Y-99363198D01*
X150415558Y-99480520D01*
X150458455Y-99539563D01*
X150610437Y-99691545D01*
X150784322Y-99817880D01*
X150868726Y-99860886D01*
X150975829Y-99915458D01*
X150975832Y-99915459D01*
X151166494Y-99977408D01*
X151180245Y-99981876D01*
X151392533Y-100015500D01*
X151392534Y-100015500D01*
X151607466Y-100015500D01*
X151607467Y-100015500D01*
X151819755Y-99981876D01*
X151819758Y-99981875D01*
X151819759Y-99981875D01*
X152024167Y-99915459D01*
X152024170Y-99915458D01*
X152215678Y-99817880D01*
X152389563Y-99691545D01*
X152541545Y-99539563D01*
X152667880Y-99365678D01*
X152765458Y-99174170D01*
X152796363Y-99079054D01*
X152831875Y-98969759D01*
X152831875Y-98969758D01*
X152831876Y-98969755D01*
X152865500Y-98757467D01*
X152865500Y-98242533D01*
X152831876Y-98030245D01*
X152831875Y-98030241D01*
X152831875Y-98030240D01*
X152765459Y-97825832D01*
X152765458Y-97825829D01*
X152677315Y-97652840D01*
X152667880Y-97634322D01*
X152541545Y-97460437D01*
X152389563Y-97308455D01*
X152215678Y-97182120D01*
X152215674Y-97182118D01*
X152024170Y-97084541D01*
X152024167Y-97084540D01*
X151819757Y-97018124D01*
X151678229Y-96995708D01*
X151607467Y-96984500D01*
X151392533Y-96984500D01*
X151321770Y-96995708D01*
X151180243Y-97018124D01*
X151180240Y-97018124D01*
X150975832Y-97084540D01*
X150975829Y-97084541D01*
X150784321Y-97182120D01*
X150700981Y-97242671D01*
X150610437Y-97308455D01*
X150610435Y-97308457D01*
X150610434Y-97308457D01*
X150458457Y-97460434D01*
X150458457Y-97460435D01*
X150458455Y-97460437D01*
X150379494Y-97569117D01*
X150330318Y-97636802D01*
X150274988Y-97679467D01*
X150205374Y-97685446D01*
X150143579Y-97652840D01*
X150129682Y-97636802D01*
X150087571Y-97578842D01*
X150001545Y-97460437D01*
X149849563Y-97308455D01*
X149675678Y-97182120D01*
X149675674Y-97182118D01*
X149484170Y-97084541D01*
X149484167Y-97084540D01*
X149279757Y-97018124D01*
X149138229Y-96995708D01*
X149067467Y-96984500D01*
X148852533Y-96984500D01*
X148781770Y-96995708D01*
X148640243Y-97018124D01*
X148640240Y-97018124D01*
X148435832Y-97084540D01*
X148435829Y-97084541D01*
X148244321Y-97182120D01*
X148070438Y-97308454D01*
X147975910Y-97402982D01*
X147914586Y-97436466D01*
X147844895Y-97431482D01*
X147788962Y-97389610D01*
X147772047Y-97358632D01*
X147757970Y-97320890D01*
X147737688Y-97266510D01*
X147728798Y-97242673D01*
X147728793Y-97242664D01*
X147642547Y-97127455D01*
X147642544Y-97127452D01*
X147527335Y-97041206D01*
X147527328Y-97041202D01*
X147392482Y-96990908D01*
X147392483Y-96990908D01*
X147332883Y-96984501D01*
X147332881Y-96984500D01*
X147332873Y-96984500D01*
X147332864Y-96984500D01*
X145507129Y-96984500D01*
X145507123Y-96984501D01*
X145447516Y-96990908D01*
X145312671Y-97041202D01*
X145312664Y-97041206D01*
X145197455Y-97127452D01*
X145197452Y-97127455D01*
X145111206Y-97242664D01*
X145111202Y-97242671D01*
X145060908Y-97377517D01*
X145054501Y-97437116D01*
X145054500Y-97437135D01*
X135600500Y-97437135D01*
X135600500Y-93589060D01*
X135600501Y-93589047D01*
X135600501Y-93420944D01*
X135595291Y-93401500D01*
X135559577Y-93268216D01*
X135542814Y-93239181D01*
X135480524Y-93131290D01*
X135480518Y-93131282D01*
X132770389Y-90421153D01*
X135439461Y-90421153D01*
X135439461Y-90578846D01*
X135470222Y-90733489D01*
X135470225Y-90733501D01*
X135530563Y-90879172D01*
X135530570Y-90879185D01*
X135618171Y-91010288D01*
X135618174Y-91010292D01*
X135729668Y-91121786D01*
X135729672Y-91121789D01*
X135860775Y-91209390D01*
X135860788Y-91209397D01*
X136006459Y-91269735D01*
X136006464Y-91269737D01*
X136161114Y-91300499D01*
X136161117Y-91300500D01*
X136161119Y-91300500D01*
X136318805Y-91300500D01*
X136318806Y-91300499D01*
X136473458Y-91269737D01*
X136619140Y-91209394D01*
X136619146Y-91209390D01*
X136750836Y-91121398D01*
X136817514Y-91100520D01*
X136819727Y-91100500D01*
X137913331Y-91100500D01*
X137913347Y-91100501D01*
X137920943Y-91100501D01*
X138079054Y-91100501D01*
X138079057Y-91100501D01*
X138231785Y-91059577D01*
X138281904Y-91030639D01*
X138368716Y-90980520D01*
X138480520Y-90868716D01*
X138480520Y-90868714D01*
X138490728Y-90858507D01*
X138490729Y-90858504D01*
X141514662Y-87834572D01*
X141575983Y-87801089D01*
X141578150Y-87800638D01*
X141636085Y-87789113D01*
X141733497Y-87769737D01*
X141879179Y-87709394D01*
X142010289Y-87621789D01*
X142121789Y-87510289D01*
X142209394Y-87379179D01*
X142211524Y-87374038D01*
X142269735Y-87233501D01*
X142269737Y-87233497D01*
X142300500Y-87078842D01*
X142300500Y-86921158D01*
X142300500Y-86921155D01*
X142300499Y-86921153D01*
X142269738Y-86766510D01*
X142269738Y-86766508D01*
X142269737Y-86766503D01*
X142218973Y-86643946D01*
X142209397Y-86620827D01*
X142209390Y-86620814D01*
X142121789Y-86489711D01*
X142121786Y-86489707D01*
X142010292Y-86378213D01*
X142010288Y-86378210D01*
X141879185Y-86290609D01*
X141879172Y-86290602D01*
X141733501Y-86230264D01*
X141733489Y-86230261D01*
X141578845Y-86199500D01*
X141578842Y-86199500D01*
X141421158Y-86199500D01*
X141421155Y-86199500D01*
X141266510Y-86230261D01*
X141266498Y-86230264D01*
X141120827Y-86290602D01*
X141120814Y-86290609D01*
X140989711Y-86378210D01*
X140989707Y-86378213D01*
X140878213Y-86489707D01*
X140878210Y-86489711D01*
X140790609Y-86620814D01*
X140790602Y-86620827D01*
X140730264Y-86766498D01*
X140730261Y-86766508D01*
X140699361Y-86921850D01*
X140666976Y-86983761D01*
X140665425Y-86985339D01*
X137787584Y-89863181D01*
X137726261Y-89896666D01*
X137699903Y-89899500D01*
X136819727Y-89899500D01*
X136752688Y-89879815D01*
X136750836Y-89878602D01*
X136619146Y-89790609D01*
X136619133Y-89790602D01*
X136473462Y-89730264D01*
X136473450Y-89730261D01*
X136318806Y-89699500D01*
X136318803Y-89699500D01*
X136161119Y-89699500D01*
X136161116Y-89699500D01*
X136006471Y-89730261D01*
X136006459Y-89730264D01*
X135860788Y-89790602D01*
X135860775Y-89790609D01*
X135729672Y-89878210D01*
X135729668Y-89878213D01*
X135618174Y-89989707D01*
X135618171Y-89989711D01*
X135530570Y-90120814D01*
X135530563Y-90120827D01*
X135470225Y-90266498D01*
X135470222Y-90266510D01*
X135439461Y-90421153D01*
X132770389Y-90421153D01*
X122385723Y-80036487D01*
X122301371Y-79952135D01*
X128999500Y-79952135D01*
X128999500Y-82047870D01*
X128999501Y-82047876D01*
X129005908Y-82107483D01*
X129056202Y-82242328D01*
X129056206Y-82242335D01*
X129142452Y-82357544D01*
X129142455Y-82357547D01*
X129257664Y-82443793D01*
X129257671Y-82443797D01*
X129392517Y-82494091D01*
X129392516Y-82494091D01*
X129399444Y-82494835D01*
X129452127Y-82500500D01*
X131547872Y-82500499D01*
X131607483Y-82494091D01*
X131742331Y-82443796D01*
X131857546Y-82357546D01*
X131943796Y-82242331D01*
X131994091Y-82107483D01*
X132000500Y-82047873D01*
X132000499Y-80881902D01*
X136599500Y-80881902D01*
X136599500Y-81118097D01*
X136636446Y-81351368D01*
X136709433Y-81575996D01*
X136777405Y-81709397D01*
X136816657Y-81786433D01*
X136955483Y-81977510D01*
X137122490Y-82144517D01*
X137313567Y-82283343D01*
X137380910Y-82317656D01*
X137524003Y-82390566D01*
X137524005Y-82390566D01*
X137524008Y-82390568D01*
X137644412Y-82429689D01*
X137748631Y-82463553D01*
X137981903Y-82500500D01*
X137981908Y-82500500D01*
X138218097Y-82500500D01*
X138451368Y-82463553D01*
X138468566Y-82457965D01*
X138675992Y-82390568D01*
X138886433Y-82283343D01*
X139077510Y-82144517D01*
X139244517Y-81977510D01*
X139383343Y-81786433D01*
X139490568Y-81575992D01*
X139563553Y-81351368D01*
X139571376Y-81301974D01*
X139600500Y-81118097D01*
X139600500Y-80881902D01*
X139563553Y-80648631D01*
X139529689Y-80544412D01*
X139490568Y-80424008D01*
X139490566Y-80424005D01*
X139490566Y-80424003D01*
X139407407Y-80260796D01*
X139383343Y-80213567D01*
X139244517Y-80022490D01*
X139077510Y-79855483D01*
X138886433Y-79716657D01*
X138880798Y-79713786D01*
X138675996Y-79609433D01*
X138451368Y-79536446D01*
X138218097Y-79499500D01*
X138218092Y-79499500D01*
X137981908Y-79499500D01*
X137981903Y-79499500D01*
X137748631Y-79536446D01*
X137524003Y-79609433D01*
X137313566Y-79716657D01*
X137257119Y-79757669D01*
X137122490Y-79855483D01*
X137122488Y-79855485D01*
X137122487Y-79855485D01*
X136955485Y-80022487D01*
X136955485Y-80022488D01*
X136955483Y-80022490D01*
X136945314Y-80036487D01*
X136816657Y-80213566D01*
X136709433Y-80424003D01*
X136636446Y-80648631D01*
X136599500Y-80881902D01*
X132000499Y-80881902D01*
X132000499Y-79952128D01*
X131994091Y-79892517D01*
X131980278Y-79855483D01*
X131943797Y-79757671D01*
X131943793Y-79757664D01*
X131857547Y-79642455D01*
X131857544Y-79642452D01*
X131742335Y-79556206D01*
X131742328Y-79556202D01*
X131607482Y-79505908D01*
X131607483Y-79505908D01*
X131547883Y-79499501D01*
X131547881Y-79499500D01*
X131547873Y-79499500D01*
X131547864Y-79499500D01*
X129452129Y-79499500D01*
X129452123Y-79499501D01*
X129392516Y-79505908D01*
X129257671Y-79556202D01*
X129257664Y-79556206D01*
X129142455Y-79642452D01*
X129142452Y-79642455D01*
X129056206Y-79757664D01*
X129056202Y-79757671D01*
X129005908Y-79892517D01*
X129003160Y-79918082D01*
X128999501Y-79952123D01*
X128999500Y-79952135D01*
X122301371Y-79952135D01*
X106851982Y-64502747D01*
X106770388Y-64421153D01*
X108199500Y-64421153D01*
X108199500Y-64578846D01*
X108230261Y-64733489D01*
X108230264Y-64733501D01*
X108290602Y-64879172D01*
X108290609Y-64879185D01*
X108378210Y-65010288D01*
X108378213Y-65010292D01*
X108489707Y-65121786D01*
X108489711Y-65121789D01*
X108620814Y-65209390D01*
X108620827Y-65209397D01*
X108766498Y-65269735D01*
X108766503Y-65269737D01*
X108831147Y-65282595D01*
X108921849Y-65300638D01*
X108983760Y-65333023D01*
X108985339Y-65334574D01*
X110515139Y-66864374D01*
X110515149Y-66864385D01*
X110519479Y-66868715D01*
X110519480Y-66868716D01*
X110631284Y-66980520D01*
X110703130Y-67022000D01*
X110768215Y-67059577D01*
X110920943Y-67100500D01*
X117420234Y-67100500D01*
X117487273Y-67120185D01*
X117489125Y-67121398D01*
X117620814Y-67209390D01*
X117620827Y-67209397D01*
X117758683Y-67266498D01*
X117766503Y-67269737D01*
X117921153Y-67300499D01*
X117921156Y-67300500D01*
X117921158Y-67300500D01*
X118078844Y-67300500D01*
X118078845Y-67300499D01*
X118233497Y-67269737D01*
X118379179Y-67209394D01*
X118510289Y-67121789D01*
X118621789Y-67010289D01*
X118709394Y-66879179D01*
X118769737Y-66733497D01*
X118800500Y-66578842D01*
X118800500Y-66421158D01*
X118800500Y-66421155D01*
X118800499Y-66421153D01*
X118792148Y-66379172D01*
X118769737Y-66266503D01*
X118746702Y-66210891D01*
X118709397Y-66120827D01*
X118709390Y-66120814D01*
X118621789Y-65989711D01*
X118621786Y-65989707D01*
X118510292Y-65878213D01*
X118510288Y-65878210D01*
X118379185Y-65790609D01*
X118379172Y-65790602D01*
X118233501Y-65730264D01*
X118233489Y-65730261D01*
X118078845Y-65699500D01*
X118078842Y-65699500D01*
X117921158Y-65699500D01*
X117921155Y-65699500D01*
X117766510Y-65730261D01*
X117766498Y-65730264D01*
X117620827Y-65790602D01*
X117620814Y-65790609D01*
X117489125Y-65878602D01*
X117422447Y-65899480D01*
X117420234Y-65899500D01*
X111300097Y-65899500D01*
X111233058Y-65879815D01*
X111212416Y-65863181D01*
X109834574Y-64485339D01*
X109801089Y-64424016D01*
X109800638Y-64421849D01*
X109775533Y-64295641D01*
X109769737Y-64266503D01*
X109746080Y-64209390D01*
X109709397Y-64120827D01*
X109709390Y-64120814D01*
X109621789Y-63989711D01*
X109621786Y-63989707D01*
X109510292Y-63878213D01*
X109510288Y-63878210D01*
X109379185Y-63790609D01*
X109379172Y-63790602D01*
X109233501Y-63730264D01*
X109233489Y-63730261D01*
X109078845Y-63699500D01*
X109078842Y-63699500D01*
X108921158Y-63699500D01*
X108921155Y-63699500D01*
X108766510Y-63730261D01*
X108766498Y-63730264D01*
X108620827Y-63790602D01*
X108620814Y-63790609D01*
X108489711Y-63878210D01*
X108489707Y-63878213D01*
X108378213Y-63989707D01*
X108378210Y-63989711D01*
X108290609Y-64120814D01*
X108290602Y-64120827D01*
X108230264Y-64266498D01*
X108230261Y-64266510D01*
X108199500Y-64421153D01*
X106770388Y-64421153D01*
X105560416Y-63211181D01*
X105526931Y-63149858D01*
X105531915Y-63080166D01*
X105573787Y-63024233D01*
X105639251Y-62999816D01*
X105648097Y-62999500D01*
X124351903Y-62999500D01*
X124418942Y-63019185D01*
X124464697Y-63071989D01*
X124474641Y-63141147D01*
X124445616Y-63204703D01*
X124439584Y-63211181D01*
X117235339Y-70415425D01*
X117174016Y-70448910D01*
X117171850Y-70449361D01*
X117016508Y-70480261D01*
X117016498Y-70480264D01*
X116870827Y-70540602D01*
X116870814Y-70540609D01*
X116739711Y-70628210D01*
X116739707Y-70628213D01*
X116628213Y-70739707D01*
X116628210Y-70739711D01*
X116540609Y-70870814D01*
X116540602Y-70870827D01*
X116480264Y-71016498D01*
X116480261Y-71016510D01*
X116449500Y-71171153D01*
X116449500Y-71221636D01*
X116441834Y-71260179D01*
X116442527Y-71260365D01*
X116440424Y-71268213D01*
X116440423Y-71268215D01*
X116399499Y-71420943D01*
X116399499Y-71420945D01*
X116399499Y-71579054D01*
X116399498Y-71579054D01*
X116399499Y-71579057D01*
X116440423Y-71731785D01*
X116519481Y-71868716D01*
X116631284Y-71980519D01*
X116768215Y-72059577D01*
X116920943Y-72100501D01*
X116920946Y-72100501D01*
X117079054Y-72100501D01*
X117079057Y-72100501D01*
X117231785Y-72059577D01*
X117231786Y-72059575D01*
X117239635Y-72057473D01*
X117239820Y-72058165D01*
X117278364Y-72050500D01*
X117328844Y-72050500D01*
X117328845Y-72050499D01*
X117483497Y-72019737D01*
X117629179Y-71959394D01*
X117760289Y-71871789D01*
X117871789Y-71760289D01*
X117959394Y-71629179D01*
X118019737Y-71483497D01*
X118039113Y-71386085D01*
X118050638Y-71328150D01*
X118083023Y-71266239D01*
X118084518Y-71264716D01*
X125712416Y-63636819D01*
X125773739Y-63603334D01*
X125800097Y-63600500D01*
X130420234Y-63600500D01*
X130487273Y-63620185D01*
X130489125Y-63621398D01*
X130620814Y-63709390D01*
X130620827Y-63709397D01*
X130755330Y-63765109D01*
X130766503Y-63769737D01*
X130921153Y-63800499D01*
X130921156Y-63800500D01*
X130921158Y-63800500D01*
X131078844Y-63800500D01*
X131078845Y-63800499D01*
X131233497Y-63769737D01*
X131368004Y-63714023D01*
X131379172Y-63709397D01*
X131379172Y-63709396D01*
X131379179Y-63709394D01*
X131510289Y-63621789D01*
X131621789Y-63510289D01*
X131709394Y-63379179D01*
X131769737Y-63233497D01*
X131796429Y-63099309D01*
X131828814Y-63037398D01*
X131889529Y-63002824D01*
X131918046Y-62999500D01*
X152598903Y-62999500D01*
X152665942Y-63019185D01*
X152686584Y-63035819D01*
X162519481Y-72868716D01*
X162631284Y-72980519D01*
X162768215Y-73059577D01*
X162920943Y-73100501D01*
X162920946Y-73100501D01*
X163079054Y-73100501D01*
X163079057Y-73100501D01*
X163231785Y-73059577D01*
X163368716Y-72980519D01*
X163712417Y-72636819D01*
X163773740Y-72603334D01*
X163800098Y-72600500D01*
X172079055Y-72600500D01*
X172079057Y-72600500D01*
X172231784Y-72559577D01*
X172368716Y-72480520D01*
X172480520Y-72368716D01*
X172508113Y-72320923D01*
X172558679Y-72272708D01*
X172627286Y-72259484D01*
X172692151Y-72285452D01*
X172732680Y-72342365D01*
X172739500Y-72382923D01*
X172739500Y-85775500D01*
X172719815Y-85842539D01*
X172667011Y-85888294D01*
X172615500Y-85899500D01*
X172439982Y-85899500D01*
X172337203Y-85910000D01*
X172337202Y-85910001D01*
X172284964Y-85927311D01*
X172170667Y-85965185D01*
X172170662Y-85965187D01*
X172021342Y-86057289D01*
X171897289Y-86181342D01*
X171805187Y-86330662D01*
X171805185Y-86330667D01*
X171789431Y-86378210D01*
X171750001Y-86497202D01*
X171750001Y-86497203D01*
X171750000Y-86497203D01*
X171739500Y-86599982D01*
X171739500Y-88176500D01*
X171719815Y-88243539D01*
X171667011Y-88289294D01*
X171615500Y-88300500D01*
X155201097Y-88300500D01*
X155134058Y-88280815D01*
X155113416Y-88264181D01*
X152334574Y-85485339D01*
X152301089Y-85424016D01*
X152300638Y-85421849D01*
X152269738Y-85266510D01*
X152269737Y-85266503D01*
X152269735Y-85266498D01*
X152209397Y-85120827D01*
X152209390Y-85120814D01*
X152121789Y-84989711D01*
X152121786Y-84989707D01*
X152010292Y-84878213D01*
X152010288Y-84878210D01*
X151879185Y-84790609D01*
X151879172Y-84790602D01*
X151733501Y-84730264D01*
X151733489Y-84730261D01*
X151578845Y-84699500D01*
X151578842Y-84699500D01*
X151421158Y-84699500D01*
X151421155Y-84699500D01*
X151266510Y-84730261D01*
X151266498Y-84730264D01*
X151120827Y-84790602D01*
X151120814Y-84790609D01*
X150989711Y-84878210D01*
X150989707Y-84878213D01*
X150878213Y-84989707D01*
X150878210Y-84989711D01*
X150790609Y-85120814D01*
X150790602Y-85120827D01*
X150730264Y-85266498D01*
X150730261Y-85266510D01*
X150699500Y-85421153D01*
X150699500Y-85578846D01*
X150730261Y-85733489D01*
X150730264Y-85733501D01*
X150790602Y-85879172D01*
X150790609Y-85879185D01*
X150878210Y-86010288D01*
X150878213Y-86010292D01*
X150989707Y-86121786D01*
X150989711Y-86121789D01*
X151120814Y-86209390D01*
X151120827Y-86209397D01*
X151266498Y-86269735D01*
X151266503Y-86269737D01*
X151314102Y-86279205D01*
X151421849Y-86300638D01*
X151483760Y-86333023D01*
X151485339Y-86334574D01*
X154416139Y-89265374D01*
X154416149Y-89265385D01*
X154420479Y-89269715D01*
X154420480Y-89269716D01*
X154532284Y-89381520D01*
X154532286Y-89381521D01*
X154532290Y-89381524D01*
X154636345Y-89441599D01*
X154669216Y-89460577D01*
X154781019Y-89490534D01*
X154821942Y-89501500D01*
X154821943Y-89501500D01*
X182012331Y-89501500D01*
X182012347Y-89501501D01*
X182019943Y-89501501D01*
X182178054Y-89501501D01*
X182178057Y-89501501D01*
X182330785Y-89460577D01*
X182399060Y-89421158D01*
X182467716Y-89381520D01*
X182579520Y-89269716D01*
X182579520Y-89269714D01*
X182589724Y-89259511D01*
X182589728Y-89259506D01*
X182817076Y-89032157D01*
X182878397Y-88998674D01*
X182943073Y-89001909D01*
X183118580Y-89058934D01*
X183125215Y-89061090D01*
X183374038Y-89100500D01*
X183374039Y-89100500D01*
X183625961Y-89100500D01*
X183625962Y-89100500D01*
X183874785Y-89061090D01*
X184114379Y-88983241D01*
X184338845Y-88868870D01*
X184542656Y-88720793D01*
X184720793Y-88542656D01*
X184868870Y-88338845D01*
X184983241Y-88114379D01*
X185061090Y-87874785D01*
X185100500Y-87625962D01*
X185100500Y-87374038D01*
X185061090Y-87125215D01*
X184983241Y-86885621D01*
X184983239Y-86885618D01*
X184983239Y-86885616D01*
X184922545Y-86766498D01*
X184868870Y-86661155D01*
X184800601Y-86567190D01*
X184720798Y-86457350D01*
X184720794Y-86457345D01*
X184542654Y-86279205D01*
X184542649Y-86279201D01*
X184338848Y-86131132D01*
X184338847Y-86131131D01*
X184338845Y-86131130D01*
X184268747Y-86095413D01*
X184114383Y-86016760D01*
X183874785Y-85938910D01*
X183801552Y-85927311D01*
X183625962Y-85899500D01*
X183374038Y-85899500D01*
X183307738Y-85910001D01*
X183125214Y-85938910D01*
X182885616Y-86016760D01*
X182661151Y-86131132D01*
X182457350Y-86279201D01*
X182457345Y-86279205D01*
X182279205Y-86457345D01*
X182279201Y-86457350D01*
X182131132Y-86661151D01*
X182016760Y-86885616D01*
X181938910Y-87125214D01*
X181899500Y-87374038D01*
X181899500Y-87625961D01*
X181938910Y-87874786D01*
X181938910Y-87874789D01*
X181998090Y-88056924D01*
X181998524Y-88072135D01*
X182003843Y-88086394D01*
X181999501Y-88106351D01*
X182000085Y-88126765D01*
X181991997Y-88140850D01*
X181988992Y-88154668D01*
X181967841Y-88182922D01*
X181886585Y-88264180D01*
X181825263Y-88297666D01*
X181798903Y-88300500D01*
X175064500Y-88300500D01*
X174997461Y-88280815D01*
X174951706Y-88228011D01*
X174940500Y-88176500D01*
X174940500Y-86599995D01*
X174940499Y-86599982D01*
X174937691Y-86572500D01*
X174929999Y-86497202D01*
X174874814Y-86330665D01*
X174782712Y-86181344D01*
X174658656Y-86057288D01*
X174509335Y-85965186D01*
X174342798Y-85910001D01*
X174342796Y-85910000D01*
X174240017Y-85899500D01*
X174240010Y-85899500D01*
X174064500Y-85899500D01*
X173997461Y-85879815D01*
X173951706Y-85827011D01*
X173940500Y-85775500D01*
X173940500Y-64861960D01*
X173940501Y-64861947D01*
X173940501Y-64693844D01*
X173939987Y-64691925D01*
X173899577Y-64541116D01*
X173881779Y-64510288D01*
X173820524Y-64404190D01*
X173820521Y-64404187D01*
X173820520Y-64404184D01*
X170554689Y-61138354D01*
X170554688Y-61138352D01*
X170435817Y-61019481D01*
X170435816Y-61019480D01*
X170349004Y-60969360D01*
X170349004Y-60969359D01*
X170349000Y-60969358D01*
X170298885Y-60940423D01*
X170146157Y-60899499D01*
X169988043Y-60899499D01*
X169980447Y-60899499D01*
X169980431Y-60899500D01*
X169825719Y-60899500D01*
X169758680Y-60879815D01*
X169715235Y-60831795D01*
X169695052Y-60792185D01*
X169695051Y-60792184D01*
X169570109Y-60620213D01*
X169419786Y-60469890D01*
X169247820Y-60344951D01*
X169058414Y-60248444D01*
X169058413Y-60248443D01*
X169058412Y-60248443D01*
X168856243Y-60182754D01*
X168856241Y-60182753D01*
X168856240Y-60182753D01*
X168694957Y-60157208D01*
X168646287Y-60149500D01*
X168433713Y-60149500D01*
X168385042Y-60157208D01*
X168223760Y-60182753D01*
X168021585Y-60248444D01*
X167832179Y-60344951D01*
X167660215Y-60469889D01*
X167546673Y-60583431D01*
X167485350Y-60616915D01*
X167415658Y-60611931D01*
X167359725Y-60570059D01*
X167342810Y-60539082D01*
X167293797Y-60407671D01*
X167293793Y-60407664D01*
X167207547Y-60292455D01*
X167207544Y-60292452D01*
X167092335Y-60206206D01*
X167092328Y-60206202D01*
X166957482Y-60155908D01*
X166957483Y-60155908D01*
X166897883Y-60149501D01*
X166897881Y-60149500D01*
X166897873Y-60149500D01*
X166897864Y-60149500D01*
X165102129Y-60149500D01*
X165102123Y-60149501D01*
X165042516Y-60155908D01*
X164907671Y-60206202D01*
X164907664Y-60206206D01*
X164792455Y-60292452D01*
X164792452Y-60292455D01*
X164706206Y-60407664D01*
X164706202Y-60407671D01*
X164655908Y-60542517D01*
X164649501Y-60602116D01*
X164649500Y-60602135D01*
X164649500Y-61540903D01*
X164629815Y-61607942D01*
X164577011Y-61653697D01*
X164507853Y-61663641D01*
X164444297Y-61634616D01*
X164437819Y-61628584D01*
X162947590Y-60138355D01*
X162947588Y-60138352D01*
X162828717Y-60019481D01*
X162828716Y-60019480D01*
X162741904Y-59969360D01*
X162741904Y-59969359D01*
X162741900Y-59969358D01*
X162691785Y-59940423D01*
X162539057Y-59899499D01*
X162380943Y-59899499D01*
X162373347Y-59899499D01*
X162373331Y-59899500D01*
X121079766Y-59899500D01*
X121012727Y-59879815D01*
X121010875Y-59878602D01*
X120879185Y-59790609D01*
X120879172Y-59790602D01*
X120733501Y-59730264D01*
X120733489Y-59730261D01*
X120578845Y-59699500D01*
X120578842Y-59699500D01*
X120421158Y-59699500D01*
X120421155Y-59699500D01*
X120266510Y-59730261D01*
X120266498Y-59730264D01*
X120120827Y-59790602D01*
X120120814Y-59790609D01*
X119989711Y-59878210D01*
X119989707Y-59878213D01*
X119878213Y-59989707D01*
X119878210Y-59989711D01*
X119790609Y-60120814D01*
X119790602Y-60120827D01*
X119730264Y-60266498D01*
X119730261Y-60266510D01*
X119699500Y-60421153D01*
X119699500Y-60578846D01*
X119730261Y-60733489D01*
X119730264Y-60733501D01*
X119790602Y-60879172D01*
X119790609Y-60879185D01*
X119878210Y-61010288D01*
X119878213Y-61010292D01*
X119989707Y-61121786D01*
X119989711Y-61121789D01*
X120120814Y-61209390D01*
X120120827Y-61209397D01*
X120266498Y-61269735D01*
X120266503Y-61269737D01*
X120421153Y-61300499D01*
X120421156Y-61300500D01*
X120421158Y-61300500D01*
X120578844Y-61300500D01*
X120578845Y-61300499D01*
X120733497Y-61269737D01*
X120879179Y-61209394D01*
X120879185Y-61209390D01*
X121010875Y-61121398D01*
X121077553Y-61100520D01*
X121079766Y-61100500D01*
X162159903Y-61100500D01*
X162226942Y-61120185D01*
X162247584Y-61136819D01*
X164666241Y-63555476D01*
X164699726Y-63616799D01*
X164696492Y-63681473D01*
X164682753Y-63723757D01*
X164649500Y-63933713D01*
X164649500Y-64146286D01*
X164673155Y-64295641D01*
X164682754Y-64356243D01*
X164747168Y-64554489D01*
X164748444Y-64558414D01*
X164844951Y-64747820D01*
X164969890Y-64919786D01*
X165120213Y-65070109D01*
X165292182Y-65195050D01*
X165300946Y-65199516D01*
X165351742Y-65247491D01*
X165368536Y-65315312D01*
X165345998Y-65381447D01*
X165300946Y-65420484D01*
X165292182Y-65424949D01*
X165120213Y-65549890D01*
X164969890Y-65700213D01*
X164844951Y-65872179D01*
X164748444Y-66061585D01*
X164682753Y-66263760D01*
X164649500Y-66473713D01*
X164649500Y-66686286D01*
X164682735Y-66896127D01*
X164682754Y-66896243D01*
X164747168Y-67094489D01*
X164748444Y-67098414D01*
X164844951Y-67287820D01*
X164969890Y-67459786D01*
X165120213Y-67610109D01*
X165292179Y-67735048D01*
X165292181Y-67735049D01*
X165292184Y-67735051D01*
X165481588Y-67831557D01*
X165683757Y-67897246D01*
X165893713Y-67930500D01*
X165893714Y-67930500D01*
X166106286Y-67930500D01*
X166106287Y-67930500D01*
X166316243Y-67897246D01*
X166518412Y-67831557D01*
X166707816Y-67735051D01*
X166762572Y-67695269D01*
X166879786Y-67610109D01*
X166879788Y-67610106D01*
X166879792Y-67610104D01*
X167030104Y-67459792D01*
X167030106Y-67459788D01*
X167030109Y-67459786D01*
X167115890Y-67341717D01*
X167155051Y-67287816D01*
X167159793Y-67278508D01*
X167207763Y-67227711D01*
X167275583Y-67210911D01*
X167341719Y-67233445D01*
X167380763Y-67278500D01*
X167385373Y-67287547D01*
X167424728Y-67341716D01*
X168057037Y-66709408D01*
X168074075Y-66772993D01*
X168139901Y-66887007D01*
X168232993Y-66980099D01*
X168347007Y-67045925D01*
X168410590Y-67062962D01*
X167778282Y-67695269D01*
X167778282Y-67695270D01*
X167832449Y-67734624D01*
X168021782Y-67831095D01*
X168223870Y-67896757D01*
X168433754Y-67930000D01*
X168646246Y-67930000D01*
X168856127Y-67896757D01*
X168856130Y-67896757D01*
X169058217Y-67831095D01*
X169247554Y-67734622D01*
X169301716Y-67695270D01*
X169301717Y-67695270D01*
X168669408Y-67062962D01*
X168732993Y-67045925D01*
X168847007Y-66980099D01*
X168940099Y-66887007D01*
X169005925Y-66772993D01*
X169022962Y-66709408D01*
X169655270Y-67341717D01*
X169655270Y-67341716D01*
X169694622Y-67287554D01*
X169791095Y-67098217D01*
X169856757Y-66896130D01*
X169856757Y-66896127D01*
X169890000Y-66686246D01*
X169890000Y-66473753D01*
X169856757Y-66263872D01*
X169856757Y-66263869D01*
X169791095Y-66061782D01*
X169694624Y-65872449D01*
X169655270Y-65818282D01*
X169655269Y-65818282D01*
X169022962Y-66450590D01*
X169005925Y-66387007D01*
X168940099Y-66272993D01*
X168847007Y-66179901D01*
X168732993Y-66114075D01*
X168669409Y-66097037D01*
X169301716Y-65464728D01*
X169247547Y-65425373D01*
X169247547Y-65425372D01*
X169238500Y-65420763D01*
X169187706Y-65372788D01*
X169170912Y-65304966D01*
X169193451Y-65238832D01*
X169238508Y-65199793D01*
X169247816Y-65195051D01*
X169348656Y-65121787D01*
X169419786Y-65070109D01*
X169419788Y-65070106D01*
X169419792Y-65070104D01*
X169570104Y-64919792D01*
X169570106Y-64919788D01*
X169570109Y-64919786D01*
X169649528Y-64810473D01*
X169695051Y-64747816D01*
X169695349Y-64747230D01*
X169715235Y-64708205D01*
X169763209Y-64657409D01*
X169825719Y-64640500D01*
X171275500Y-64640500D01*
X171342539Y-64660185D01*
X171388294Y-64712989D01*
X171399500Y-64764500D01*
X171399500Y-71275500D01*
X171379815Y-71342539D01*
X171327011Y-71388294D01*
X171275500Y-71399500D01*
X163586670Y-71399500D01*
X163586654Y-71399499D01*
X163579058Y-71399499D01*
X163420943Y-71399499D01*
X163344579Y-71419961D01*
X163268214Y-71440423D01*
X163268209Y-71440426D01*
X163131290Y-71519475D01*
X163131282Y-71519481D01*
X163087679Y-71563084D01*
X163026356Y-71596568D01*
X162956664Y-71591583D01*
X162912318Y-71563083D01*
X153386590Y-62037355D01*
X153386588Y-62037352D01*
X153267717Y-61918481D01*
X153267716Y-61918480D01*
X153180904Y-61868360D01*
X153180904Y-61868359D01*
X153180900Y-61868358D01*
X153130785Y-61839423D01*
X152978057Y-61798499D01*
X152819943Y-61798499D01*
X152812347Y-61798499D01*
X152812331Y-61798500D01*
X104337726Y-61798500D01*
X104337710Y-61798499D01*
X104330114Y-61798499D01*
X104172000Y-61798499D01*
X104064644Y-61827265D01*
X104019267Y-61839424D01*
X104019266Y-61839425D01*
X103969153Y-61868359D01*
X103969152Y-61868360D01*
X103925746Y-61893420D01*
X103882342Y-61918479D01*
X103882339Y-61918481D01*
X103019481Y-62781339D01*
X103019475Y-62781347D01*
X102977889Y-62853378D01*
X102977889Y-62853380D01*
X102940423Y-62918271D01*
X102939464Y-62921850D01*
X102899499Y-63071000D01*
X102899499Y-63071002D01*
X102899499Y-63239103D01*
X102899500Y-63239116D01*
X102899500Y-65420234D01*
X102879815Y-65487273D01*
X102878602Y-65489125D01*
X102790609Y-65620814D01*
X102790602Y-65620827D01*
X102740061Y-65742847D01*
X102696220Y-65797251D01*
X102629926Y-65819316D01*
X102562227Y-65802037D01*
X102514616Y-65750900D01*
X102501500Y-65695395D01*
X102501500Y-51877400D01*
X102521185Y-51810361D01*
X102573989Y-51764606D01*
X102625500Y-51753400D01*
X103261091Y-51753400D01*
X103261107Y-51753401D01*
X103268703Y-51753401D01*
X103426814Y-51753401D01*
X103426817Y-51753401D01*
X103579545Y-51712477D01*
X103629664Y-51683539D01*
X103716476Y-51633420D01*
X103828280Y-51521616D01*
X103828280Y-51521614D01*
X103838488Y-51511407D01*
X103838490Y-51511404D01*
X110798506Y-44551388D01*
X110798511Y-44551384D01*
X110808714Y-44541180D01*
X110808716Y-44541180D01*
X110920520Y-44429376D01*
X110984892Y-44317880D01*
X110999577Y-44292445D01*
X111040301Y-44140461D01*
X111041363Y-44137225D01*
X111059300Y-44111147D01*
X111075778Y-44084114D01*
X111080152Y-44080831D01*
X111080959Y-44079659D01*
X111082673Y-44078940D01*
X111094408Y-44070135D01*
X111095403Y-44069525D01*
X111095402Y-44069525D01*
X111095405Y-44069524D01*
X111254646Y-43953828D01*
X111393828Y-43814646D01*
X111509524Y-43655405D01*
X111598884Y-43480025D01*
X111659709Y-43292826D01*
X111665310Y-43257465D01*
X111690500Y-43098422D01*
X111690500Y-42901577D01*
X111659709Y-42707173D01*
X111602221Y-42530245D01*
X111598884Y-42519975D01*
X111598882Y-42519972D01*
X111598882Y-42519970D01*
X111509523Y-42344594D01*
X111495890Y-42325830D01*
X111393828Y-42185354D01*
X111254646Y-42046172D01*
X111095405Y-41930476D01*
X110920029Y-41841117D01*
X110732826Y-41780290D01*
X110538422Y-41749500D01*
X110538417Y-41749500D01*
X110341583Y-41749500D01*
X110341578Y-41749500D01*
X110147173Y-41780290D01*
X109959970Y-41841117D01*
X109784594Y-41930476D01*
X109693741Y-41996485D01*
X109625354Y-42046172D01*
X109625352Y-42046174D01*
X109625351Y-42046174D01*
X109486174Y-42185351D01*
X109486174Y-42185352D01*
X109486172Y-42185354D01*
X109436485Y-42253741D01*
X109370476Y-42344594D01*
X109281117Y-42519970D01*
X109220290Y-42707173D01*
X109189500Y-42901577D01*
X109189500Y-43098422D01*
X109220290Y-43292826D01*
X109281117Y-43480029D01*
X109370476Y-43655405D01*
X109486172Y-43814646D01*
X109486174Y-43814648D01*
X109573794Y-43902268D01*
X109607279Y-43963591D01*
X109602295Y-44033283D01*
X109573794Y-44077630D01*
X103135344Y-50516081D01*
X103074021Y-50549566D01*
X103047663Y-50552400D01*
X102587197Y-50552400D01*
X102520158Y-50532715D01*
X102499516Y-50516081D01*
X98142451Y-46159016D01*
X98108966Y-46097693D01*
X98113950Y-46028001D01*
X98127024Y-46002452D01*
X98209394Y-45879179D01*
X98269737Y-45733497D01*
X98300500Y-45578842D01*
X98300638Y-45578150D01*
X98333023Y-45516239D01*
X98334518Y-45514716D01*
X100947658Y-42901577D01*
X104309500Y-42901577D01*
X104309500Y-43098422D01*
X104340290Y-43292826D01*
X104401117Y-43480029D01*
X104490476Y-43655405D01*
X104606172Y-43814646D01*
X104745354Y-43953828D01*
X104904595Y-44069524D01*
X104986285Y-44111147D01*
X105079970Y-44158882D01*
X105079972Y-44158882D01*
X105079975Y-44158884D01*
X105180317Y-44191487D01*
X105267173Y-44219709D01*
X105461578Y-44250500D01*
X105461583Y-44250500D01*
X105658422Y-44250500D01*
X105852826Y-44219709D01*
X106040025Y-44158884D01*
X106215405Y-44069524D01*
X106374646Y-43953828D01*
X106513828Y-43814646D01*
X106629524Y-43655405D01*
X106718884Y-43480025D01*
X106779709Y-43292826D01*
X106785310Y-43257465D01*
X106810500Y-43098422D01*
X106810500Y-42901577D01*
X106779709Y-42707173D01*
X106722221Y-42530245D01*
X106718884Y-42519975D01*
X106718882Y-42519972D01*
X106718882Y-42519970D01*
X106629523Y-42344594D01*
X106615890Y-42325830D01*
X106513828Y-42185354D01*
X106374646Y-42046172D01*
X106215405Y-41930476D01*
X106040029Y-41841117D01*
X105852826Y-41780290D01*
X105658422Y-41749500D01*
X105658417Y-41749500D01*
X105461583Y-41749500D01*
X105461578Y-41749500D01*
X105267173Y-41780290D01*
X105079970Y-41841117D01*
X104904594Y-41930476D01*
X104813741Y-41996485D01*
X104745354Y-42046172D01*
X104745352Y-42046174D01*
X104745351Y-42046174D01*
X104606174Y-42185351D01*
X104606174Y-42185352D01*
X104606172Y-42185354D01*
X104556485Y-42253741D01*
X104490476Y-42344594D01*
X104401117Y-42519970D01*
X104340290Y-42707173D01*
X104309500Y-42901577D01*
X100947658Y-42901577D01*
X105212417Y-38636819D01*
X105273740Y-38603334D01*
X105300098Y-38600500D01*
X114920943Y-38600500D01*
X121199903Y-38600500D01*
X121266942Y-38620185D01*
X121287584Y-38636819D01*
X130665425Y-48014660D01*
X130698910Y-48075983D01*
X130699361Y-48078149D01*
X130730261Y-48233491D01*
X130730264Y-48233501D01*
X130790602Y-48379172D01*
X130790609Y-48379185D01*
X130878210Y-48510288D01*
X130878213Y-48510292D01*
X130989707Y-48621786D01*
X130989711Y-48621789D01*
X131120814Y-48709390D01*
X131120827Y-48709397D01*
X131266498Y-48769735D01*
X131266503Y-48769737D01*
X131421153Y-48800499D01*
X131421156Y-48800500D01*
X131421158Y-48800500D01*
X131578844Y-48800500D01*
X131578845Y-48800499D01*
X131733497Y-48769737D01*
X131879179Y-48709394D01*
X132010289Y-48621789D01*
X132121789Y-48510289D01*
X132209394Y-48379179D01*
X132269737Y-48233497D01*
X132300500Y-48078842D01*
X132300500Y-47921158D01*
X132300500Y-47921155D01*
X132300499Y-47921153D01*
X132269738Y-47766510D01*
X132269737Y-47766503D01*
X132269735Y-47766498D01*
X132209397Y-47620827D01*
X132209390Y-47620814D01*
X132121789Y-47489711D01*
X132121786Y-47489707D01*
X132010292Y-47378213D01*
X132010288Y-47378210D01*
X131879185Y-47290609D01*
X131879172Y-47290602D01*
X131733501Y-47230264D01*
X131733491Y-47230261D01*
X131578151Y-47199362D01*
X131516241Y-47166977D01*
X131514662Y-47165426D01*
X121987590Y-37638355D01*
X121987588Y-37638352D01*
X121868717Y-37519481D01*
X121868716Y-37519480D01*
X121781904Y-37469360D01*
X121781904Y-37469359D01*
X121781900Y-37469358D01*
X121731785Y-37440423D01*
X121579057Y-37399499D01*
X121420943Y-37399499D01*
X121413347Y-37399499D01*
X121413331Y-37399500D01*
X105086670Y-37399500D01*
X105086654Y-37399499D01*
X105079058Y-37399499D01*
X104920943Y-37399499D01*
X104844579Y-37419961D01*
X104768214Y-37440423D01*
X104768209Y-37440426D01*
X104631290Y-37519475D01*
X104631282Y-37519481D01*
X97485339Y-44665425D01*
X97424016Y-44698910D01*
X97421850Y-44699361D01*
X97266508Y-44730261D01*
X97266498Y-44730264D01*
X97120827Y-44790602D01*
X97120814Y-44790609D01*
X96997555Y-44872969D01*
X96930877Y-44893847D01*
X96863497Y-44875362D01*
X96840983Y-44857548D01*
X92904790Y-40921355D01*
X92904788Y-40921352D01*
X92785917Y-40802481D01*
X92785916Y-40802480D01*
X92699104Y-40752360D01*
X92699104Y-40752359D01*
X92699100Y-40752358D01*
X92648985Y-40723423D01*
X92496257Y-40682499D01*
X92338143Y-40682499D01*
X92330547Y-40682499D01*
X92330531Y-40682500D01*
X66548840Y-40682500D01*
X66507919Y-40693464D01*
X66507919Y-40693465D01*
X66470651Y-40703451D01*
X66396114Y-40723423D01*
X66396109Y-40723426D01*
X66259190Y-40802475D01*
X66259182Y-40802481D01*
X60215481Y-46846182D01*
X60215479Y-46846185D01*
X60165361Y-46932994D01*
X60165359Y-46932996D01*
X60136425Y-46983109D01*
X60136424Y-46983110D01*
X60136423Y-46983115D01*
X60095499Y-47135843D01*
X60095499Y-47135845D01*
X60095499Y-47303946D01*
X60095500Y-47303959D01*
X60095500Y-70026373D01*
X60095499Y-70026391D01*
X60095499Y-70192097D01*
X60095498Y-70192097D01*
X60136423Y-70344829D01*
X60149242Y-70367030D01*
X60149243Y-70367035D01*
X60149244Y-70367035D01*
X60215475Y-70481752D01*
X60215481Y-70481760D01*
X60334349Y-70600628D01*
X60334355Y-70600633D01*
X72287209Y-82553487D01*
X72320694Y-82614810D01*
X72323528Y-82641168D01*
X72323528Y-89821501D01*
X72323527Y-89821519D01*
X72323527Y-89987225D01*
X72323526Y-89987225D01*
X72364451Y-90139956D01*
X72393386Y-90190071D01*
X72393387Y-90190075D01*
X72393388Y-90190075D01*
X72443507Y-90276885D01*
X72443509Y-90276888D01*
X72562377Y-90395756D01*
X72562383Y-90395761D01*
X76933996Y-94767374D01*
X76934006Y-94767385D01*
X76938336Y-94771715D01*
X76938337Y-94771716D01*
X77050141Y-94883520D01*
X77115324Y-94921153D01*
X77115330Y-94921156D01*
X77115332Y-94921158D01*
X77115333Y-94921158D01*
X77187072Y-94962577D01*
X77339800Y-95003500D01*
X77497914Y-95003500D01*
X80548813Y-95003500D01*
X80615852Y-95023185D01*
X80661607Y-95075989D01*
X80671551Y-95145147D01*
X80669391Y-95156430D01*
X80669023Y-95157961D01*
X80637000Y-95360148D01*
X80637000Y-95564851D01*
X80669022Y-95767034D01*
X80732281Y-95961723D01*
X80796191Y-96087153D01*
X80824485Y-96142682D01*
X80825215Y-96144113D01*
X80945528Y-96309713D01*
X81090286Y-96454471D01*
X81245249Y-96567056D01*
X81255890Y-96574787D01*
X81347340Y-96621383D01*
X81348580Y-96622015D01*
X81399376Y-96669990D01*
X81416171Y-96737811D01*
X81393634Y-96803946D01*
X81348580Y-96842985D01*
X81255886Y-96890215D01*
X81090286Y-97010528D01*
X80945528Y-97155286D01*
X80825215Y-97320886D01*
X80732281Y-97503276D01*
X80669022Y-97697965D01*
X80637000Y-97900148D01*
X80637000Y-98104851D01*
X80669022Y-98307034D01*
X80732281Y-98501723D01*
X80825215Y-98684113D01*
X80945528Y-98849713D01*
X81090286Y-98994471D01*
X81206418Y-99078844D01*
X81255890Y-99114787D01*
X81345000Y-99160191D01*
X81348580Y-99162015D01*
X81399376Y-99209990D01*
X81416171Y-99277811D01*
X81393634Y-99343946D01*
X81348580Y-99382985D01*
X81255886Y-99430215D01*
X81090286Y-99550528D01*
X80945528Y-99695286D01*
X80825215Y-99860886D01*
X80732281Y-100043276D01*
X80669022Y-100237965D01*
X80637000Y-100440148D01*
X80637000Y-100644851D01*
X80669022Y-100847034D01*
X80732281Y-101041723D01*
X80825215Y-101224113D01*
X80945528Y-101389713D01*
X81090286Y-101534471D01*
X81245249Y-101647056D01*
X81255890Y-101654787D01*
X81347340Y-101701383D01*
X81348580Y-101702015D01*
X81399376Y-101749990D01*
X81416171Y-101817811D01*
X81393634Y-101883946D01*
X81348580Y-101922985D01*
X81255886Y-101970215D01*
X81090286Y-102090528D01*
X80945528Y-102235286D01*
X80825215Y-102400886D01*
X80732281Y-102583276D01*
X80669022Y-102777965D01*
X80637000Y-102980148D01*
X80637000Y-103184851D01*
X80669022Y-103387034D01*
X80732281Y-103581723D01*
X80825215Y-103764113D01*
X80945528Y-103929713D01*
X81090286Y-104074471D01*
X81245249Y-104187056D01*
X81255890Y-104194787D01*
X81347340Y-104241383D01*
X81348580Y-104242015D01*
X81399376Y-104289990D01*
X81416171Y-104357811D01*
X81393634Y-104423946D01*
X81348580Y-104462985D01*
X81255886Y-104510215D01*
X81090286Y-104630528D01*
X80945528Y-104775286D01*
X80825215Y-104940886D01*
X80732281Y-105123276D01*
X80669022Y-105317965D01*
X80637000Y-105520148D01*
X80637000Y-105724851D01*
X80669022Y-105927034D01*
X80732281Y-106121723D01*
X80776954Y-106209397D01*
X80823373Y-106300499D01*
X80825215Y-106304113D01*
X80945528Y-106469713D01*
X81090286Y-106614471D01*
X81245249Y-106727056D01*
X81255890Y-106734787D01*
X81372107Y-106794003D01*
X81438276Y-106827718D01*
X81438278Y-106827718D01*
X81438281Y-106827720D01*
X81542637Y-106861627D01*
X81632965Y-106890977D01*
X81734057Y-106906988D01*
X81835148Y-106923000D01*
X81835149Y-106923000D01*
X82039851Y-106923000D01*
X82039852Y-106923000D01*
X82242034Y-106890977D01*
X82436719Y-106827720D01*
X82619110Y-106734787D01*
X82712090Y-106667232D01*
X82784713Y-106614471D01*
X82784715Y-106614468D01*
X82784719Y-106614466D01*
X82929466Y-106469719D01*
X82929468Y-106469715D01*
X82929471Y-106469713D01*
X83027073Y-106335373D01*
X83049787Y-106304110D01*
X83142720Y-106121719D01*
X83205977Y-105927034D01*
X83238000Y-105724852D01*
X83238000Y-105520148D01*
X83222321Y-105421158D01*
X83205977Y-105317965D01*
X83170700Y-105209394D01*
X83142720Y-105123281D01*
X83142718Y-105123278D01*
X83142718Y-105123276D01*
X83085149Y-105010292D01*
X83049787Y-104940890D01*
X83005414Y-104879815D01*
X82929471Y-104775286D01*
X82784713Y-104630528D01*
X82619114Y-104510215D01*
X82612506Y-104506848D01*
X82526417Y-104462983D01*
X82475623Y-104415011D01*
X82458828Y-104347190D01*
X82481365Y-104281055D01*
X82526417Y-104242016D01*
X82619110Y-104194787D01*
X82640270Y-104179413D01*
X82784713Y-104074471D01*
X82784715Y-104074468D01*
X82784719Y-104074466D01*
X82929466Y-103929719D01*
X82929468Y-103929715D01*
X82929471Y-103929713D01*
X83023348Y-103800500D01*
X83049787Y-103764110D01*
X83142720Y-103581719D01*
X83205977Y-103387034D01*
X83238000Y-103184852D01*
X83238000Y-102980148D01*
X83205977Y-102777966D01*
X83202252Y-102766503D01*
X83142718Y-102583276D01*
X83109003Y-102517107D01*
X83049787Y-102400890D01*
X82988467Y-102316489D01*
X82929471Y-102235286D01*
X82784713Y-102090528D01*
X82619114Y-101970215D01*
X82612506Y-101966848D01*
X82526417Y-101922983D01*
X82475623Y-101875011D01*
X82458828Y-101807190D01*
X82481365Y-101741055D01*
X82526417Y-101702016D01*
X82619110Y-101654787D01*
X82664532Y-101621786D01*
X82784713Y-101534471D01*
X82784715Y-101534468D01*
X82784719Y-101534466D01*
X82929466Y-101389719D01*
X82929468Y-101389715D01*
X82929471Y-101389713D01*
X82982232Y-101317090D01*
X83049787Y-101224110D01*
X83142720Y-101041719D01*
X83205977Y-100847034D01*
X83238000Y-100644852D01*
X83238000Y-100440148D01*
X83205977Y-100237966D01*
X83201327Y-100223657D01*
X83200892Y-100208443D01*
X83195574Y-100194182D01*
X83199914Y-100174229D01*
X83199331Y-100153818D01*
X83207420Y-100139729D01*
X83210427Y-100125909D01*
X83231579Y-100097655D01*
X83250919Y-100078316D01*
X83312243Y-100044833D01*
X83338598Y-100042000D01*
X88097619Y-100042000D01*
X88164658Y-100061685D01*
X88210413Y-100114489D01*
X88220357Y-100183647D01*
X88191332Y-100247203D01*
X88145071Y-100280561D01*
X88120826Y-100290602D01*
X88120814Y-100290609D01*
X87989711Y-100378210D01*
X87989707Y-100378213D01*
X87878213Y-100489707D01*
X87878210Y-100489711D01*
X87790609Y-100620814D01*
X87790602Y-100620827D01*
X87730264Y-100766498D01*
X87730261Y-100766510D01*
X87699500Y-100921153D01*
X87699500Y-101078846D01*
X87730261Y-101233489D01*
X87730264Y-101233501D01*
X87790602Y-101379172D01*
X87790609Y-101379185D01*
X87878210Y-101510288D01*
X87878213Y-101510292D01*
X87989707Y-101621786D01*
X87989711Y-101621789D01*
X88120814Y-101709390D01*
X88120827Y-101709397D01*
X88218829Y-101749990D01*
X88266503Y-101769737D01*
X88331147Y-101782595D01*
X88421849Y-101800638D01*
X88438605Y-101809402D01*
X88457085Y-101813423D01*
X88482123Y-101832167D01*
X88483760Y-101833023D01*
X88485338Y-101834573D01*
X88658639Y-102007874D01*
X88658649Y-102007885D01*
X88662979Y-102012215D01*
X88662980Y-102012216D01*
X88774784Y-102124020D01*
X88774786Y-102124021D01*
X88774790Y-102124024D01*
X88905520Y-102199500D01*
X88911716Y-102203077D01*
X89013176Y-102230263D01*
X89064442Y-102244000D01*
X89064443Y-102244000D01*
X95942803Y-102244000D01*
X96009842Y-102263685D01*
X96055597Y-102316489D01*
X96065541Y-102385647D01*
X96053288Y-102424295D01*
X95972281Y-102583276D01*
X95909022Y-102777965D01*
X95877000Y-102980148D01*
X95877000Y-103184851D01*
X95909022Y-103387034D01*
X95972281Y-103581723D01*
X96065215Y-103764113D01*
X96185528Y-103929713D01*
X96330286Y-104074471D01*
X96485249Y-104187056D01*
X96495890Y-104194787D01*
X96587340Y-104241383D01*
X96588580Y-104242015D01*
X96639376Y-104289990D01*
X96656171Y-104357811D01*
X96633634Y-104423946D01*
X96588580Y-104462985D01*
X96495886Y-104510215D01*
X96330286Y-104630528D01*
X96185528Y-104775286D01*
X96065215Y-104940886D01*
X95972281Y-105123276D01*
X95909022Y-105317965D01*
X95877000Y-105520148D01*
X95877000Y-105724851D01*
X95909022Y-105927034D01*
X95972281Y-106121723D01*
X96016954Y-106209397D01*
X96063373Y-106300499D01*
X96065215Y-106304113D01*
X96185528Y-106469713D01*
X96330286Y-106614471D01*
X96485249Y-106727056D01*
X96495890Y-106734787D01*
X96612107Y-106794003D01*
X96678276Y-106827718D01*
X96678278Y-106827718D01*
X96678281Y-106827720D01*
X96782637Y-106861627D01*
X96872965Y-106890977D01*
X96974057Y-106906988D01*
X97075148Y-106923000D01*
X97075149Y-106923000D01*
X97279851Y-106923000D01*
X97279852Y-106923000D01*
X97482034Y-106890977D01*
X97676719Y-106827720D01*
X97859110Y-106734787D01*
X97952090Y-106667232D01*
X98024713Y-106614471D01*
X98024715Y-106614468D01*
X98024719Y-106614466D01*
X98169466Y-106469719D01*
X98169468Y-106469715D01*
X98169471Y-106469713D01*
X98267073Y-106335373D01*
X98289787Y-106304110D01*
X98382720Y-106121719D01*
X98445977Y-105927034D01*
X98478000Y-105724852D01*
X98478000Y-105520148D01*
X98462321Y-105421158D01*
X98445977Y-105317965D01*
X98410700Y-105209394D01*
X98382720Y-105123281D01*
X98382718Y-105123278D01*
X98382718Y-105123276D01*
X98325149Y-105010292D01*
X98289787Y-104940890D01*
X98245414Y-104879815D01*
X98169471Y-104775286D01*
X98024713Y-104630528D01*
X97859114Y-104510215D01*
X97852506Y-104506848D01*
X97766417Y-104462983D01*
X97715623Y-104415011D01*
X97698828Y-104347190D01*
X97721365Y-104281055D01*
X97766417Y-104242016D01*
X97859110Y-104194787D01*
X97880270Y-104179413D01*
X98024713Y-104074471D01*
X98024715Y-104074468D01*
X98024719Y-104074466D01*
X98169466Y-103929719D01*
X98169468Y-103929715D01*
X98169471Y-103929713D01*
X98263348Y-103800500D01*
X98289787Y-103764110D01*
X98382720Y-103581719D01*
X98445977Y-103387034D01*
X98478000Y-103184852D01*
X98478000Y-102980148D01*
X98445977Y-102777966D01*
X98442252Y-102766503D01*
X98382718Y-102583276D01*
X98317704Y-102455681D01*
X98301711Y-102424293D01*
X98288816Y-102355626D01*
X98315092Y-102290886D01*
X98372198Y-102250628D01*
X98412197Y-102244000D01*
X105107402Y-102244000D01*
X105174441Y-102263685D01*
X105220196Y-102316489D01*
X105230140Y-102385647D01*
X105201115Y-102449203D01*
X105195083Y-102455681D01*
X97287584Y-110363181D01*
X97226261Y-110396666D01*
X97199903Y-110399500D01*
X74086670Y-110399500D01*
X74086654Y-110399499D01*
X74079058Y-110399499D01*
X73920943Y-110399499D01*
X73844579Y-110419961D01*
X73768214Y-110440423D01*
X73768209Y-110440426D01*
X73631290Y-110519475D01*
X73631282Y-110519481D01*
X70631284Y-113519481D01*
X68287584Y-115863181D01*
X68226261Y-115896666D01*
X68199903Y-115899500D01*
X64079057Y-115899500D01*
X52579057Y-115899500D01*
X52420942Y-115899500D01*
X52268215Y-115940423D01*
X52268214Y-115940423D01*
X52268212Y-115940424D01*
X52268209Y-115940425D01*
X52218096Y-115969359D01*
X52218095Y-115969360D01*
X52174689Y-115994420D01*
X52131285Y-116019479D01*
X52131282Y-116019481D01*
X47235339Y-120915425D01*
X47174016Y-120948910D01*
X47171850Y-120949361D01*
X47016508Y-120980261D01*
X47016498Y-120980264D01*
X46870827Y-121040602D01*
X46870814Y-121040609D01*
X46739711Y-121128210D01*
X46739707Y-121128213D01*
X46628213Y-121239707D01*
X46628210Y-121239711D01*
X46540609Y-121370814D01*
X46540602Y-121370827D01*
X46480264Y-121516498D01*
X46480261Y-121516510D01*
X46449500Y-121671153D01*
X25379418Y-121671153D01*
X25673863Y-114334574D01*
X25819987Y-110693665D01*
X25859780Y-109702155D01*
X60475000Y-109702155D01*
X60475000Y-110250000D01*
X61219670Y-110250000D01*
X61199925Y-110269745D01*
X61150556Y-110355255D01*
X61125000Y-110450630D01*
X61125000Y-110549370D01*
X61150556Y-110644745D01*
X61199925Y-110730255D01*
X61219670Y-110750000D01*
X60475000Y-110750000D01*
X60475000Y-111297844D01*
X60481401Y-111357372D01*
X60481403Y-111357379D01*
X60531645Y-111492086D01*
X60531649Y-111492093D01*
X60617809Y-111607187D01*
X60617812Y-111607190D01*
X60732906Y-111693350D01*
X60732913Y-111693354D01*
X60867620Y-111743596D01*
X60867627Y-111743598D01*
X60927155Y-111749999D01*
X60927172Y-111750000D01*
X61250000Y-111750000D01*
X61250000Y-110780330D01*
X61269745Y-110800075D01*
X61355255Y-110849444D01*
X61450630Y-110875000D01*
X61549370Y-110875000D01*
X61644745Y-110849444D01*
X61730255Y-110800075D01*
X61744500Y-110785830D01*
X61744500Y-110826002D01*
X61747617Y-110841671D01*
X61750000Y-110865865D01*
X61750000Y-111750000D01*
X62072828Y-111750000D01*
X62072844Y-111749999D01*
X62132372Y-111743598D01*
X62132376Y-111743597D01*
X62267089Y-111693352D01*
X62267896Y-111692748D01*
X62268845Y-111692393D01*
X62274876Y-111689101D01*
X62275349Y-111689967D01*
X62333360Y-111668329D01*
X62389661Y-111677451D01*
X62470873Y-111711091D01*
X62634288Y-111743596D01*
X62668992Y-111750499D01*
X62668996Y-111750500D01*
X62668997Y-111750500D01*
X62871004Y-111750500D01*
X62871005Y-111750499D01*
X63069127Y-111711091D01*
X63255756Y-111633786D01*
X63336110Y-111580094D01*
X63402786Y-111559217D01*
X63470166Y-111577701D01*
X63473865Y-111580078D01*
X63554244Y-111633786D01*
X63740873Y-111711091D01*
X63904288Y-111743596D01*
X63938992Y-111750499D01*
X63938996Y-111750500D01*
X63938997Y-111750500D01*
X64141004Y-111750500D01*
X64141005Y-111750499D01*
X64339127Y-111711091D01*
X64525756Y-111633786D01*
X64693718Y-111521558D01*
X64693717Y-111521558D01*
X64693721Y-111521556D01*
X64693721Y-111521555D01*
X64836558Y-111378718D01*
X64948782Y-111210762D01*
X64948782Y-111210761D01*
X64948786Y-111210756D01*
X65026091Y-111024127D01*
X65065500Y-110826003D01*
X65065500Y-110173997D01*
X65026091Y-109975873D01*
X64948786Y-109789244D01*
X64948784Y-109789241D01*
X64948782Y-109789237D01*
X64836558Y-109621281D01*
X64693718Y-109478441D01*
X64525762Y-109366217D01*
X64525752Y-109366212D01*
X64339127Y-109288909D01*
X64339119Y-109288907D01*
X64141007Y-109249500D01*
X64141003Y-109249500D01*
X63938997Y-109249500D01*
X63938992Y-109249500D01*
X63740880Y-109288907D01*
X63740872Y-109288909D01*
X63554244Y-109366213D01*
X63473891Y-109419904D01*
X63407213Y-109440782D01*
X63339833Y-109422297D01*
X63336109Y-109419904D01*
X63255755Y-109366213D01*
X63069127Y-109288909D01*
X63069119Y-109288907D01*
X62871007Y-109249500D01*
X62871003Y-109249500D01*
X62668997Y-109249500D01*
X62668992Y-109249500D01*
X62470880Y-109288907D01*
X62470868Y-109288910D01*
X62389661Y-109322547D01*
X62320191Y-109330016D01*
X62275140Y-109310405D01*
X62274872Y-109310897D01*
X62269374Y-109307894D01*
X62267895Y-109307251D01*
X62267086Y-109306645D01*
X62132379Y-109256403D01*
X62132372Y-109256401D01*
X62072844Y-109250000D01*
X61750000Y-109250000D01*
X61750000Y-110134134D01*
X61747617Y-110158326D01*
X61744500Y-110173995D01*
X61744500Y-110214170D01*
X61730255Y-110199925D01*
X61644745Y-110150556D01*
X61549370Y-110125000D01*
X61450630Y-110125000D01*
X61355255Y-110150556D01*
X61269745Y-110199925D01*
X61250000Y-110219670D01*
X61250000Y-109250000D01*
X60927155Y-109250000D01*
X60867627Y-109256401D01*
X60867620Y-109256403D01*
X60732913Y-109306645D01*
X60732906Y-109306649D01*
X60617812Y-109392809D01*
X60617809Y-109392812D01*
X60531649Y-109507906D01*
X60531645Y-109507913D01*
X60481403Y-109642620D01*
X60481401Y-109642627D01*
X60475000Y-109702155D01*
X25859780Y-109702155D01*
X25860112Y-109693878D01*
X27646199Y-65190534D01*
X28098482Y-53921153D01*
X47199500Y-53921153D01*
X47199500Y-54078846D01*
X47230261Y-54233489D01*
X47230264Y-54233501D01*
X47290602Y-54379172D01*
X47290609Y-54379185D01*
X47378210Y-54510288D01*
X47378213Y-54510292D01*
X47489707Y-54621786D01*
X47489711Y-54621789D01*
X47620814Y-54709390D01*
X47620827Y-54709397D01*
X47766498Y-54769735D01*
X47766503Y-54769737D01*
X47921153Y-54800499D01*
X47921156Y-54800500D01*
X47921158Y-54800500D01*
X48078844Y-54800500D01*
X48078845Y-54800499D01*
X48233497Y-54769737D01*
X48379179Y-54709394D01*
X48379185Y-54709390D01*
X48510875Y-54621398D01*
X48577553Y-54600520D01*
X48579766Y-54600500D01*
X55699903Y-54600500D01*
X55766942Y-54620185D01*
X55787584Y-54636819D01*
X57665425Y-56514660D01*
X57698910Y-56575983D01*
X57699361Y-56578149D01*
X57730261Y-56733491D01*
X57730264Y-56733501D01*
X57790602Y-56879172D01*
X57790609Y-56879185D01*
X57878210Y-57010288D01*
X57878213Y-57010292D01*
X57989707Y-57121786D01*
X57989711Y-57121789D01*
X58120814Y-57209390D01*
X58120827Y-57209397D01*
X58200826Y-57242533D01*
X58266503Y-57269737D01*
X58421153Y-57300499D01*
X58421156Y-57300500D01*
X58421158Y-57300500D01*
X58578844Y-57300500D01*
X58578845Y-57300499D01*
X58733497Y-57269737D01*
X58879179Y-57209394D01*
X59010289Y-57121789D01*
X59121789Y-57010289D01*
X59209394Y-56879179D01*
X59269737Y-56733497D01*
X59300500Y-56578842D01*
X59300500Y-56421158D01*
X59300500Y-56421155D01*
X59300499Y-56421153D01*
X59269737Y-56266503D01*
X59262990Y-56250213D01*
X59209397Y-56120827D01*
X59209390Y-56120814D01*
X59121789Y-55989711D01*
X59121786Y-55989707D01*
X59010292Y-55878213D01*
X59010288Y-55878210D01*
X58879185Y-55790609D01*
X58879172Y-55790602D01*
X58733501Y-55730264D01*
X58733491Y-55730261D01*
X58578149Y-55699361D01*
X58516238Y-55666976D01*
X58514660Y-55665425D01*
X56487590Y-53638355D01*
X56487588Y-53638352D01*
X56368717Y-53519481D01*
X56368716Y-53519480D01*
X56281904Y-53469360D01*
X56281904Y-53469359D01*
X56281900Y-53469358D01*
X56231785Y-53440423D01*
X56079057Y-53399499D01*
X55920943Y-53399499D01*
X55913347Y-53399499D01*
X55913331Y-53399500D01*
X48579766Y-53399500D01*
X48512727Y-53379815D01*
X48510875Y-53378602D01*
X48379185Y-53290609D01*
X48379172Y-53290602D01*
X48233501Y-53230264D01*
X48233489Y-53230261D01*
X48078845Y-53199500D01*
X48078842Y-53199500D01*
X47921158Y-53199500D01*
X47921155Y-53199500D01*
X47766510Y-53230261D01*
X47766498Y-53230264D01*
X47620827Y-53290602D01*
X47620814Y-53290609D01*
X47489711Y-53378210D01*
X47489707Y-53378213D01*
X47378213Y-53489707D01*
X47378210Y-53489711D01*
X47290609Y-53620814D01*
X47290602Y-53620827D01*
X47230264Y-53766498D01*
X47230261Y-53766510D01*
X47199500Y-53921153D01*
X28098482Y-53921153D01*
X28311166Y-48621786D01*
X29203105Y-26397648D01*
X188699500Y-26397648D01*
X188699500Y-26602351D01*
X188731522Y-26804534D01*
X188794781Y-26999223D01*
X188887715Y-27181613D01*
X189008028Y-27347213D01*
X189152786Y-27491971D01*
X189307749Y-27604556D01*
X189318390Y-27612287D01*
X189434607Y-27671503D01*
X189500776Y-27705218D01*
X189500778Y-27705218D01*
X189500781Y-27705220D01*
X189605137Y-27739127D01*
X189695465Y-27768477D01*
X189796557Y-27784488D01*
X189897648Y-27800500D01*
X189897649Y-27800500D01*
X190102351Y-27800500D01*
X190102352Y-27800500D01*
X190304534Y-27768477D01*
X190499219Y-27705220D01*
X190681610Y-27612287D01*
X190774590Y-27544732D01*
X190847213Y-27491971D01*
X190847215Y-27491968D01*
X190847219Y-27491966D01*
X190991966Y-27347219D01*
X190991968Y-27347215D01*
X190991971Y-27347213D01*
X191044732Y-27274590D01*
X191112287Y-27181610D01*
X191205220Y-26999219D01*
X191268477Y-26804534D01*
X191300500Y-26602352D01*
X191300500Y-26397648D01*
X191268477Y-26195466D01*
X191205220Y-26000781D01*
X191205218Y-26000778D01*
X191205218Y-26000776D01*
X191171503Y-25934607D01*
X191112287Y-25818390D01*
X191104556Y-25807749D01*
X190991971Y-25652786D01*
X190847213Y-25508028D01*
X190681613Y-25387715D01*
X190681612Y-25387714D01*
X190681610Y-25387713D01*
X190624653Y-25358691D01*
X190499223Y-25294781D01*
X190304534Y-25231522D01*
X190129995Y-25203878D01*
X190102352Y-25199500D01*
X189897648Y-25199500D01*
X189873329Y-25203351D01*
X189695465Y-25231522D01*
X189500776Y-25294781D01*
X189318386Y-25387715D01*
X189152786Y-25508028D01*
X189008028Y-25652786D01*
X188887715Y-25818386D01*
X188794781Y-26000776D01*
X188731522Y-26195465D01*
X188699500Y-26397648D01*
X29203105Y-26397648D01*
X29203500Y-26387803D01*
X29303439Y-23897648D01*
X35199500Y-23897648D01*
X35199500Y-24102351D01*
X35231522Y-24304534D01*
X35294781Y-24499223D01*
X35387715Y-24681613D01*
X35508028Y-24847213D01*
X35652786Y-24991971D01*
X35807749Y-25104556D01*
X35818390Y-25112287D01*
X35934607Y-25171503D01*
X36000776Y-25205218D01*
X36000778Y-25205218D01*
X36000781Y-25205220D01*
X36105137Y-25239127D01*
X36195465Y-25268477D01*
X36296557Y-25284488D01*
X36397648Y-25300500D01*
X36397649Y-25300500D01*
X36602351Y-25300500D01*
X36602352Y-25300500D01*
X36804534Y-25268477D01*
X36999219Y-25205220D01*
X37181610Y-25112287D01*
X37274590Y-25044732D01*
X37347213Y-24991971D01*
X37347215Y-24991968D01*
X37347219Y-24991966D01*
X37491966Y-24847219D01*
X37491968Y-24847215D01*
X37491971Y-24847213D01*
X37544732Y-24774590D01*
X37612287Y-24681610D01*
X37705220Y-24499219D01*
X37768477Y-24304534D01*
X37800500Y-24102352D01*
X37800500Y-23897648D01*
X37768477Y-23695466D01*
X37705220Y-23500781D01*
X37705218Y-23500778D01*
X37705218Y-23500776D01*
X37671503Y-23434607D01*
X37612287Y-23318390D01*
X37604556Y-23307749D01*
X37491971Y-23152786D01*
X37347213Y-23008028D01*
X37181613Y-22887715D01*
X37181612Y-22887714D01*
X37181610Y-22887713D01*
X37124653Y-22858691D01*
X36999223Y-22794781D01*
X36804534Y-22731522D01*
X36629995Y-22703878D01*
X36602352Y-22699500D01*
X36397648Y-22699500D01*
X36373329Y-22703351D01*
X36195465Y-22731522D01*
X36000776Y-22794781D01*
X35818386Y-22887715D01*
X35652786Y-23008028D01*
X35508028Y-23152786D01*
X35387715Y-23318386D01*
X35294781Y-23500776D01*
X35231522Y-23695465D01*
X35199500Y-23897648D01*
X29303439Y-23897648D01*
X29303834Y-23887803D01*
X29495223Y-19119027D01*
X29517580Y-19052831D01*
X29572176Y-19009231D01*
X29619123Y-19000000D01*
X206371274Y-19000000D01*
X206438313Y-19019685D01*
G37*
%TD.AperFunction*%
%TD*%
M02*
