%TF.GenerationSoftware,KiCad,Pcbnew,9.0.2*%
%TF.CreationDate,2025-05-15T00:42:05-04:00*%
%TF.ProjectId,ProjectScematic_PCBv2,50726f6a-6563-4745-9363-656d61746963,rev?*%
%TF.SameCoordinates,Original*%
%TF.FileFunction,Legend,Top*%
%TF.FilePolarity,Positive*%
%FSLAX46Y46*%
G04 Gerber Fmt 4.6, Leading zero omitted, Abs format (unit mm)*
G04 Created by KiCad (PCBNEW 9.0.2) date 2025-05-15 00:42:05*
%MOMM*%
%LPD*%
G01*
G04 APERTURE LIST*
%ADD10C,0.150000*%
%ADD11C,0.120000*%
G04 APERTURE END LIST*
D10*
X69716666Y-62569819D02*
X69716666Y-63284104D01*
X69716666Y-63284104D02*
X69669047Y-63426961D01*
X69669047Y-63426961D02*
X69573809Y-63522200D01*
X69573809Y-63522200D02*
X69430952Y-63569819D01*
X69430952Y-63569819D02*
X69335714Y-63569819D01*
X70716666Y-63569819D02*
X70145238Y-63569819D01*
X70430952Y-63569819D02*
X70430952Y-62569819D01*
X70430952Y-62569819D02*
X70335714Y-62712676D01*
X70335714Y-62712676D02*
X70240476Y-62807914D01*
X70240476Y-62807914D02*
X70145238Y-62855533D01*
X156129761Y-125204819D02*
X155796428Y-124728628D01*
X155558333Y-125204819D02*
X155558333Y-124204819D01*
X155558333Y-124204819D02*
X155939285Y-124204819D01*
X155939285Y-124204819D02*
X156034523Y-124252438D01*
X156034523Y-124252438D02*
X156082142Y-124300057D01*
X156082142Y-124300057D02*
X156129761Y-124395295D01*
X156129761Y-124395295D02*
X156129761Y-124538152D01*
X156129761Y-124538152D02*
X156082142Y-124633390D01*
X156082142Y-124633390D02*
X156034523Y-124681009D01*
X156034523Y-124681009D02*
X155939285Y-124728628D01*
X155939285Y-124728628D02*
X155558333Y-124728628D01*
X156891666Y-124681009D02*
X156558333Y-124681009D01*
X156558333Y-125204819D02*
X156558333Y-124204819D01*
X156558333Y-124204819D02*
X157034523Y-124204819D01*
X157939285Y-125204819D02*
X157367857Y-125204819D01*
X157653571Y-125204819D02*
X157653571Y-124204819D01*
X157653571Y-124204819D02*
X157558333Y-124347676D01*
X157558333Y-124347676D02*
X157463095Y-124442914D01*
X157463095Y-124442914D02*
X157367857Y-124490533D01*
X168030000Y-107207319D02*
X168030000Y-106207319D01*
X168030000Y-106207319D02*
X168268095Y-106207319D01*
X168268095Y-106207319D02*
X168410952Y-106254938D01*
X168410952Y-106254938D02*
X168506190Y-106350176D01*
X168506190Y-106350176D02*
X168553809Y-106445414D01*
X168553809Y-106445414D02*
X168601428Y-106635890D01*
X168601428Y-106635890D02*
X168601428Y-106778747D01*
X168601428Y-106778747D02*
X168553809Y-106969223D01*
X168553809Y-106969223D02*
X168506190Y-107064461D01*
X168506190Y-107064461D02*
X168410952Y-107159700D01*
X168410952Y-107159700D02*
X168268095Y-107207319D01*
X168268095Y-107207319D02*
X168030000Y-107207319D01*
X169030000Y-107207319D02*
X169030000Y-106207319D01*
X169696666Y-106207319D02*
X169887142Y-106207319D01*
X169887142Y-106207319D02*
X169982380Y-106254938D01*
X169982380Y-106254938D02*
X170077618Y-106350176D01*
X170077618Y-106350176D02*
X170125237Y-106540652D01*
X170125237Y-106540652D02*
X170125237Y-106873985D01*
X170125237Y-106873985D02*
X170077618Y-107064461D01*
X170077618Y-107064461D02*
X169982380Y-107159700D01*
X169982380Y-107159700D02*
X169887142Y-107207319D01*
X169887142Y-107207319D02*
X169696666Y-107207319D01*
X169696666Y-107207319D02*
X169601428Y-107159700D01*
X169601428Y-107159700D02*
X169506190Y-107064461D01*
X169506190Y-107064461D02*
X169458571Y-106873985D01*
X169458571Y-106873985D02*
X169458571Y-106540652D01*
X169458571Y-106540652D02*
X169506190Y-106350176D01*
X169506190Y-106350176D02*
X169601428Y-106254938D01*
X169601428Y-106254938D02*
X169696666Y-106207319D01*
X170458571Y-106207319D02*
X171077618Y-106207319D01*
X171077618Y-106207319D02*
X170744285Y-106588271D01*
X170744285Y-106588271D02*
X170887142Y-106588271D01*
X170887142Y-106588271D02*
X170982380Y-106635890D01*
X170982380Y-106635890D02*
X171029999Y-106683509D01*
X171029999Y-106683509D02*
X171077618Y-106778747D01*
X171077618Y-106778747D02*
X171077618Y-107016842D01*
X171077618Y-107016842D02*
X171029999Y-107112080D01*
X171029999Y-107112080D02*
X170982380Y-107159700D01*
X170982380Y-107159700D02*
X170887142Y-107207319D01*
X170887142Y-107207319D02*
X170601428Y-107207319D01*
X170601428Y-107207319D02*
X170506190Y-107159700D01*
X170506190Y-107159700D02*
X170458571Y-107112080D01*
X119181905Y-51644819D02*
X119181905Y-50644819D01*
X119181905Y-50644819D02*
X119420000Y-50644819D01*
X119420000Y-50644819D02*
X119562857Y-50692438D01*
X119562857Y-50692438D02*
X119658095Y-50787676D01*
X119658095Y-50787676D02*
X119705714Y-50882914D01*
X119705714Y-50882914D02*
X119753333Y-51073390D01*
X119753333Y-51073390D02*
X119753333Y-51216247D01*
X119753333Y-51216247D02*
X119705714Y-51406723D01*
X119705714Y-51406723D02*
X119658095Y-51501961D01*
X119658095Y-51501961D02*
X119562857Y-51597200D01*
X119562857Y-51597200D02*
X119420000Y-51644819D01*
X119420000Y-51644819D02*
X119181905Y-51644819D01*
X120610476Y-50978152D02*
X120610476Y-51644819D01*
X120372381Y-50597200D02*
X120134286Y-51311485D01*
X120134286Y-51311485D02*
X120753333Y-51311485D01*
X114895833Y-130659580D02*
X114848214Y-130707200D01*
X114848214Y-130707200D02*
X114705357Y-130754819D01*
X114705357Y-130754819D02*
X114610119Y-130754819D01*
X114610119Y-130754819D02*
X114467262Y-130707200D01*
X114467262Y-130707200D02*
X114372024Y-130611961D01*
X114372024Y-130611961D02*
X114324405Y-130516723D01*
X114324405Y-130516723D02*
X114276786Y-130326247D01*
X114276786Y-130326247D02*
X114276786Y-130183390D01*
X114276786Y-130183390D02*
X114324405Y-129992914D01*
X114324405Y-129992914D02*
X114372024Y-129897676D01*
X114372024Y-129897676D02*
X114467262Y-129802438D01*
X114467262Y-129802438D02*
X114610119Y-129754819D01*
X114610119Y-129754819D02*
X114705357Y-129754819D01*
X114705357Y-129754819D02*
X114848214Y-129802438D01*
X114848214Y-129802438D02*
X114895833Y-129850057D01*
X115848214Y-130754819D02*
X115276786Y-130754819D01*
X115562500Y-130754819D02*
X115562500Y-129754819D01*
X115562500Y-129754819D02*
X115467262Y-129897676D01*
X115467262Y-129897676D02*
X115372024Y-129992914D01*
X115372024Y-129992914D02*
X115276786Y-130040533D01*
X38738095Y-157904819D02*
X38738095Y-156904819D01*
X38738095Y-157381009D02*
X39309523Y-157381009D01*
X39309523Y-157904819D02*
X39309523Y-156904819D01*
X40214285Y-157238152D02*
X40214285Y-157904819D01*
X39976190Y-156857200D02*
X39738095Y-157571485D01*
X39738095Y-157571485D02*
X40357142Y-157571485D01*
X131740833Y-65904819D02*
X131407500Y-65428628D01*
X131169405Y-65904819D02*
X131169405Y-64904819D01*
X131169405Y-64904819D02*
X131550357Y-64904819D01*
X131550357Y-64904819D02*
X131645595Y-64952438D01*
X131645595Y-64952438D02*
X131693214Y-65000057D01*
X131693214Y-65000057D02*
X131740833Y-65095295D01*
X131740833Y-65095295D02*
X131740833Y-65238152D01*
X131740833Y-65238152D02*
X131693214Y-65333390D01*
X131693214Y-65333390D02*
X131645595Y-65381009D01*
X131645595Y-65381009D02*
X131550357Y-65428628D01*
X131550357Y-65428628D02*
X131169405Y-65428628D01*
X132693214Y-65904819D02*
X132121786Y-65904819D01*
X132407500Y-65904819D02*
X132407500Y-64904819D01*
X132407500Y-64904819D02*
X132312262Y-65047676D01*
X132312262Y-65047676D02*
X132217024Y-65142914D01*
X132217024Y-65142914D02*
X132121786Y-65190533D01*
X145261905Y-108477319D02*
X145261905Y-107477319D01*
X145261905Y-107477319D02*
X145500000Y-107477319D01*
X145500000Y-107477319D02*
X145642857Y-107524938D01*
X145642857Y-107524938D02*
X145738095Y-107620176D01*
X145738095Y-107620176D02*
X145785714Y-107715414D01*
X145785714Y-107715414D02*
X145833333Y-107905890D01*
X145833333Y-107905890D02*
X145833333Y-108048747D01*
X145833333Y-108048747D02*
X145785714Y-108239223D01*
X145785714Y-108239223D02*
X145738095Y-108334461D01*
X145738095Y-108334461D02*
X145642857Y-108429700D01*
X145642857Y-108429700D02*
X145500000Y-108477319D01*
X145500000Y-108477319D02*
X145261905Y-108477319D01*
X146738095Y-107477319D02*
X146261905Y-107477319D01*
X146261905Y-107477319D02*
X146214286Y-107953509D01*
X146214286Y-107953509D02*
X146261905Y-107905890D01*
X146261905Y-107905890D02*
X146357143Y-107858271D01*
X146357143Y-107858271D02*
X146595238Y-107858271D01*
X146595238Y-107858271D02*
X146690476Y-107905890D01*
X146690476Y-107905890D02*
X146738095Y-107953509D01*
X146738095Y-107953509D02*
X146785714Y-108048747D01*
X146785714Y-108048747D02*
X146785714Y-108286842D01*
X146785714Y-108286842D02*
X146738095Y-108382080D01*
X146738095Y-108382080D02*
X146690476Y-108429700D01*
X146690476Y-108429700D02*
X146595238Y-108477319D01*
X146595238Y-108477319D02*
X146357143Y-108477319D01*
X146357143Y-108477319D02*
X146261905Y-108429700D01*
X146261905Y-108429700D02*
X146214286Y-108382080D01*
X140658095Y-108847319D02*
X140658095Y-107847319D01*
X141229523Y-108847319D02*
X140800952Y-108275890D01*
X141229523Y-107847319D02*
X140658095Y-108418747D01*
X68333333Y-85359580D02*
X68285714Y-85407200D01*
X68285714Y-85407200D02*
X68142857Y-85454819D01*
X68142857Y-85454819D02*
X68047619Y-85454819D01*
X68047619Y-85454819D02*
X67904762Y-85407200D01*
X67904762Y-85407200D02*
X67809524Y-85311961D01*
X67809524Y-85311961D02*
X67761905Y-85216723D01*
X67761905Y-85216723D02*
X67714286Y-85026247D01*
X67714286Y-85026247D02*
X67714286Y-84883390D01*
X67714286Y-84883390D02*
X67761905Y-84692914D01*
X67761905Y-84692914D02*
X67809524Y-84597676D01*
X67809524Y-84597676D02*
X67904762Y-84502438D01*
X67904762Y-84502438D02*
X68047619Y-84454819D01*
X68047619Y-84454819D02*
X68142857Y-84454819D01*
X68142857Y-84454819D02*
X68285714Y-84502438D01*
X68285714Y-84502438D02*
X68333333Y-84550057D01*
X69238095Y-84454819D02*
X68761905Y-84454819D01*
X68761905Y-84454819D02*
X68714286Y-84931009D01*
X68714286Y-84931009D02*
X68761905Y-84883390D01*
X68761905Y-84883390D02*
X68857143Y-84835771D01*
X68857143Y-84835771D02*
X69095238Y-84835771D01*
X69095238Y-84835771D02*
X69190476Y-84883390D01*
X69190476Y-84883390D02*
X69238095Y-84931009D01*
X69238095Y-84931009D02*
X69285714Y-85026247D01*
X69285714Y-85026247D02*
X69285714Y-85264342D01*
X69285714Y-85264342D02*
X69238095Y-85359580D01*
X69238095Y-85359580D02*
X69190476Y-85407200D01*
X69190476Y-85407200D02*
X69095238Y-85454819D01*
X69095238Y-85454819D02*
X68857143Y-85454819D01*
X68857143Y-85454819D02*
X68761905Y-85407200D01*
X68761905Y-85407200D02*
X68714286Y-85359580D01*
X100770833Y-130659580D02*
X100723214Y-130707200D01*
X100723214Y-130707200D02*
X100580357Y-130754819D01*
X100580357Y-130754819D02*
X100485119Y-130754819D01*
X100485119Y-130754819D02*
X100342262Y-130707200D01*
X100342262Y-130707200D02*
X100247024Y-130611961D01*
X100247024Y-130611961D02*
X100199405Y-130516723D01*
X100199405Y-130516723D02*
X100151786Y-130326247D01*
X100151786Y-130326247D02*
X100151786Y-130183390D01*
X100151786Y-130183390D02*
X100199405Y-129992914D01*
X100199405Y-129992914D02*
X100247024Y-129897676D01*
X100247024Y-129897676D02*
X100342262Y-129802438D01*
X100342262Y-129802438D02*
X100485119Y-129754819D01*
X100485119Y-129754819D02*
X100580357Y-129754819D01*
X100580357Y-129754819D02*
X100723214Y-129802438D01*
X100723214Y-129802438D02*
X100770833Y-129850057D01*
X101151786Y-129850057D02*
X101199405Y-129802438D01*
X101199405Y-129802438D02*
X101294643Y-129754819D01*
X101294643Y-129754819D02*
X101532738Y-129754819D01*
X101532738Y-129754819D02*
X101627976Y-129802438D01*
X101627976Y-129802438D02*
X101675595Y-129850057D01*
X101675595Y-129850057D02*
X101723214Y-129945295D01*
X101723214Y-129945295D02*
X101723214Y-130040533D01*
X101723214Y-130040533D02*
X101675595Y-130183390D01*
X101675595Y-130183390D02*
X101104167Y-130754819D01*
X101104167Y-130754819D02*
X101723214Y-130754819D01*
X166936666Y-58574819D02*
X166936666Y-59289104D01*
X166936666Y-59289104D02*
X166889047Y-59431961D01*
X166889047Y-59431961D02*
X166793809Y-59527200D01*
X166793809Y-59527200D02*
X166650952Y-59574819D01*
X166650952Y-59574819D02*
X166555714Y-59574819D01*
X167365238Y-58670057D02*
X167412857Y-58622438D01*
X167412857Y-58622438D02*
X167508095Y-58574819D01*
X167508095Y-58574819D02*
X167746190Y-58574819D01*
X167746190Y-58574819D02*
X167841428Y-58622438D01*
X167841428Y-58622438D02*
X167889047Y-58670057D01*
X167889047Y-58670057D02*
X167936666Y-58765295D01*
X167936666Y-58765295D02*
X167936666Y-58860533D01*
X167936666Y-58860533D02*
X167889047Y-59003390D01*
X167889047Y-59003390D02*
X167317619Y-59574819D01*
X167317619Y-59574819D02*
X167936666Y-59574819D01*
X117966905Y-122382319D02*
X117966905Y-121382319D01*
X117966905Y-121382319D02*
X118205000Y-121382319D01*
X118205000Y-121382319D02*
X118347857Y-121429938D01*
X118347857Y-121429938D02*
X118443095Y-121525176D01*
X118443095Y-121525176D02*
X118490714Y-121620414D01*
X118490714Y-121620414D02*
X118538333Y-121810890D01*
X118538333Y-121810890D02*
X118538333Y-121953747D01*
X118538333Y-121953747D02*
X118490714Y-122144223D01*
X118490714Y-122144223D02*
X118443095Y-122239461D01*
X118443095Y-122239461D02*
X118347857Y-122334700D01*
X118347857Y-122334700D02*
X118205000Y-122382319D01*
X118205000Y-122382319D02*
X117966905Y-122382319D01*
X118919286Y-121477557D02*
X118966905Y-121429938D01*
X118966905Y-121429938D02*
X119062143Y-121382319D01*
X119062143Y-121382319D02*
X119300238Y-121382319D01*
X119300238Y-121382319D02*
X119395476Y-121429938D01*
X119395476Y-121429938D02*
X119443095Y-121477557D01*
X119443095Y-121477557D02*
X119490714Y-121572795D01*
X119490714Y-121572795D02*
X119490714Y-121668033D01*
X119490714Y-121668033D02*
X119443095Y-121810890D01*
X119443095Y-121810890D02*
X118871667Y-122382319D01*
X118871667Y-122382319D02*
X119490714Y-122382319D01*
X128642857Y-122604819D02*
X128642857Y-121604819D01*
X128642857Y-121604819D02*
X128880952Y-121604819D01*
X128880952Y-121604819D02*
X129023809Y-121652438D01*
X129023809Y-121652438D02*
X129119047Y-121747676D01*
X129119047Y-121747676D02*
X129166666Y-121842914D01*
X129166666Y-121842914D02*
X129214285Y-122033390D01*
X129214285Y-122033390D02*
X129214285Y-122176247D01*
X129214285Y-122176247D02*
X129166666Y-122366723D01*
X129166666Y-122366723D02*
X129119047Y-122461961D01*
X129119047Y-122461961D02*
X129023809Y-122557200D01*
X129023809Y-122557200D02*
X128880952Y-122604819D01*
X128880952Y-122604819D02*
X128642857Y-122604819D01*
X129642857Y-122604819D02*
X129642857Y-121604819D01*
X129642857Y-122081009D02*
X130214285Y-122081009D01*
X130214285Y-122604819D02*
X130214285Y-121604819D01*
X130547619Y-121604819D02*
X131119047Y-121604819D01*
X130833333Y-122604819D02*
X130833333Y-121604819D01*
X131976190Y-122604819D02*
X131404762Y-122604819D01*
X131690476Y-122604819D02*
X131690476Y-121604819D01*
X131690476Y-121604819D02*
X131595238Y-121747676D01*
X131595238Y-121747676D02*
X131500000Y-121842914D01*
X131500000Y-121842914D02*
X131404762Y-121890533D01*
X132928571Y-122604819D02*
X132357143Y-122604819D01*
X132642857Y-122604819D02*
X132642857Y-121604819D01*
X132642857Y-121604819D02*
X132547619Y-121747676D01*
X132547619Y-121747676D02*
X132452381Y-121842914D01*
X132452381Y-121842914D02*
X132357143Y-121890533D01*
X133357143Y-122223866D02*
X134119048Y-122223866D01*
X134452381Y-121604819D02*
X135023809Y-121604819D01*
X134738095Y-122604819D02*
X134738095Y-121604819D01*
X135357143Y-122081009D02*
X135690476Y-122081009D01*
X135833333Y-122604819D02*
X135357143Y-122604819D01*
X135357143Y-122604819D02*
X135357143Y-121604819D01*
X135357143Y-121604819D02*
X135833333Y-121604819D01*
X136261905Y-122604819D02*
X136261905Y-121604819D01*
X136261905Y-121604819D02*
X136595238Y-122319104D01*
X136595238Y-122319104D02*
X136928571Y-121604819D01*
X136928571Y-121604819D02*
X136928571Y-122604819D01*
X137404762Y-122604819D02*
X137404762Y-121604819D01*
X137404762Y-121604819D02*
X137785714Y-121604819D01*
X137785714Y-121604819D02*
X137880952Y-121652438D01*
X137880952Y-121652438D02*
X137928571Y-121700057D01*
X137928571Y-121700057D02*
X137976190Y-121795295D01*
X137976190Y-121795295D02*
X137976190Y-121938152D01*
X137976190Y-121938152D02*
X137928571Y-122033390D01*
X137928571Y-122033390D02*
X137880952Y-122081009D01*
X137880952Y-122081009D02*
X137785714Y-122128628D01*
X137785714Y-122128628D02*
X137404762Y-122128628D01*
X139214286Y-122604819D02*
X139166667Y-122604819D01*
X139166667Y-122604819D02*
X139071428Y-122557200D01*
X139071428Y-122557200D02*
X138928571Y-122414342D01*
X138928571Y-122414342D02*
X138690476Y-122128628D01*
X138690476Y-122128628D02*
X138595238Y-121985771D01*
X138595238Y-121985771D02*
X138547619Y-121842914D01*
X138547619Y-121842914D02*
X138547619Y-121747676D01*
X138547619Y-121747676D02*
X138595238Y-121652438D01*
X138595238Y-121652438D02*
X138690476Y-121604819D01*
X138690476Y-121604819D02*
X138738095Y-121604819D01*
X138738095Y-121604819D02*
X138833333Y-121652438D01*
X138833333Y-121652438D02*
X138880952Y-121747676D01*
X138880952Y-121747676D02*
X138880952Y-121795295D01*
X138880952Y-121795295D02*
X138833333Y-121890533D01*
X138833333Y-121890533D02*
X138785714Y-121938152D01*
X138785714Y-121938152D02*
X138500000Y-122128628D01*
X138500000Y-122128628D02*
X138452381Y-122176247D01*
X138452381Y-122176247D02*
X138404762Y-122271485D01*
X138404762Y-122271485D02*
X138404762Y-122414342D01*
X138404762Y-122414342D02*
X138452381Y-122509580D01*
X138452381Y-122509580D02*
X138500000Y-122557200D01*
X138500000Y-122557200D02*
X138595238Y-122604819D01*
X138595238Y-122604819D02*
X138738095Y-122604819D01*
X138738095Y-122604819D02*
X138833333Y-122557200D01*
X138833333Y-122557200D02*
X138880952Y-122509580D01*
X138880952Y-122509580D02*
X139023809Y-122319104D01*
X139023809Y-122319104D02*
X139071428Y-122176247D01*
X139071428Y-122176247D02*
X139071428Y-122081009D01*
X139642857Y-122604819D02*
X139642857Y-121604819D01*
X139642857Y-122081009D02*
X140214285Y-122081009D01*
X140214285Y-122604819D02*
X140214285Y-121604819D01*
X140690476Y-121604819D02*
X140690476Y-122414342D01*
X140690476Y-122414342D02*
X140738095Y-122509580D01*
X140738095Y-122509580D02*
X140785714Y-122557200D01*
X140785714Y-122557200D02*
X140880952Y-122604819D01*
X140880952Y-122604819D02*
X141071428Y-122604819D01*
X141071428Y-122604819D02*
X141166666Y-122557200D01*
X141166666Y-122557200D02*
X141214285Y-122509580D01*
X141214285Y-122509580D02*
X141261904Y-122414342D01*
X141261904Y-122414342D02*
X141261904Y-121604819D01*
X141738095Y-122604819D02*
X141738095Y-121604819D01*
X141738095Y-121604819D02*
X142071428Y-122319104D01*
X142071428Y-122319104D02*
X142404761Y-121604819D01*
X142404761Y-121604819D02*
X142404761Y-122604819D01*
X142880952Y-122604819D02*
X142880952Y-121604819D01*
X142880952Y-121604819D02*
X143119047Y-121604819D01*
X143119047Y-121604819D02*
X143261904Y-121652438D01*
X143261904Y-121652438D02*
X143357142Y-121747676D01*
X143357142Y-121747676D02*
X143404761Y-121842914D01*
X143404761Y-121842914D02*
X143452380Y-122033390D01*
X143452380Y-122033390D02*
X143452380Y-122176247D01*
X143452380Y-122176247D02*
X143404761Y-122366723D01*
X143404761Y-122366723D02*
X143357142Y-122461961D01*
X143357142Y-122461961D02*
X143261904Y-122557200D01*
X143261904Y-122557200D02*
X143119047Y-122604819D01*
X143119047Y-122604819D02*
X142880952Y-122604819D01*
X144404761Y-122604819D02*
X143833333Y-122604819D01*
X144119047Y-122604819D02*
X144119047Y-121604819D01*
X144119047Y-121604819D02*
X144023809Y-121747676D01*
X144023809Y-121747676D02*
X143928571Y-121842914D01*
X143928571Y-121842914D02*
X143833333Y-121890533D01*
X72166666Y-114754819D02*
X72166666Y-115469104D01*
X72166666Y-115469104D02*
X72119047Y-115611961D01*
X72119047Y-115611961D02*
X72023809Y-115707200D01*
X72023809Y-115707200D02*
X71880952Y-115754819D01*
X71880952Y-115754819D02*
X71785714Y-115754819D01*
X72547619Y-114754819D02*
X73166666Y-114754819D01*
X73166666Y-114754819D02*
X72833333Y-115135771D01*
X72833333Y-115135771D02*
X72976190Y-115135771D01*
X72976190Y-115135771D02*
X73071428Y-115183390D01*
X73071428Y-115183390D02*
X73119047Y-115231009D01*
X73119047Y-115231009D02*
X73166666Y-115326247D01*
X73166666Y-115326247D02*
X73166666Y-115564342D01*
X73166666Y-115564342D02*
X73119047Y-115659580D01*
X73119047Y-115659580D02*
X73071428Y-115707200D01*
X73071428Y-115707200D02*
X72976190Y-115754819D01*
X72976190Y-115754819D02*
X72690476Y-115754819D01*
X72690476Y-115754819D02*
X72595238Y-115707200D01*
X72595238Y-115707200D02*
X72547619Y-115659580D01*
X148110476Y-95554819D02*
X148110476Y-94554819D01*
X148110476Y-94554819D02*
X148443809Y-95269104D01*
X148443809Y-95269104D02*
X148777142Y-94554819D01*
X148777142Y-94554819D02*
X148777142Y-95554819D01*
X149777142Y-95554819D02*
X149205714Y-95554819D01*
X149491428Y-95554819D02*
X149491428Y-94554819D01*
X149491428Y-94554819D02*
X149396190Y-94697676D01*
X149396190Y-94697676D02*
X149300952Y-94792914D01*
X149300952Y-94792914D02*
X149205714Y-94840533D01*
X88795595Y-54487319D02*
X88795595Y-55296842D01*
X88795595Y-55296842D02*
X88843214Y-55392080D01*
X88843214Y-55392080D02*
X88890833Y-55439700D01*
X88890833Y-55439700D02*
X88986071Y-55487319D01*
X88986071Y-55487319D02*
X89176547Y-55487319D01*
X89176547Y-55487319D02*
X89271785Y-55439700D01*
X89271785Y-55439700D02*
X89319404Y-55392080D01*
X89319404Y-55392080D02*
X89367023Y-55296842D01*
X89367023Y-55296842D02*
X89367023Y-54487319D01*
X90367023Y-55487319D02*
X89795595Y-55487319D01*
X90081309Y-55487319D02*
X90081309Y-54487319D01*
X90081309Y-54487319D02*
X89986071Y-54630176D01*
X89986071Y-54630176D02*
X89890833Y-54725414D01*
X89890833Y-54725414D02*
X89795595Y-54773033D01*
X133419047Y-73731009D02*
X133561904Y-73778628D01*
X133561904Y-73778628D02*
X133609523Y-73826247D01*
X133609523Y-73826247D02*
X133657142Y-73921485D01*
X133657142Y-73921485D02*
X133657142Y-74064342D01*
X133657142Y-74064342D02*
X133609523Y-74159580D01*
X133609523Y-74159580D02*
X133561904Y-74207200D01*
X133561904Y-74207200D02*
X133466666Y-74254819D01*
X133466666Y-74254819D02*
X133085714Y-74254819D01*
X133085714Y-74254819D02*
X133085714Y-73254819D01*
X133085714Y-73254819D02*
X133419047Y-73254819D01*
X133419047Y-73254819D02*
X133514285Y-73302438D01*
X133514285Y-73302438D02*
X133561904Y-73350057D01*
X133561904Y-73350057D02*
X133609523Y-73445295D01*
X133609523Y-73445295D02*
X133609523Y-73540533D01*
X133609523Y-73540533D02*
X133561904Y-73635771D01*
X133561904Y-73635771D02*
X133514285Y-73683390D01*
X133514285Y-73683390D02*
X133419047Y-73731009D01*
X133419047Y-73731009D02*
X133085714Y-73731009D01*
X133990476Y-73254819D02*
X134657142Y-73254819D01*
X134657142Y-73254819D02*
X133990476Y-74254819D01*
X133990476Y-74254819D02*
X134657142Y-74254819D01*
X135561904Y-74254819D02*
X134990476Y-74254819D01*
X135276190Y-74254819D02*
X135276190Y-73254819D01*
X135276190Y-73254819D02*
X135180952Y-73397676D01*
X135180952Y-73397676D02*
X135085714Y-73492914D01*
X135085714Y-73492914D02*
X134990476Y-73540533D01*
X130109048Y-78533866D02*
X130870953Y-78533866D01*
X130490000Y-78914819D02*
X130490000Y-78152914D01*
X190738095Y-154404819D02*
X190738095Y-153404819D01*
X190738095Y-153881009D02*
X191309523Y-153881009D01*
X191309523Y-154404819D02*
X191309523Y-153404819D01*
X191690476Y-153404819D02*
X192309523Y-153404819D01*
X192309523Y-153404819D02*
X191976190Y-153785771D01*
X191976190Y-153785771D02*
X192119047Y-153785771D01*
X192119047Y-153785771D02*
X192214285Y-153833390D01*
X192214285Y-153833390D02*
X192261904Y-153881009D01*
X192261904Y-153881009D02*
X192309523Y-153976247D01*
X192309523Y-153976247D02*
X192309523Y-154214342D01*
X192309523Y-154214342D02*
X192261904Y-154309580D01*
X192261904Y-154309580D02*
X192214285Y-154357200D01*
X192214285Y-154357200D02*
X192119047Y-154404819D01*
X192119047Y-154404819D02*
X191833333Y-154404819D01*
X191833333Y-154404819D02*
X191738095Y-154357200D01*
X191738095Y-154357200D02*
X191690476Y-154309580D01*
X35738095Y-21404819D02*
X35738095Y-20404819D01*
X35738095Y-20881009D02*
X36309523Y-20881009D01*
X36309523Y-21404819D02*
X36309523Y-20404819D01*
X37309523Y-21404819D02*
X36738095Y-21404819D01*
X37023809Y-21404819D02*
X37023809Y-20404819D01*
X37023809Y-20404819D02*
X36928571Y-20547676D01*
X36928571Y-20547676D02*
X36833333Y-20642914D01*
X36833333Y-20642914D02*
X36738095Y-20690533D01*
X101778095Y-116354819D02*
X101778095Y-117164342D01*
X101778095Y-117164342D02*
X101825714Y-117259580D01*
X101825714Y-117259580D02*
X101873333Y-117307200D01*
X101873333Y-117307200D02*
X101968571Y-117354819D01*
X101968571Y-117354819D02*
X102159047Y-117354819D01*
X102159047Y-117354819D02*
X102254285Y-117307200D01*
X102254285Y-117307200D02*
X102301904Y-117259580D01*
X102301904Y-117259580D02*
X102349523Y-117164342D01*
X102349523Y-117164342D02*
X102349523Y-116354819D01*
X102778095Y-116450057D02*
X102825714Y-116402438D01*
X102825714Y-116402438D02*
X102920952Y-116354819D01*
X102920952Y-116354819D02*
X103159047Y-116354819D01*
X103159047Y-116354819D02*
X103254285Y-116402438D01*
X103254285Y-116402438D02*
X103301904Y-116450057D01*
X103301904Y-116450057D02*
X103349523Y-116545295D01*
X103349523Y-116545295D02*
X103349523Y-116640533D01*
X103349523Y-116640533D02*
X103301904Y-116783390D01*
X103301904Y-116783390D02*
X102730476Y-117354819D01*
X102730476Y-117354819D02*
X103349523Y-117354819D01*
X189238095Y-23904819D02*
X189238095Y-22904819D01*
X189238095Y-23381009D02*
X189809523Y-23381009D01*
X189809523Y-23904819D02*
X189809523Y-22904819D01*
X190238095Y-23000057D02*
X190285714Y-22952438D01*
X190285714Y-22952438D02*
X190380952Y-22904819D01*
X190380952Y-22904819D02*
X190619047Y-22904819D01*
X190619047Y-22904819D02*
X190714285Y-22952438D01*
X190714285Y-22952438D02*
X190761904Y-23000057D01*
X190761904Y-23000057D02*
X190809523Y-23095295D01*
X190809523Y-23095295D02*
X190809523Y-23190533D01*
X190809523Y-23190533D02*
X190761904Y-23333390D01*
X190761904Y-23333390D02*
X190190476Y-23904819D01*
X190190476Y-23904819D02*
X190809523Y-23904819D01*
X66071429Y-54554819D02*
X66071429Y-53554819D01*
X66071429Y-53554819D02*
X66452381Y-53554819D01*
X66452381Y-53554819D02*
X66547619Y-53602438D01*
X66547619Y-53602438D02*
X66595238Y-53650057D01*
X66595238Y-53650057D02*
X66642857Y-53745295D01*
X66642857Y-53745295D02*
X66642857Y-53888152D01*
X66642857Y-53888152D02*
X66595238Y-53983390D01*
X66595238Y-53983390D02*
X66547619Y-54031009D01*
X66547619Y-54031009D02*
X66452381Y-54078628D01*
X66452381Y-54078628D02*
X66071429Y-54078628D01*
X67071429Y-54554819D02*
X67071429Y-53554819D01*
X68119047Y-54554819D02*
X67785714Y-54078628D01*
X67547619Y-54554819D02*
X67547619Y-53554819D01*
X67547619Y-53554819D02*
X67928571Y-53554819D01*
X67928571Y-53554819D02*
X68023809Y-53602438D01*
X68023809Y-53602438D02*
X68071428Y-53650057D01*
X68071428Y-53650057D02*
X68119047Y-53745295D01*
X68119047Y-53745295D02*
X68119047Y-53888152D01*
X68119047Y-53888152D02*
X68071428Y-53983390D01*
X68071428Y-53983390D02*
X68023809Y-54031009D01*
X68023809Y-54031009D02*
X67928571Y-54078628D01*
X67928571Y-54078628D02*
X67547619Y-54078628D01*
X68500000Y-54507200D02*
X68642857Y-54554819D01*
X68642857Y-54554819D02*
X68880952Y-54554819D01*
X68880952Y-54554819D02*
X68976190Y-54507200D01*
X68976190Y-54507200D02*
X69023809Y-54459580D01*
X69023809Y-54459580D02*
X69071428Y-54364342D01*
X69071428Y-54364342D02*
X69071428Y-54269104D01*
X69071428Y-54269104D02*
X69023809Y-54173866D01*
X69023809Y-54173866D02*
X68976190Y-54126247D01*
X68976190Y-54126247D02*
X68880952Y-54078628D01*
X68880952Y-54078628D02*
X68690476Y-54031009D01*
X68690476Y-54031009D02*
X68595238Y-53983390D01*
X68595238Y-53983390D02*
X68547619Y-53935771D01*
X68547619Y-53935771D02*
X68500000Y-53840533D01*
X68500000Y-53840533D02*
X68500000Y-53745295D01*
X68500000Y-53745295D02*
X68547619Y-53650057D01*
X68547619Y-53650057D02*
X68595238Y-53602438D01*
X68595238Y-53602438D02*
X68690476Y-53554819D01*
X68690476Y-53554819D02*
X68928571Y-53554819D01*
X68928571Y-53554819D02*
X69071428Y-53602438D01*
X69500000Y-54031009D02*
X69833333Y-54031009D01*
X69976190Y-54554819D02*
X69500000Y-54554819D01*
X69500000Y-54554819D02*
X69500000Y-53554819D01*
X69500000Y-53554819D02*
X69976190Y-53554819D01*
X70404762Y-54554819D02*
X70404762Y-53554819D01*
X70404762Y-53554819D02*
X70976190Y-54554819D01*
X70976190Y-54554819D02*
X70976190Y-53554819D01*
X71404762Y-54507200D02*
X71547619Y-54554819D01*
X71547619Y-54554819D02*
X71785714Y-54554819D01*
X71785714Y-54554819D02*
X71880952Y-54507200D01*
X71880952Y-54507200D02*
X71928571Y-54459580D01*
X71928571Y-54459580D02*
X71976190Y-54364342D01*
X71976190Y-54364342D02*
X71976190Y-54269104D01*
X71976190Y-54269104D02*
X71928571Y-54173866D01*
X71928571Y-54173866D02*
X71880952Y-54126247D01*
X71880952Y-54126247D02*
X71785714Y-54078628D01*
X71785714Y-54078628D02*
X71595238Y-54031009D01*
X71595238Y-54031009D02*
X71500000Y-53983390D01*
X71500000Y-53983390D02*
X71452381Y-53935771D01*
X71452381Y-53935771D02*
X71404762Y-53840533D01*
X71404762Y-53840533D02*
X71404762Y-53745295D01*
X71404762Y-53745295D02*
X71452381Y-53650057D01*
X71452381Y-53650057D02*
X71500000Y-53602438D01*
X71500000Y-53602438D02*
X71595238Y-53554819D01*
X71595238Y-53554819D02*
X71833333Y-53554819D01*
X71833333Y-53554819D02*
X71976190Y-53602438D01*
X72595238Y-53554819D02*
X72785714Y-53554819D01*
X72785714Y-53554819D02*
X72880952Y-53602438D01*
X72880952Y-53602438D02*
X72976190Y-53697676D01*
X72976190Y-53697676D02*
X73023809Y-53888152D01*
X73023809Y-53888152D02*
X73023809Y-54221485D01*
X73023809Y-54221485D02*
X72976190Y-54411961D01*
X72976190Y-54411961D02*
X72880952Y-54507200D01*
X72880952Y-54507200D02*
X72785714Y-54554819D01*
X72785714Y-54554819D02*
X72595238Y-54554819D01*
X72595238Y-54554819D02*
X72500000Y-54507200D01*
X72500000Y-54507200D02*
X72404762Y-54411961D01*
X72404762Y-54411961D02*
X72357143Y-54221485D01*
X72357143Y-54221485D02*
X72357143Y-53888152D01*
X72357143Y-53888152D02*
X72404762Y-53697676D01*
X72404762Y-53697676D02*
X72500000Y-53602438D01*
X72500000Y-53602438D02*
X72595238Y-53554819D01*
X74023809Y-54554819D02*
X73690476Y-54078628D01*
X73452381Y-54554819D02*
X73452381Y-53554819D01*
X73452381Y-53554819D02*
X73833333Y-53554819D01*
X73833333Y-53554819D02*
X73928571Y-53602438D01*
X73928571Y-53602438D02*
X73976190Y-53650057D01*
X73976190Y-53650057D02*
X74023809Y-53745295D01*
X74023809Y-53745295D02*
X74023809Y-53888152D01*
X74023809Y-53888152D02*
X73976190Y-53983390D01*
X73976190Y-53983390D02*
X73928571Y-54031009D01*
X73928571Y-54031009D02*
X73833333Y-54078628D01*
X73833333Y-54078628D02*
X73452381Y-54078628D01*
X74976190Y-54554819D02*
X74404762Y-54554819D01*
X74690476Y-54554819D02*
X74690476Y-53554819D01*
X74690476Y-53554819D02*
X74595238Y-53697676D01*
X74595238Y-53697676D02*
X74500000Y-53792914D01*
X74500000Y-53792914D02*
X74404762Y-53840533D01*
X159494761Y-76250057D02*
X159399523Y-76202438D01*
X159399523Y-76202438D02*
X159304285Y-76107200D01*
X159304285Y-76107200D02*
X159161428Y-75964342D01*
X159161428Y-75964342D02*
X159066190Y-75916723D01*
X159066190Y-75916723D02*
X158970952Y-75916723D01*
X159018571Y-76154819D02*
X158923333Y-76107200D01*
X158923333Y-76107200D02*
X158828095Y-76011961D01*
X158828095Y-76011961D02*
X158780476Y-75821485D01*
X158780476Y-75821485D02*
X158780476Y-75488152D01*
X158780476Y-75488152D02*
X158828095Y-75297676D01*
X158828095Y-75297676D02*
X158923333Y-75202438D01*
X158923333Y-75202438D02*
X159018571Y-75154819D01*
X159018571Y-75154819D02*
X159209047Y-75154819D01*
X159209047Y-75154819D02*
X159304285Y-75202438D01*
X159304285Y-75202438D02*
X159399523Y-75297676D01*
X159399523Y-75297676D02*
X159447142Y-75488152D01*
X159447142Y-75488152D02*
X159447142Y-75821485D01*
X159447142Y-75821485D02*
X159399523Y-76011961D01*
X159399523Y-76011961D02*
X159304285Y-76107200D01*
X159304285Y-76107200D02*
X159209047Y-76154819D01*
X159209047Y-76154819D02*
X159018571Y-76154819D01*
X160399523Y-76154819D02*
X159828095Y-76154819D01*
X160113809Y-76154819D02*
X160113809Y-75154819D01*
X160113809Y-75154819D02*
X160018571Y-75297676D01*
X160018571Y-75297676D02*
X159923333Y-75392914D01*
X159923333Y-75392914D02*
X159828095Y-75440533D01*
X109765833Y-94154819D02*
X109432500Y-93678628D01*
X109194405Y-94154819D02*
X109194405Y-93154819D01*
X109194405Y-93154819D02*
X109575357Y-93154819D01*
X109575357Y-93154819D02*
X109670595Y-93202438D01*
X109670595Y-93202438D02*
X109718214Y-93250057D01*
X109718214Y-93250057D02*
X109765833Y-93345295D01*
X109765833Y-93345295D02*
X109765833Y-93488152D01*
X109765833Y-93488152D02*
X109718214Y-93583390D01*
X109718214Y-93583390D02*
X109670595Y-93631009D01*
X109670595Y-93631009D02*
X109575357Y-93678628D01*
X109575357Y-93678628D02*
X109194405Y-93678628D01*
X110146786Y-93250057D02*
X110194405Y-93202438D01*
X110194405Y-93202438D02*
X110289643Y-93154819D01*
X110289643Y-93154819D02*
X110527738Y-93154819D01*
X110527738Y-93154819D02*
X110622976Y-93202438D01*
X110622976Y-93202438D02*
X110670595Y-93250057D01*
X110670595Y-93250057D02*
X110718214Y-93345295D01*
X110718214Y-93345295D02*
X110718214Y-93440533D01*
X110718214Y-93440533D02*
X110670595Y-93583390D01*
X110670595Y-93583390D02*
X110099167Y-94154819D01*
X110099167Y-94154819D02*
X110718214Y-94154819D01*
X159235833Y-94279819D02*
X158902500Y-93803628D01*
X158664405Y-94279819D02*
X158664405Y-93279819D01*
X158664405Y-93279819D02*
X159045357Y-93279819D01*
X159045357Y-93279819D02*
X159140595Y-93327438D01*
X159140595Y-93327438D02*
X159188214Y-93375057D01*
X159188214Y-93375057D02*
X159235833Y-93470295D01*
X159235833Y-93470295D02*
X159235833Y-93613152D01*
X159235833Y-93613152D02*
X159188214Y-93708390D01*
X159188214Y-93708390D02*
X159140595Y-93756009D01*
X159140595Y-93756009D02*
X159045357Y-93803628D01*
X159045357Y-93803628D02*
X158664405Y-93803628D01*
X159807262Y-93708390D02*
X159712024Y-93660771D01*
X159712024Y-93660771D02*
X159664405Y-93613152D01*
X159664405Y-93613152D02*
X159616786Y-93517914D01*
X159616786Y-93517914D02*
X159616786Y-93470295D01*
X159616786Y-93470295D02*
X159664405Y-93375057D01*
X159664405Y-93375057D02*
X159712024Y-93327438D01*
X159712024Y-93327438D02*
X159807262Y-93279819D01*
X159807262Y-93279819D02*
X159997738Y-93279819D01*
X159997738Y-93279819D02*
X160092976Y-93327438D01*
X160092976Y-93327438D02*
X160140595Y-93375057D01*
X160140595Y-93375057D02*
X160188214Y-93470295D01*
X160188214Y-93470295D02*
X160188214Y-93517914D01*
X160188214Y-93517914D02*
X160140595Y-93613152D01*
X160140595Y-93613152D02*
X160092976Y-93660771D01*
X160092976Y-93660771D02*
X159997738Y-93708390D01*
X159997738Y-93708390D02*
X159807262Y-93708390D01*
X159807262Y-93708390D02*
X159712024Y-93756009D01*
X159712024Y-93756009D02*
X159664405Y-93803628D01*
X159664405Y-93803628D02*
X159616786Y-93898866D01*
X159616786Y-93898866D02*
X159616786Y-94089342D01*
X159616786Y-94089342D02*
X159664405Y-94184580D01*
X159664405Y-94184580D02*
X159712024Y-94232200D01*
X159712024Y-94232200D02*
X159807262Y-94279819D01*
X159807262Y-94279819D02*
X159997738Y-94279819D01*
X159997738Y-94279819D02*
X160092976Y-94232200D01*
X160092976Y-94232200D02*
X160140595Y-94184580D01*
X160140595Y-94184580D02*
X160188214Y-94089342D01*
X160188214Y-94089342D02*
X160188214Y-93898866D01*
X160188214Y-93898866D02*
X160140595Y-93803628D01*
X160140595Y-93803628D02*
X160092976Y-93756009D01*
X160092976Y-93756009D02*
X159997738Y-93708390D01*
X54674762Y-107109104D02*
X55150952Y-107109104D01*
X54579524Y-107394819D02*
X54912857Y-106394819D01*
X54912857Y-106394819D02*
X55246190Y-107394819D01*
X55579524Y-107394819D02*
X55579524Y-106728152D01*
X55579524Y-106823390D02*
X55627143Y-106775771D01*
X55627143Y-106775771D02*
X55722381Y-106728152D01*
X55722381Y-106728152D02*
X55865238Y-106728152D01*
X55865238Y-106728152D02*
X55960476Y-106775771D01*
X55960476Y-106775771D02*
X56008095Y-106871009D01*
X56008095Y-106871009D02*
X56008095Y-107394819D01*
X56008095Y-106871009D02*
X56055714Y-106775771D01*
X56055714Y-106775771D02*
X56150952Y-106728152D01*
X56150952Y-106728152D02*
X56293809Y-106728152D01*
X56293809Y-106728152D02*
X56389048Y-106775771D01*
X56389048Y-106775771D02*
X56436667Y-106871009D01*
X56436667Y-106871009D02*
X56436667Y-107394819D01*
X56912857Y-107394819D02*
X56912857Y-106394819D01*
X56912857Y-106775771D02*
X57008095Y-106728152D01*
X57008095Y-106728152D02*
X57198571Y-106728152D01*
X57198571Y-106728152D02*
X57293809Y-106775771D01*
X57293809Y-106775771D02*
X57341428Y-106823390D01*
X57341428Y-106823390D02*
X57389047Y-106918628D01*
X57389047Y-106918628D02*
X57389047Y-107204342D01*
X57389047Y-107204342D02*
X57341428Y-107299580D01*
X57341428Y-107299580D02*
X57293809Y-107347200D01*
X57293809Y-107347200D02*
X57198571Y-107394819D01*
X57198571Y-107394819D02*
X57008095Y-107394819D01*
X57008095Y-107394819D02*
X56912857Y-107347200D01*
X57817619Y-107394819D02*
X57817619Y-106728152D01*
X57817619Y-106394819D02*
X57770000Y-106442438D01*
X57770000Y-106442438D02*
X57817619Y-106490057D01*
X57817619Y-106490057D02*
X57865238Y-106442438D01*
X57865238Y-106442438D02*
X57817619Y-106394819D01*
X57817619Y-106394819D02*
X57817619Y-106490057D01*
X58674761Y-107347200D02*
X58579523Y-107394819D01*
X58579523Y-107394819D02*
X58389047Y-107394819D01*
X58389047Y-107394819D02*
X58293809Y-107347200D01*
X58293809Y-107347200D02*
X58246190Y-107251961D01*
X58246190Y-107251961D02*
X58246190Y-106871009D01*
X58246190Y-106871009D02*
X58293809Y-106775771D01*
X58293809Y-106775771D02*
X58389047Y-106728152D01*
X58389047Y-106728152D02*
X58579523Y-106728152D01*
X58579523Y-106728152D02*
X58674761Y-106775771D01*
X58674761Y-106775771D02*
X58722380Y-106871009D01*
X58722380Y-106871009D02*
X58722380Y-106966247D01*
X58722380Y-106966247D02*
X58246190Y-107061485D01*
X59150952Y-106728152D02*
X59150952Y-107394819D01*
X59150952Y-106823390D02*
X59198571Y-106775771D01*
X59198571Y-106775771D02*
X59293809Y-106728152D01*
X59293809Y-106728152D02*
X59436666Y-106728152D01*
X59436666Y-106728152D02*
X59531904Y-106775771D01*
X59531904Y-106775771D02*
X59579523Y-106871009D01*
X59579523Y-106871009D02*
X59579523Y-107394819D01*
X59912857Y-106728152D02*
X60293809Y-106728152D01*
X60055714Y-106394819D02*
X60055714Y-107251961D01*
X60055714Y-107251961D02*
X60103333Y-107347200D01*
X60103333Y-107347200D02*
X60198571Y-107394819D01*
X60198571Y-107394819D02*
X60293809Y-107394819D01*
X60484286Y-106394819D02*
X61055714Y-106394819D01*
X60770000Y-107394819D02*
X60770000Y-106394819D01*
X61389048Y-106871009D02*
X61722381Y-106871009D01*
X61865238Y-107394819D02*
X61389048Y-107394819D01*
X61389048Y-107394819D02*
X61389048Y-106394819D01*
X61389048Y-106394819D02*
X61865238Y-106394819D01*
X62293810Y-107394819D02*
X62293810Y-106394819D01*
X62293810Y-106394819D02*
X62627143Y-107109104D01*
X62627143Y-107109104D02*
X62960476Y-106394819D01*
X62960476Y-106394819D02*
X62960476Y-107394819D01*
X63436667Y-107394819D02*
X63436667Y-106394819D01*
X63436667Y-106394819D02*
X63817619Y-106394819D01*
X63817619Y-106394819D02*
X63912857Y-106442438D01*
X63912857Y-106442438D02*
X63960476Y-106490057D01*
X63960476Y-106490057D02*
X64008095Y-106585295D01*
X64008095Y-106585295D02*
X64008095Y-106728152D01*
X64008095Y-106728152D02*
X63960476Y-106823390D01*
X63960476Y-106823390D02*
X63912857Y-106871009D01*
X63912857Y-106871009D02*
X63817619Y-106918628D01*
X63817619Y-106918628D02*
X63436667Y-106918628D01*
X64389048Y-107347200D02*
X64531905Y-107394819D01*
X64531905Y-107394819D02*
X64770000Y-107394819D01*
X64770000Y-107394819D02*
X64865238Y-107347200D01*
X64865238Y-107347200D02*
X64912857Y-107299580D01*
X64912857Y-107299580D02*
X64960476Y-107204342D01*
X64960476Y-107204342D02*
X64960476Y-107109104D01*
X64960476Y-107109104D02*
X64912857Y-107013866D01*
X64912857Y-107013866D02*
X64865238Y-106966247D01*
X64865238Y-106966247D02*
X64770000Y-106918628D01*
X64770000Y-106918628D02*
X64579524Y-106871009D01*
X64579524Y-106871009D02*
X64484286Y-106823390D01*
X64484286Y-106823390D02*
X64436667Y-106775771D01*
X64436667Y-106775771D02*
X64389048Y-106680533D01*
X64389048Y-106680533D02*
X64389048Y-106585295D01*
X64389048Y-106585295D02*
X64436667Y-106490057D01*
X64436667Y-106490057D02*
X64484286Y-106442438D01*
X64484286Y-106442438D02*
X64579524Y-106394819D01*
X64579524Y-106394819D02*
X64817619Y-106394819D01*
X64817619Y-106394819D02*
X64960476Y-106442438D01*
X65389048Y-106871009D02*
X65722381Y-106871009D01*
X65865238Y-107394819D02*
X65389048Y-107394819D01*
X65389048Y-107394819D02*
X65389048Y-106394819D01*
X65389048Y-106394819D02*
X65865238Y-106394819D01*
X66293810Y-107394819D02*
X66293810Y-106394819D01*
X66293810Y-106394819D02*
X66865238Y-107394819D01*
X66865238Y-107394819D02*
X66865238Y-106394819D01*
X67293810Y-107347200D02*
X67436667Y-107394819D01*
X67436667Y-107394819D02*
X67674762Y-107394819D01*
X67674762Y-107394819D02*
X67770000Y-107347200D01*
X67770000Y-107347200D02*
X67817619Y-107299580D01*
X67817619Y-107299580D02*
X67865238Y-107204342D01*
X67865238Y-107204342D02*
X67865238Y-107109104D01*
X67865238Y-107109104D02*
X67817619Y-107013866D01*
X67817619Y-107013866D02*
X67770000Y-106966247D01*
X67770000Y-106966247D02*
X67674762Y-106918628D01*
X67674762Y-106918628D02*
X67484286Y-106871009D01*
X67484286Y-106871009D02*
X67389048Y-106823390D01*
X67389048Y-106823390D02*
X67341429Y-106775771D01*
X67341429Y-106775771D02*
X67293810Y-106680533D01*
X67293810Y-106680533D02*
X67293810Y-106585295D01*
X67293810Y-106585295D02*
X67341429Y-106490057D01*
X67341429Y-106490057D02*
X67389048Y-106442438D01*
X67389048Y-106442438D02*
X67484286Y-106394819D01*
X67484286Y-106394819D02*
X67722381Y-106394819D01*
X67722381Y-106394819D02*
X67865238Y-106442438D01*
X68484286Y-106394819D02*
X68674762Y-106394819D01*
X68674762Y-106394819D02*
X68770000Y-106442438D01*
X68770000Y-106442438D02*
X68865238Y-106537676D01*
X68865238Y-106537676D02*
X68912857Y-106728152D01*
X68912857Y-106728152D02*
X68912857Y-107061485D01*
X68912857Y-107061485D02*
X68865238Y-107251961D01*
X68865238Y-107251961D02*
X68770000Y-107347200D01*
X68770000Y-107347200D02*
X68674762Y-107394819D01*
X68674762Y-107394819D02*
X68484286Y-107394819D01*
X68484286Y-107394819D02*
X68389048Y-107347200D01*
X68389048Y-107347200D02*
X68293810Y-107251961D01*
X68293810Y-107251961D02*
X68246191Y-107061485D01*
X68246191Y-107061485D02*
X68246191Y-106728152D01*
X68246191Y-106728152D02*
X68293810Y-106537676D01*
X68293810Y-106537676D02*
X68389048Y-106442438D01*
X68389048Y-106442438D02*
X68484286Y-106394819D01*
X69912857Y-107394819D02*
X69579524Y-106918628D01*
X69341429Y-107394819D02*
X69341429Y-106394819D01*
X69341429Y-106394819D02*
X69722381Y-106394819D01*
X69722381Y-106394819D02*
X69817619Y-106442438D01*
X69817619Y-106442438D02*
X69865238Y-106490057D01*
X69865238Y-106490057D02*
X69912857Y-106585295D01*
X69912857Y-106585295D02*
X69912857Y-106728152D01*
X69912857Y-106728152D02*
X69865238Y-106823390D01*
X69865238Y-106823390D02*
X69817619Y-106871009D01*
X69817619Y-106871009D02*
X69722381Y-106918628D01*
X69722381Y-106918628D02*
X69341429Y-106918628D01*
X70865238Y-107394819D02*
X70293810Y-107394819D01*
X70579524Y-107394819D02*
X70579524Y-106394819D01*
X70579524Y-106394819D02*
X70484286Y-106537676D01*
X70484286Y-106537676D02*
X70389048Y-106632914D01*
X70389048Y-106632914D02*
X70293810Y-106680533D01*
X143798333Y-54392319D02*
X143465000Y-53916128D01*
X143226905Y-54392319D02*
X143226905Y-53392319D01*
X143226905Y-53392319D02*
X143607857Y-53392319D01*
X143607857Y-53392319D02*
X143703095Y-53439938D01*
X143703095Y-53439938D02*
X143750714Y-53487557D01*
X143750714Y-53487557D02*
X143798333Y-53582795D01*
X143798333Y-53582795D02*
X143798333Y-53725652D01*
X143798333Y-53725652D02*
X143750714Y-53820890D01*
X143750714Y-53820890D02*
X143703095Y-53868509D01*
X143703095Y-53868509D02*
X143607857Y-53916128D01*
X143607857Y-53916128D02*
X143226905Y-53916128D01*
X144131667Y-53392319D02*
X144750714Y-53392319D01*
X144750714Y-53392319D02*
X144417381Y-53773271D01*
X144417381Y-53773271D02*
X144560238Y-53773271D01*
X144560238Y-53773271D02*
X144655476Y-53820890D01*
X144655476Y-53820890D02*
X144703095Y-53868509D01*
X144703095Y-53868509D02*
X144750714Y-53963747D01*
X144750714Y-53963747D02*
X144750714Y-54201842D01*
X144750714Y-54201842D02*
X144703095Y-54297080D01*
X144703095Y-54297080D02*
X144655476Y-54344700D01*
X144655476Y-54344700D02*
X144560238Y-54392319D01*
X144560238Y-54392319D02*
X144274524Y-54392319D01*
X144274524Y-54392319D02*
X144179286Y-54344700D01*
X144179286Y-54344700D02*
X144131667Y-54297080D01*
X119181905Y-114484819D02*
X119181905Y-113484819D01*
X119181905Y-113484819D02*
X119420000Y-113484819D01*
X119420000Y-113484819D02*
X119562857Y-113532438D01*
X119562857Y-113532438D02*
X119658095Y-113627676D01*
X119658095Y-113627676D02*
X119705714Y-113722914D01*
X119705714Y-113722914D02*
X119753333Y-113913390D01*
X119753333Y-113913390D02*
X119753333Y-114056247D01*
X119753333Y-114056247D02*
X119705714Y-114246723D01*
X119705714Y-114246723D02*
X119658095Y-114341961D01*
X119658095Y-114341961D02*
X119562857Y-114437200D01*
X119562857Y-114437200D02*
X119420000Y-114484819D01*
X119420000Y-114484819D02*
X119181905Y-114484819D01*
X120705714Y-114484819D02*
X120134286Y-114484819D01*
X120420000Y-114484819D02*
X120420000Y-113484819D01*
X120420000Y-113484819D02*
X120324762Y-113627676D01*
X120324762Y-113627676D02*
X120229524Y-113722914D01*
X120229524Y-113722914D02*
X120134286Y-113770533D01*
X114578095Y-114854819D02*
X114578095Y-113854819D01*
X115149523Y-114854819D02*
X114720952Y-114283390D01*
X115149523Y-113854819D02*
X114578095Y-114426247D01*
X88805833Y-30074819D02*
X88234405Y-30074819D01*
X88520119Y-30074819D02*
X88520119Y-29074819D01*
X88520119Y-29074819D02*
X88424881Y-29217676D01*
X88424881Y-29217676D02*
X88329643Y-29312914D01*
X88329643Y-29312914D02*
X88234405Y-29360533D01*
X89662976Y-29074819D02*
X89472500Y-29074819D01*
X89472500Y-29074819D02*
X89377262Y-29122438D01*
X89377262Y-29122438D02*
X89329643Y-29170057D01*
X89329643Y-29170057D02*
X89234405Y-29312914D01*
X89234405Y-29312914D02*
X89186786Y-29503390D01*
X89186786Y-29503390D02*
X89186786Y-29884342D01*
X89186786Y-29884342D02*
X89234405Y-29979580D01*
X89234405Y-29979580D02*
X89282024Y-30027200D01*
X89282024Y-30027200D02*
X89377262Y-30074819D01*
X89377262Y-30074819D02*
X89567738Y-30074819D01*
X89567738Y-30074819D02*
X89662976Y-30027200D01*
X89662976Y-30027200D02*
X89710595Y-29979580D01*
X89710595Y-29979580D02*
X89758214Y-29884342D01*
X89758214Y-29884342D02*
X89758214Y-29646247D01*
X89758214Y-29646247D02*
X89710595Y-29551009D01*
X89710595Y-29551009D02*
X89662976Y-29503390D01*
X89662976Y-29503390D02*
X89567738Y-29455771D01*
X89567738Y-29455771D02*
X89377262Y-29455771D01*
X89377262Y-29455771D02*
X89282024Y-29503390D01*
X89282024Y-29503390D02*
X89234405Y-29551009D01*
X89234405Y-29551009D02*
X89186786Y-29646247D01*
X90186786Y-30074819D02*
X90186786Y-29074819D01*
X90186786Y-29074819D02*
X90520119Y-29789104D01*
X90520119Y-29789104D02*
X90853452Y-29074819D01*
X90853452Y-29074819D02*
X90853452Y-30074819D01*
X91329643Y-30074819D02*
X91329643Y-29074819D01*
X91329643Y-29551009D02*
X91901071Y-29551009D01*
X91901071Y-30074819D02*
X91901071Y-29074819D01*
X92282024Y-29408152D02*
X92805833Y-29408152D01*
X92805833Y-29408152D02*
X92282024Y-30074819D01*
X92282024Y-30074819D02*
X92805833Y-30074819D01*
X93710595Y-30074819D02*
X93139167Y-30074819D01*
X93424881Y-30074819D02*
X93424881Y-29074819D01*
X93424881Y-29074819D02*
X93329643Y-29217676D01*
X93329643Y-29217676D02*
X93234405Y-29312914D01*
X93234405Y-29312914D02*
X93139167Y-29360533D01*
X66031429Y-40054819D02*
X66031429Y-39054819D01*
X66031429Y-39054819D02*
X66412381Y-39054819D01*
X66412381Y-39054819D02*
X66507619Y-39102438D01*
X66507619Y-39102438D02*
X66555238Y-39150057D01*
X66555238Y-39150057D02*
X66602857Y-39245295D01*
X66602857Y-39245295D02*
X66602857Y-39388152D01*
X66602857Y-39388152D02*
X66555238Y-39483390D01*
X66555238Y-39483390D02*
X66507619Y-39531009D01*
X66507619Y-39531009D02*
X66412381Y-39578628D01*
X66412381Y-39578628D02*
X66031429Y-39578628D01*
X67031429Y-40054819D02*
X67031429Y-39054819D01*
X68079047Y-40054819D02*
X67745714Y-39578628D01*
X67507619Y-40054819D02*
X67507619Y-39054819D01*
X67507619Y-39054819D02*
X67888571Y-39054819D01*
X67888571Y-39054819D02*
X67983809Y-39102438D01*
X67983809Y-39102438D02*
X68031428Y-39150057D01*
X68031428Y-39150057D02*
X68079047Y-39245295D01*
X68079047Y-39245295D02*
X68079047Y-39388152D01*
X68079047Y-39388152D02*
X68031428Y-39483390D01*
X68031428Y-39483390D02*
X67983809Y-39531009D01*
X67983809Y-39531009D02*
X67888571Y-39578628D01*
X67888571Y-39578628D02*
X67507619Y-39578628D01*
X68460000Y-40007200D02*
X68602857Y-40054819D01*
X68602857Y-40054819D02*
X68840952Y-40054819D01*
X68840952Y-40054819D02*
X68936190Y-40007200D01*
X68936190Y-40007200D02*
X68983809Y-39959580D01*
X68983809Y-39959580D02*
X69031428Y-39864342D01*
X69031428Y-39864342D02*
X69031428Y-39769104D01*
X69031428Y-39769104D02*
X68983809Y-39673866D01*
X68983809Y-39673866D02*
X68936190Y-39626247D01*
X68936190Y-39626247D02*
X68840952Y-39578628D01*
X68840952Y-39578628D02*
X68650476Y-39531009D01*
X68650476Y-39531009D02*
X68555238Y-39483390D01*
X68555238Y-39483390D02*
X68507619Y-39435771D01*
X68507619Y-39435771D02*
X68460000Y-39340533D01*
X68460000Y-39340533D02*
X68460000Y-39245295D01*
X68460000Y-39245295D02*
X68507619Y-39150057D01*
X68507619Y-39150057D02*
X68555238Y-39102438D01*
X68555238Y-39102438D02*
X68650476Y-39054819D01*
X68650476Y-39054819D02*
X68888571Y-39054819D01*
X68888571Y-39054819D02*
X69031428Y-39102438D01*
X69460000Y-39531009D02*
X69793333Y-39531009D01*
X69936190Y-40054819D02*
X69460000Y-40054819D01*
X69460000Y-40054819D02*
X69460000Y-39054819D01*
X69460000Y-39054819D02*
X69936190Y-39054819D01*
X70364762Y-40054819D02*
X70364762Y-39054819D01*
X70364762Y-39054819D02*
X70936190Y-40054819D01*
X70936190Y-40054819D02*
X70936190Y-39054819D01*
X71364762Y-40007200D02*
X71507619Y-40054819D01*
X71507619Y-40054819D02*
X71745714Y-40054819D01*
X71745714Y-40054819D02*
X71840952Y-40007200D01*
X71840952Y-40007200D02*
X71888571Y-39959580D01*
X71888571Y-39959580D02*
X71936190Y-39864342D01*
X71936190Y-39864342D02*
X71936190Y-39769104D01*
X71936190Y-39769104D02*
X71888571Y-39673866D01*
X71888571Y-39673866D02*
X71840952Y-39626247D01*
X71840952Y-39626247D02*
X71745714Y-39578628D01*
X71745714Y-39578628D02*
X71555238Y-39531009D01*
X71555238Y-39531009D02*
X71460000Y-39483390D01*
X71460000Y-39483390D02*
X71412381Y-39435771D01*
X71412381Y-39435771D02*
X71364762Y-39340533D01*
X71364762Y-39340533D02*
X71364762Y-39245295D01*
X71364762Y-39245295D02*
X71412381Y-39150057D01*
X71412381Y-39150057D02*
X71460000Y-39102438D01*
X71460000Y-39102438D02*
X71555238Y-39054819D01*
X71555238Y-39054819D02*
X71793333Y-39054819D01*
X71793333Y-39054819D02*
X71936190Y-39102438D01*
X72555238Y-39054819D02*
X72745714Y-39054819D01*
X72745714Y-39054819D02*
X72840952Y-39102438D01*
X72840952Y-39102438D02*
X72936190Y-39197676D01*
X72936190Y-39197676D02*
X72983809Y-39388152D01*
X72983809Y-39388152D02*
X72983809Y-39721485D01*
X72983809Y-39721485D02*
X72936190Y-39911961D01*
X72936190Y-39911961D02*
X72840952Y-40007200D01*
X72840952Y-40007200D02*
X72745714Y-40054819D01*
X72745714Y-40054819D02*
X72555238Y-40054819D01*
X72555238Y-40054819D02*
X72460000Y-40007200D01*
X72460000Y-40007200D02*
X72364762Y-39911961D01*
X72364762Y-39911961D02*
X72317143Y-39721485D01*
X72317143Y-39721485D02*
X72317143Y-39388152D01*
X72317143Y-39388152D02*
X72364762Y-39197676D01*
X72364762Y-39197676D02*
X72460000Y-39102438D01*
X72460000Y-39102438D02*
X72555238Y-39054819D01*
X73983809Y-40054819D02*
X73650476Y-39578628D01*
X73412381Y-40054819D02*
X73412381Y-39054819D01*
X73412381Y-39054819D02*
X73793333Y-39054819D01*
X73793333Y-39054819D02*
X73888571Y-39102438D01*
X73888571Y-39102438D02*
X73936190Y-39150057D01*
X73936190Y-39150057D02*
X73983809Y-39245295D01*
X73983809Y-39245295D02*
X73983809Y-39388152D01*
X73983809Y-39388152D02*
X73936190Y-39483390D01*
X73936190Y-39483390D02*
X73888571Y-39531009D01*
X73888571Y-39531009D02*
X73793333Y-39578628D01*
X73793333Y-39578628D02*
X73412381Y-39578628D01*
X74364762Y-39150057D02*
X74412381Y-39102438D01*
X74412381Y-39102438D02*
X74507619Y-39054819D01*
X74507619Y-39054819D02*
X74745714Y-39054819D01*
X74745714Y-39054819D02*
X74840952Y-39102438D01*
X74840952Y-39102438D02*
X74888571Y-39150057D01*
X74888571Y-39150057D02*
X74936190Y-39245295D01*
X74936190Y-39245295D02*
X74936190Y-39340533D01*
X74936190Y-39340533D02*
X74888571Y-39483390D01*
X74888571Y-39483390D02*
X74317143Y-40054819D01*
X74317143Y-40054819D02*
X74936190Y-40054819D01*
X157464761Y-102125057D02*
X157369523Y-102077438D01*
X157369523Y-102077438D02*
X157274285Y-101982200D01*
X157274285Y-101982200D02*
X157131428Y-101839342D01*
X157131428Y-101839342D02*
X157036190Y-101791723D01*
X157036190Y-101791723D02*
X156940952Y-101791723D01*
X156988571Y-102029819D02*
X156893333Y-101982200D01*
X156893333Y-101982200D02*
X156798095Y-101886961D01*
X156798095Y-101886961D02*
X156750476Y-101696485D01*
X156750476Y-101696485D02*
X156750476Y-101363152D01*
X156750476Y-101363152D02*
X156798095Y-101172676D01*
X156798095Y-101172676D02*
X156893333Y-101077438D01*
X156893333Y-101077438D02*
X156988571Y-101029819D01*
X156988571Y-101029819D02*
X157179047Y-101029819D01*
X157179047Y-101029819D02*
X157274285Y-101077438D01*
X157274285Y-101077438D02*
X157369523Y-101172676D01*
X157369523Y-101172676D02*
X157417142Y-101363152D01*
X157417142Y-101363152D02*
X157417142Y-101696485D01*
X157417142Y-101696485D02*
X157369523Y-101886961D01*
X157369523Y-101886961D02*
X157274285Y-101982200D01*
X157274285Y-101982200D02*
X157179047Y-102029819D01*
X157179047Y-102029819D02*
X156988571Y-102029819D01*
X157798095Y-101125057D02*
X157845714Y-101077438D01*
X157845714Y-101077438D02*
X157940952Y-101029819D01*
X157940952Y-101029819D02*
X158179047Y-101029819D01*
X158179047Y-101029819D02*
X158274285Y-101077438D01*
X158274285Y-101077438D02*
X158321904Y-101125057D01*
X158321904Y-101125057D02*
X158369523Y-101220295D01*
X158369523Y-101220295D02*
X158369523Y-101315533D01*
X158369523Y-101315533D02*
X158321904Y-101458390D01*
X158321904Y-101458390D02*
X157750476Y-102029819D01*
X157750476Y-102029819D02*
X158369523Y-102029819D01*
X177681905Y-85484819D02*
X177681905Y-84484819D01*
X177681905Y-84484819D02*
X177920000Y-84484819D01*
X177920000Y-84484819D02*
X178062857Y-84532438D01*
X178062857Y-84532438D02*
X178158095Y-84627676D01*
X178158095Y-84627676D02*
X178205714Y-84722914D01*
X178205714Y-84722914D02*
X178253333Y-84913390D01*
X178253333Y-84913390D02*
X178253333Y-85056247D01*
X178253333Y-85056247D02*
X178205714Y-85246723D01*
X178205714Y-85246723D02*
X178158095Y-85341961D01*
X178158095Y-85341961D02*
X178062857Y-85437200D01*
X178062857Y-85437200D02*
X177920000Y-85484819D01*
X177920000Y-85484819D02*
X177681905Y-85484819D01*
X178586667Y-84484819D02*
X179205714Y-84484819D01*
X179205714Y-84484819D02*
X178872381Y-84865771D01*
X178872381Y-84865771D02*
X179015238Y-84865771D01*
X179015238Y-84865771D02*
X179110476Y-84913390D01*
X179110476Y-84913390D02*
X179158095Y-84961009D01*
X179158095Y-84961009D02*
X179205714Y-85056247D01*
X179205714Y-85056247D02*
X179205714Y-85294342D01*
X179205714Y-85294342D02*
X179158095Y-85389580D01*
X179158095Y-85389580D02*
X179110476Y-85437200D01*
X179110476Y-85437200D02*
X179015238Y-85484819D01*
X179015238Y-85484819D02*
X178729524Y-85484819D01*
X178729524Y-85484819D02*
X178634286Y-85437200D01*
X178634286Y-85437200D02*
X178586667Y-85389580D01*
X173078095Y-85854819D02*
X173078095Y-84854819D01*
X173649523Y-85854819D02*
X173220952Y-85283390D01*
X173649523Y-84854819D02*
X173078095Y-85426247D01*
D11*
%TO.C,J1*%
X67600000Y-65565000D02*
X67600000Y-67465000D01*
X72500000Y-65265000D02*
X72500000Y-67465000D01*
X67650000Y-65265000D02*
X67370000Y-65265000D01*
X67650000Y-64985000D01*
X67650000Y-65265000D01*
G36*
X67650000Y-65265000D02*
G01*
X67370000Y-65265000D01*
X67650000Y-64985000D01*
X67650000Y-65265000D01*
G37*
%TO.C,RF1*%
X155975000Y-127390000D02*
X157475000Y-127390000D01*
X156115000Y-125610000D02*
X157475000Y-125610000D01*
X155745000Y-125610000D02*
X155465000Y-125610000D01*
X155745000Y-125330000D01*
X155745000Y-125610000D01*
G36*
X155745000Y-125610000D02*
G01*
X155465000Y-125610000D01*
X155745000Y-125330000D01*
X155745000Y-125610000D01*
G37*
%TO.C,DIO3*%
X167600000Y-101822500D02*
X171460000Y-101822500D01*
X167600000Y-105672500D02*
X167600000Y-101822500D01*
X170930000Y-105672500D02*
X167600000Y-105672500D01*
X171460000Y-101822500D02*
X171460000Y-105672500D01*
%TO.C,D4*%
X129300000Y-55000000D02*
G75*
G02*
X120700000Y-55000000I-4300000J0D01*
G01*
X120700000Y-55000000D02*
G75*
G02*
X129300000Y-55000000I4300000J0D01*
G01*
X120000000Y-54500000D02*
X119660000Y-54030000D01*
X120340000Y-54030000D01*
X120000000Y-54500000D01*
G36*
X120000000Y-54500000D02*
G01*
X119660000Y-54030000D01*
X120340000Y-54030000D01*
X120000000Y-54500000D01*
G37*
%TO.C,C1*%
X112302500Y-132304437D02*
X112302500Y-132940000D01*
X112302500Y-132304437D02*
X113366937Y-131240000D01*
X112302500Y-135695563D02*
X112302500Y-135060000D01*
X112302500Y-135695563D02*
X113366937Y-136760000D01*
X113366937Y-131240000D02*
X117822500Y-131240000D01*
X113366937Y-136760000D02*
X117822500Y-136760000D01*
X117822500Y-131240000D02*
X117822500Y-132940000D01*
X117822500Y-136760000D02*
X117822500Y-135060000D01*
%TO.C,D5*%
X142260000Y-110492500D02*
X143280000Y-110492500D01*
X144060000Y-109022500D02*
X144060000Y-111962500D01*
X144180000Y-109022500D02*
X144180000Y-111962500D01*
X144300000Y-109022500D02*
X144300000Y-111962500D01*
X149740000Y-110492500D02*
X148720000Y-110492500D01*
X143280000Y-109022500D02*
X148720000Y-109022500D01*
X148720000Y-111962500D01*
X143280000Y-111962500D01*
X143280000Y-109022500D01*
%TO.C,C5*%
X60677500Y-87004437D02*
X60677500Y-87640000D01*
X60677500Y-87004437D02*
X61741937Y-85940000D01*
X60677500Y-90395563D02*
X60677500Y-89760000D01*
X60677500Y-90395563D02*
X61741937Y-91460000D01*
X61741937Y-85940000D02*
X66197500Y-85940000D01*
X61741937Y-91460000D02*
X66197500Y-91460000D01*
X66197500Y-85940000D02*
X66197500Y-87640000D01*
X66197500Y-91460000D02*
X66197500Y-89760000D01*
%TO.C,C3*%
X60677500Y-73304437D02*
X60677500Y-73940000D01*
X60677500Y-73304437D02*
X61741937Y-72240000D01*
X60677500Y-76695563D02*
X60677500Y-76060000D01*
X60677500Y-76695563D02*
X61741937Y-77760000D01*
X61741937Y-72240000D02*
X66197500Y-72240000D01*
X61741937Y-77760000D02*
X66197500Y-77760000D01*
X66197500Y-72240000D02*
X66197500Y-73940000D01*
X66197500Y-77760000D02*
X66197500Y-76060000D01*
%TO.C,C2*%
X98177500Y-132304437D02*
X98177500Y-132940000D01*
X98177500Y-132304437D02*
X99241937Y-131240000D01*
X98177500Y-135695563D02*
X98177500Y-135060000D01*
X98177500Y-135695563D02*
X99241937Y-136760000D01*
X99241937Y-131240000D02*
X103697500Y-131240000D01*
X99241937Y-136760000D02*
X103697500Y-136760000D01*
X103697500Y-131240000D02*
X103697500Y-132940000D01*
X103697500Y-136760000D02*
X103697500Y-135060000D01*
%TO.C,J2*%
X164620000Y-60120000D02*
X166000000Y-60120000D01*
X164620000Y-61500000D02*
X164620000Y-60120000D01*
X164620000Y-62770000D02*
X164620000Y-67960000D01*
X164620000Y-62770000D02*
X167270000Y-62770000D01*
X164620000Y-67960000D02*
X169920000Y-67960000D01*
X167270000Y-60120000D02*
X169920000Y-60120000D01*
X167270000Y-62770000D02*
X167270000Y-60120000D01*
X169920000Y-60120000D02*
X169920000Y-67960000D01*
%TO.C,D2*%
X116205000Y-122527500D02*
X116205000Y-125327500D01*
X116205000Y-125327500D02*
X120905000Y-125327500D01*
X119055000Y-122827500D02*
X118355000Y-122827500D01*
X119055000Y-125027500D02*
X118355000Y-125027500D01*
X120905000Y-122527500D02*
X116205000Y-122527500D01*
%TO.C,C4*%
X60677500Y-80154437D02*
X60677500Y-80790000D01*
X60677500Y-80154437D02*
X61741937Y-79090000D01*
X60677500Y-83545563D02*
X60677500Y-82910000D01*
X60677500Y-83545563D02*
X61741937Y-84610000D01*
X61741937Y-79090000D02*
X66197500Y-79090000D01*
X61741937Y-84610000D02*
X66197500Y-84610000D01*
X66197500Y-79090000D02*
X66197500Y-80790000D01*
X66197500Y-84610000D02*
X66197500Y-82910000D01*
%TO.C,DHT11-TEMP&HUMD1*%
X135170000Y-126190000D02*
X135170000Y-131330000D01*
X135170000Y-126190000D02*
X137830000Y-126190000D01*
X135170000Y-131330000D02*
X137830000Y-131330000D01*
X136500000Y-123590000D02*
X137830000Y-123590000D01*
X137830000Y-123590000D02*
X137830000Y-124920000D01*
X137830000Y-126190000D02*
X137830000Y-131330000D01*
%TO.C,J3*%
X71380000Y-118900000D02*
X70625000Y-118900000D01*
X71380000Y-118900000D02*
X71380000Y-127700000D01*
X74550000Y-117155000D02*
X75600000Y-117155000D01*
X74550000Y-129445000D02*
X75600000Y-129445000D01*
%TO.C,M1*%
X145070000Y-95850000D02*
X152870000Y-95850000D01*
X145070000Y-101900000D02*
X145070000Y-95850000D01*
X146420000Y-100790000D02*
X151500000Y-100790000D01*
X146420000Y-101800000D02*
X146420000Y-100790000D01*
X151500000Y-100790000D02*
X151500000Y-101800000D01*
X152870000Y-95850000D02*
X152870000Y-101900000D01*
X152870000Y-101900000D02*
X145070000Y-101900000D01*
%TO.C,U1*%
X83097500Y-56032500D02*
X83097500Y-106952500D01*
X83097500Y-106952500D02*
X96017500Y-106952500D01*
X88557500Y-56032500D02*
X83097500Y-56032500D01*
X96017500Y-56032500D02*
X90557500Y-56032500D01*
X96017500Y-106952500D02*
X96017500Y-56032500D01*
X90557500Y-56032500D02*
G75*
G02*
X88557500Y-56032500I-1000000J0D01*
G01*
%TO.C,BZ1*%
X140400000Y-81000000D02*
G75*
G02*
X128200000Y-81000000I-6100000J0D01*
G01*
X128200000Y-81000000D02*
G75*
G02*
X140400000Y-81000000I6100000J0D01*
G01*
%TO.C,U2*%
X97430000Y-117740000D02*
X97430000Y-122360000D01*
X97430000Y-117740000D02*
X107650000Y-117740000D01*
X97430000Y-119120000D02*
X107650000Y-119120000D01*
X97430000Y-122360000D02*
X107650000Y-122360000D01*
X100690000Y-117740000D02*
X100690000Y-119120000D01*
X104390000Y-117740000D02*
X104390000Y-119120000D01*
X107650000Y-117740000D02*
X107650000Y-122360000D01*
%TO.C,PIRSENSOR1*%
X66650000Y-54850000D02*
X74450000Y-54850000D01*
X66650000Y-60900000D02*
X66650000Y-54850000D01*
X68000000Y-59790000D02*
X73080000Y-59790000D01*
X68000000Y-60800000D02*
X68000000Y-59790000D01*
X73080000Y-59790000D02*
X73080000Y-60800000D01*
X74450000Y-54850000D02*
X74450000Y-60900000D01*
X74450000Y-60900000D02*
X66650000Y-60900000D01*
%TO.C,C6*%
X60677500Y-93854437D02*
X60677500Y-94490000D01*
X60677500Y-93854437D02*
X61741937Y-92790000D01*
X60677500Y-97245563D02*
X60677500Y-96610000D01*
X60677500Y-97245563D02*
X61741937Y-98310000D01*
X61741937Y-92790000D02*
X66197500Y-92790000D01*
X61741937Y-98310000D02*
X66197500Y-98310000D01*
X66197500Y-92790000D02*
X66197500Y-94490000D01*
X66197500Y-98310000D02*
X66197500Y-96610000D01*
%TO.C,Q1*%
X156900000Y-76440000D02*
X156900000Y-80342500D01*
X157590000Y-83380000D02*
X161590000Y-83380000D01*
X162280000Y-76440000D02*
X156900000Y-76440000D01*
X162280000Y-80285000D02*
X162280000Y-76440000D01*
%TO.C,AmbientTEMPSENSOR1*%
X60970000Y-112350000D02*
X64570000Y-112350000D01*
X60931522Y-112338478D02*
G75*
G02*
X62770000Y-107899999I1838478J1838478D01*
G01*
X62770000Y-107900000D02*
G75*
G02*
X64608478Y-112338478I0J-2600000D01*
G01*
%TO.C,D1*%
X116180000Y-116500000D02*
X117200000Y-116500000D01*
X117980000Y-115030000D02*
X117980000Y-117970000D01*
X118100000Y-115030000D02*
X118100000Y-117970000D01*
X118220000Y-115030000D02*
X118220000Y-117970000D01*
X123660000Y-116500000D02*
X122640000Y-116500000D01*
X117200000Y-115030000D02*
X122640000Y-115030000D01*
X122640000Y-117970000D01*
X117200000Y-117970000D01*
X117200000Y-115030000D01*
%TO.C,16MHz1*%
X104875000Y-40565000D02*
X111125000Y-40565000D01*
X104875000Y-45435000D02*
X111125000Y-45435000D01*
X104875000Y-45435000D02*
G75*
G02*
X104875000Y-40565000I0J2435000D01*
G01*
X111125000Y-40565000D02*
G75*
G02*
X111125000Y-45435000I0J-2435000D01*
G01*
%TO.C,PIRSENSOR2*%
X66610000Y-40350000D02*
X74410000Y-40350000D01*
X66610000Y-46400000D02*
X66610000Y-40350000D01*
X67960000Y-45290000D02*
X73040000Y-45290000D01*
X67960000Y-46300000D02*
X67960000Y-45290000D01*
X73040000Y-45290000D02*
X73040000Y-46300000D01*
X74410000Y-40350000D02*
X74410000Y-46400000D01*
X74410000Y-46400000D02*
X66610000Y-46400000D01*
%TO.C,Q2*%
X154870000Y-102315000D02*
X154870000Y-106217500D01*
X155560000Y-109255000D02*
X159560000Y-109255000D01*
X160250000Y-102315000D02*
X154870000Y-102315000D01*
X160250000Y-106160000D02*
X160250000Y-102315000D01*
%TO.C,D3*%
X174680000Y-87500000D02*
X175700000Y-87500000D01*
X176480000Y-86030000D02*
X176480000Y-88970000D01*
X176600000Y-86030000D02*
X176600000Y-88970000D01*
X176720000Y-86030000D02*
X176720000Y-88970000D01*
X182160000Y-87500000D02*
X181140000Y-87500000D01*
X175700000Y-86030000D02*
X181140000Y-86030000D01*
X181140000Y-88970000D01*
X175700000Y-88970000D01*
X175700000Y-86030000D01*
%TD*%
M02*
