%TF.GenerationSoftware,KiCad,Pcbnew,9.0.2*%
%TF.CreationDate,2025-05-15T00:42:05-04:00*%
%TF.ProjectId,ProjectScematic_PCBv2,50726f6a-6563-4745-9363-656d61746963,rev?*%
%TF.SameCoordinates,Original*%
%TF.FileFunction,Soldermask,Top*%
%TF.FilePolarity,Negative*%
%FSLAX46Y46*%
G04 Gerber Fmt 4.6, Leading zero omitted, Abs format (unit mm)*
G04 Created by KiCad (PCBNEW 9.0.2) date 2025-05-15 00:42:05*
%MOMM*%
%LPD*%
G01*
G04 APERTURE LIST*
G04 Aperture macros list*
%AMRoundRect*
0 Rectangle with rounded corners*
0 $1 Rounding radius*
0 $2 $3 $4 $5 $6 $7 $8 $9 X,Y pos of 4 corners*
0 Add a 4 corners polygon primitive as box body*
4,1,4,$2,$3,$4,$5,$6,$7,$8,$9,$2,$3,0*
0 Add four circle primitives for the rounded corners*
1,1,$1+$1,$2,$3*
1,1,$1+$1,$4,$5*
1,1,$1+$1,$6,$7*
1,1,$1+$1,$8,$9*
0 Add four rect primitives between the rounded corners*
20,1,$1+$1,$2,$3,$4,$5,0*
20,1,$1+$1,$4,$5,$6,$7,0*
20,1,$1+$1,$6,$7,$8,$9,0*
20,1,$1+$1,$8,$9,$2,$3,0*%
%AMOutline5P*
0 Free polygon, 5 corners , with rotation*
0 The origin of the aperture is its center*
0 number of corners: always 5*
0 $1 to $10 corner X, Y*
0 $11 Rotation angle, in degrees counterclockwise*
0 create outline with 5 corners*
4,1,5,$1,$2,$3,$4,$5,$6,$7,$8,$9,$10,$1,$2,$11*%
%AMOutline6P*
0 Free polygon, 6 corners , with rotation*
0 The origin of the aperture is its center*
0 number of corners: always 6*
0 $1 to $12 corner X, Y*
0 $13 Rotation angle, in degrees counterclockwise*
0 create outline with 6 corners*
4,1,6,$1,$2,$3,$4,$5,$6,$7,$8,$9,$10,$11,$12,$1,$2,$13*%
%AMOutline7P*
0 Free polygon, 7 corners , with rotation*
0 The origin of the aperture is its center*
0 number of corners: always 7*
0 $1 to $14 corner X, Y*
0 $15 Rotation angle, in degrees counterclockwise*
0 create outline with 7 corners*
4,1,7,$1,$2,$3,$4,$5,$6,$7,$8,$9,$10,$11,$12,$13,$14,$1,$2,$15*%
%AMOutline8P*
0 Free polygon, 8 corners , with rotation*
0 The origin of the aperture is its center*
0 number of corners: always 8*
0 $1 to $16 corner X, Y*
0 $17 Rotation angle, in degrees counterclockwise*
0 create outline with 8 corners*
4,1,8,$1,$2,$3,$4,$5,$6,$7,$8,$9,$10,$11,$12,$13,$14,$15,$16,$1,$2,$17*%
%AMFreePoly0*
4,1,14,0.100000,0.600000,0.350000,0.600000,0.350000,-0.600000,0.100000,-0.600000,0.100000,-0.650000,-0.100000,-0.650000,-0.100000,-0.600000,-0.350000,-0.600000,-0.350000,0.450000,-0.200000,0.600000,-0.100000,0.600000,-0.100000,0.650000,0.100000,0.650000,0.100000,0.600000,0.100000,0.600000,$1*%
G04 Aperture macros list end*
%ADD10Outline5P,-0.250000X0.175000X0.152000X0.175000X0.250000X0.077000X0.250000X-0.175000X-0.250000X-0.175000X270.000000*%
%ADD11RoundRect,0.087500X-0.087500X0.162500X-0.087500X-0.162500X0.087500X-0.162500X0.087500X0.162500X0*%
%ADD12RoundRect,0.062500X-0.112500X-0.062500X0.112500X-0.062500X0.112500X0.062500X-0.112500X0.062500X0*%
%ADD13FreePoly0,0.000000*%
%ADD14R,0.550000X0.380000*%
%ADD15R,1.400000X1.200000*%
%ADD16R,3.500000X2.700000*%
%ADD17C,5.700000*%
%ADD18RoundRect,0.250000X-1.137500X-0.550000X1.137500X-0.550000X1.137500X0.550000X-1.137500X0.550000X0*%
%ADD19C,2.100000*%
%ADD20RoundRect,0.100000X-0.217500X-0.100000X0.217500X-0.100000X0.217500X0.100000X-0.217500X0.100000X0*%
%ADD21RoundRect,0.249999X-0.850001X-0.850001X0.850001X-0.850001X0.850001X0.850001X-0.850001X0.850001X0*%
%ADD22C,2.200000*%
%ADD23R,1.700000X1.700000*%
%ADD24C,1.700000*%
%ADD25R,1.550000X2.200000*%
%ADD26C,1.100000*%
%ADD27R,2.500000X1.100000*%
%ADD28O,3.500000X1.900000*%
%ADD29R,1.730000X2.030000*%
%ADD30O,1.730000X2.030000*%
%ADD31RoundRect,0.250000X-0.550000X-0.550000X0.550000X-0.550000X0.550000X0.550000X-0.550000X0.550000X0*%
%ADD32C,1.600000*%
%ADD33R,2.000000X2.000000*%
%ADD34C,2.000000*%
%ADD35R,1.905000X2.000000*%
%ADD36O,1.905000X2.000000*%
%ADD37RoundRect,0.150000X-1.315000X-0.150000X1.315000X-0.150000X1.315000X0.150000X-1.315000X0.150000X0*%
%ADD38RoundRect,0.150000X-0.150000X-0.350000X0.150000X-0.350000X0.150000X0.350000X-0.150000X0.350000X0*%
%ADD39RoundRect,0.250000X-1.630000X-1.285000X1.630000X-1.285000X1.630000X1.285000X-1.630000X1.285000X0*%
%ADD40R,1.050000X1.500000*%
%ADD41O,1.050000X1.500000*%
%ADD42C,1.500000*%
G04 APERTURE END LIST*
D10*
%TO.C,J1*%
X68000000Y-65690000D03*
D11*
X68820000Y-65690000D03*
X69640000Y-65690000D03*
X70460000Y-65690000D03*
X71280000Y-65690000D03*
X72100000Y-65690000D03*
X72100000Y-67000000D03*
X71280000Y-67000000D03*
X70460000Y-67000000D03*
X69640000Y-67000000D03*
X68820000Y-67000000D03*
X68000000Y-67000000D03*
%TD*%
D12*
%TO.C,RF1*%
X156000000Y-126000000D03*
X156000000Y-126500000D03*
X156000000Y-127000000D03*
X157450000Y-127000000D03*
X157450000Y-126500000D03*
X157450000Y-126000000D03*
D13*
X156725000Y-126500000D03*
%TD*%
D14*
%TO.C,DIO3*%
X169980000Y-104692500D03*
X169080000Y-104692500D03*
D15*
X169530000Y-103652500D03*
%TD*%
D16*
%TO.C,D4*%
X118650000Y-56350000D03*
X131350000Y-53650000D03*
D17*
X125000000Y-55000000D03*
%TD*%
D18*
%TO.C,C1*%
X113000000Y-134000000D03*
X117125000Y-134000000D03*
%TD*%
D19*
%TO.C,H4*%
X39500000Y-160500000D03*
%TD*%
D20*
%TO.C,R1*%
X131500000Y-66500000D03*
X132315000Y-66500000D03*
%TD*%
D21*
%TO.C,D5*%
X140920000Y-110492500D03*
D22*
X151080000Y-110492500D03*
%TD*%
D18*
%TO.C,C5*%
X61375000Y-88700000D03*
X65500000Y-88700000D03*
%TD*%
D20*
%TO.C,R6*%
X109525000Y-101750000D03*
X110340000Y-101750000D03*
%TD*%
D18*
%TO.C,C3*%
X61375000Y-75000000D03*
X65500000Y-75000000D03*
%TD*%
%TO.C,C2*%
X98875000Y-134000000D03*
X103000000Y-134000000D03*
%TD*%
D23*
%TO.C,J2*%
X166000000Y-61500000D03*
D24*
X168540000Y-61500000D03*
X166000000Y-64040000D03*
X168540000Y-64040000D03*
X166000000Y-66580000D03*
X168540000Y-66580000D03*
%TD*%
D20*
%TO.C,R7*%
X109525000Y-103500000D03*
X110340000Y-103500000D03*
%TD*%
%TO.C,R5*%
X109525000Y-100000000D03*
X110340000Y-100000000D03*
%TD*%
D25*
%TO.C,D2*%
X120130000Y-123927500D03*
X117280000Y-123927500D03*
%TD*%
D18*
%TO.C,C4*%
X61375000Y-81850000D03*
X65500000Y-81850000D03*
%TD*%
D23*
%TO.C,DHT11-TEMP&HUMD1*%
X136500000Y-124920000D03*
D24*
X136500000Y-127460000D03*
X136500000Y-130000000D03*
%TD*%
D26*
%TO.C,J3*%
X72500000Y-121000000D03*
X72500000Y-125600000D03*
D27*
X69750000Y-119800000D03*
X69750000Y-122300000D03*
X69750000Y-124300000D03*
X69750000Y-126800000D03*
D28*
X72500000Y-117600000D03*
X72500000Y-129000000D03*
%TD*%
D29*
%TO.C,M1*%
X146420000Y-98500000D03*
D30*
X148960000Y-98500000D03*
X151500000Y-98500000D03*
%TD*%
D31*
%TO.C,U1*%
X81937500Y-57362500D03*
D32*
X81937500Y-59902500D03*
X81937500Y-62442500D03*
X81937500Y-64982500D03*
X81937500Y-67522500D03*
X81937500Y-70062500D03*
X81937500Y-72602500D03*
X81937500Y-75142500D03*
X81937500Y-77682500D03*
X81937500Y-80222500D03*
X81937500Y-82762500D03*
X81937500Y-85302500D03*
X81937500Y-87842500D03*
X81937500Y-90382500D03*
X81937500Y-92922500D03*
X81937500Y-95462500D03*
X81937500Y-98002500D03*
X81937500Y-100542500D03*
X81937500Y-103082500D03*
X81937500Y-105622500D03*
X97177500Y-105622500D03*
X97177500Y-103082500D03*
X97177500Y-100542500D03*
X97177500Y-98002500D03*
X97177500Y-95462500D03*
X97177500Y-92922500D03*
X97177500Y-90382500D03*
X97177500Y-87842500D03*
X97177500Y-85302500D03*
X97177500Y-82762500D03*
X97177500Y-80222500D03*
X97177500Y-77682500D03*
X97177500Y-75142500D03*
X97177500Y-72602500D03*
X97177500Y-70062500D03*
X97177500Y-67522500D03*
X97177500Y-64982500D03*
X97177500Y-62442500D03*
X97177500Y-59902500D03*
X97177500Y-57362500D03*
%TD*%
D33*
%TO.C,BZ1*%
X130500000Y-81000000D03*
D34*
X138100000Y-81000000D03*
%TD*%
D19*
%TO.C,H3*%
X191500000Y-157000000D03*
%TD*%
D20*
%TO.C,R4*%
X109525000Y-98250000D03*
X110340000Y-98250000D03*
%TD*%
D19*
%TO.C,H1*%
X36500000Y-24000000D03*
%TD*%
D35*
%TO.C,U2*%
X100000000Y-121000000D03*
D36*
X102540000Y-121000000D03*
X105080000Y-121000000D03*
%TD*%
D19*
%TO.C,H2*%
X190000000Y-26500000D03*
%TD*%
D29*
%TO.C,PIRSENSOR1*%
X68000000Y-57500000D03*
D30*
X70540000Y-57500000D03*
X73080000Y-57500000D03*
%TD*%
D18*
%TO.C,C6*%
X61375000Y-95550000D03*
X65500000Y-95550000D03*
%TD*%
D37*
%TO.C,Q1*%
X160000000Y-77000000D03*
D38*
X157460000Y-81720000D03*
D39*
X160140000Y-81580000D03*
%TD*%
D20*
%TO.C,R2*%
X109525000Y-94750000D03*
X110340000Y-94750000D03*
%TD*%
%TO.C,R8*%
X158995000Y-94875000D03*
X159810000Y-94875000D03*
%TD*%
D40*
%TO.C,AmbientTEMPSENSOR1*%
X61500000Y-110500000D03*
D41*
X62770000Y-110500000D03*
X64040000Y-110500000D03*
%TD*%
D20*
%TO.C,R3*%
X143557500Y-54987500D03*
X144372500Y-54987500D03*
%TD*%
D21*
%TO.C,D1*%
X114840000Y-116500000D03*
D22*
X125000000Y-116500000D03*
%TD*%
D42*
%TO.C,16MHz1*%
X105560000Y-43000000D03*
X110440000Y-43000000D03*
%TD*%
D29*
%TO.C,PIRSENSOR2*%
X67960000Y-43000000D03*
D30*
X70500000Y-43000000D03*
X73040000Y-43000000D03*
%TD*%
D37*
%TO.C,Q2*%
X157970000Y-102875000D03*
D38*
X155430000Y-107595000D03*
D39*
X158110000Y-107455000D03*
%TD*%
D21*
%TO.C,D3*%
X173340000Y-87500000D03*
D22*
X183500000Y-87500000D03*
%TD*%
M02*
